{"glyphs":{"0":{"ha":1556,"x_min":14,"x_max":1542,"o":"m 778 -42 q 503 -15 625 -42 q 289 61 381 11 q 136 181 197 111 q 44 335 75 250 q 14 519 14 421 q 56 732 14 631 q 190 913 99 833 q 426 1038 281 992 q 778 1083 571 1083 q 1026 1063 915 1083 q 1221 1003 1136 1042 q 1367 913 1306 965 q 1466 797 1428 860 q 1523 663 1504 733 q 1542 519 1542 593 q 1520 364 1542 438 q 1456 228 1499 290 q 1351 116 1414 165 q 1203 31 1288 67 q 1012 -23 1118 -4 q 778 -42 906 -42 m 775 408 q 857 418 824 408 q 911 444 890 428 q 942 481 932 461 q 951 518 951 500 q 946 551 951 535 q 928 583 940 568 q 897 609 917 597 q 849 627 878 621 q 783 633 821 633 q 701 624 735 633 q 645 598 667 614 q 614 561 624 582 q 604 519 604 540 q 613 479 604 499 q 640 444 621 460 q 693 418 660 428 q 775 408 726 408 z "},"1":{"ha":772,"x_min":4,"x_max":744,"o":"m 168 0 q 168 149 168 75 q 168 297 168 224 q 168 445 168 371 q 168 594 168 519 q 168 596 168 596 q 167 596 168 596 q 85 596 126 596 q 4 596 44 596 l 201 1042 l 744 1042 q 744 900 744 971 q 744 758 744 829 q 744 506 744 632 q 744 253 744 379 q 744 0 744 126 l 168 0 z "},"2":{"ha":1417,"x_min":0,"x_max":1394,"o":"m 1394 394 l 1394 0 l 31 0 l 31 328 q 114 338 67 332 q 215 353 161 344 q 325 372 268 361 q 438 394 382 382 q 757 394 597 394 q 1076 394 917 394 q 1394 394 1235 394 m 375 381 q 538 420 453 399 q 698 469 624 442 q 819 531 772 497 q 865 607 865 565 q 844 663 865 640 q 788 695 822 685 q 717 706 754 706 q 642 694 678 706 q 583 661 606 683 q 560 607 560 639 q 593 533 560 569 q 711 471 626 496 l 11 590 q 35 767 0 689 q 142 906 71 846 q 308 1004 213 965 q 512 1063 403 1043 q 733 1083 621 1083 q 978 1060 860 1083 q 1190 992 1096 1038 q 1338 879 1283 947 q 1393 721 1393 811 q 1288 522 1393 600 q 958 410 1183 444 q 375 381 733 375 z "},"3":{"ha":1517,"x_min":11,"x_max":1503,"o":"m 1239 571 q 1238 570 1238 571 q 1238 569 1238 569 q 1238 569 1238 569 q 1239 568 1238 568 q 1390 523 1332 557 q 1475 438 1447 489 q 1503 322 1503 386 q 1443 165 1503 233 q 1282 51 1383 97 q 1053 -18 1181 6 q 792 -42 926 -42 q 550 -22 669 -42 q 328 38 431 -3 q 152 139 226 78 q 44 283 78 200 q 31 471 11 365 l 607 535 q 611 471 599 497 q 650 428 624 444 q 712 403 676 411 q 783 396 747 396 q 843 401 814 396 q 895 417 872 407 q 931 441 918 426 q 944 474 944 456 q 933 510 944 497 q 888 526 921 522 q 789 531 854 531 l 789 557 q 884 563 853 557 q 926 583 915 569 q 936 617 936 596 q 924 647 936 633 q 889 669 911 660 q 840 684 867 679 q 783 689 813 689 q 690 674 735 689 q 620 624 644 658 q 607 535 596 590 l 17 629 q 58 799 15 725 q 177 926 101 872 q 351 1015 253 981 q 560 1067 449 1050 q 785 1083 671 1083 q 1040 1063 917 1083 q 1262 1001 1164 1042 q 1417 904 1360 961 q 1475 774 1475 847 q 1413 642 1475 699 q 1239 571 1351 585 z "},"4":{"ha":1417,"x_min":18,"x_max":1403,"o":"m 1403 408 l 1403 113 l 1294 113 q 1293 113 1293 113 q 1293 111 1293 113 l 1293 0 l 722 0 l 722 111 q 722 113 722 113 q 722 113 722 113 q 721 113 722 113 l 18 113 l 18 519 q 120 624 69 571 q 222 728 171 676 q 324 833 272 781 q 426 938 375 885 q 528 1042 476 990 l 1249 1042 q 896 726 1072 883 q 543 410 719 568 q 543 409 543 410 q 543 408 543 408 q 544 408 543 408 q 544 408 544 408 l 719 408 q 721 408 721 408 q 721 410 721 408 q 720 489 721 450 q 719 567 719 528 l 1293 874 q 1293 642 1293 754 q 1293 410 1293 529 q 1293 408 1293 408 q 1294 408 1293 408 l 1403 408 z "},"5":{"ha":1417,"x_min":19,"x_max":1403,"o":"m 1324 710 l 593 710 q 593 617 593 664 q 593 527 593 571 q 593 443 593 483 l 26 550 q 26 714 26 632 q 26 878 26 796 q 26 1042 26 960 l 1324 1042 l 1324 710 m 594 443 q 626 544 594 500 q 712 619 658 589 q 833 664 765 649 q 974 679 901 679 q 1099 667 1038 679 q 1216 631 1161 656 q 1313 570 1271 607 q 1378 484 1354 533 q 1403 371 1403 435 q 1347 192 1403 269 q 1197 63 1292 114 q 982 -15 1101 11 q 736 -42 863 -42 q 476 -13 603 -42 q 245 71 349 15 q 81 209 142 126 q 19 399 19 292 l 593 443 q 615 394 593 414 q 671 364 636 374 q 742 354 706 354 q 794 360 768 354 q 840 376 819 365 q 872 402 860 386 q 883 439 883 418 q 840 501 883 482 q 744 521 797 521 q 673 512 707 521 q 617 485 639 503 q 594 443 594 468 z "},"6":{"ha":1519,"x_min":14,"x_max":1503,"o":"m 14 511 q 37 683 14 604 q 104 825 60 761 q 214 937 149 889 q 365 1017 279 985 q 556 1067 451 1050 q 785 1083 661 1083 q 1249 997 1072 1083 q 1476 749 1426 910 l 931 619 q 913 667 931 649 q 870 694 896 685 q 819 706 844 703 q 776 710 793 710 q 665 684 710 710 q 597 618 619 658 q 574 533 574 578 q 601 431 574 471 q 676 374 629 392 q 781 356 724 356 q 844 363 814 356 q 898 383 874 369 q 936 416 922 397 q 950 457 950 435 q 935 499 950 481 q 897 528 921 517 q 844 547 874 540 q 783 553 814 553 q 683 538 740 553 q 579 476 626 522 q 656 549 601 518 q 782 597 710 579 q 878 617 828 610 q 981 628 928 625 q 1088 632 1035 632 q 1193 624 1142 632 q 1291 599 1244 615 q 1376 557 1338 582 q 1442 499 1414 532 q 1487 423 1471 465 q 1503 329 1503 381 q 1422 150 1503 235 q 1183 12 1342 65 q 792 -42 1025 -42 q 585 -27 685 -42 q 399 17 486 -12 q 242 91 313 46 q 120 197 171 136 q 42 337 69 258 q 14 511 14 415 z "},"7":{"ha":1263,"x_min":19,"x_max":1278,"o":"m 19 1042 l 1278 1042 q 1049 522 1164 782 q 819 0 935 261 l 167 0 q 240 136 203 68 q 313 272 276 204 q 388 407 350 339 q 462 543 425 475 q 535 679 499 611 q 535 681 535 681 q 535 682 535 682 q 534 682 535 682 q 532 682 533 682 l 19 682 l 19 1042 z "},"8":{"ha":1471,"x_min":14,"x_max":1457,"o":"m 1138 556 q 1259 519 1207 540 q 1349 472 1311 497 q 1410 416 1386 446 q 1446 352 1435 386 q 1457 282 1457 318 q 1386 118 1457 192 q 1157 1 1315 44 q 736 -42 999 -42 q 401 -17 539 -42 q 177 52 263 8 q 53 155 92 96 q 14 282 14 214 q 24 351 14 318 q 58 415 35 385 q 118 470 82 444 q 206 517 154 496 q 326 554 258 539 l 326 556 q 218 590 265 571 q 136 633 171 610 q 79 685 101 657 q 47 743 57 713 q 36 806 36 774 q 106 947 36 885 q 328 1047 175 1010 q 735 1083 482 1083 q 1058 1063 925 1083 q 1272 1003 1190 1042 q 1392 915 1354 965 q 1431 806 1431 864 q 1419 743 1431 774 q 1386 685 1408 713 q 1329 635 1364 658 q 1247 592 1294 611 q 1138 557 1199 572 l 1138 556 m 588 660 q 606 615 588 633 q 658 588 624 597 q 736 579 692 579 q 738 579 738 579 q 740 579 739 579 q 741 579 740 579 q 742 579 742 579 q 744 579 743 579 q 816 588 786 579 q 863 615 846 597 q 879 660 879 633 q 869 695 879 681 q 841 720 860 710 q 796 735 822 731 q 736 740 769 740 q 628 720 668 740 q 588 660 588 700 m 567 458 q 578 419 567 436 q 613 390 590 401 q 666 373 635 379 q 736 367 697 367 q 804 372 774 367 q 856 390 835 378 q 888 419 876 401 q 900 458 900 436 q 858 527 900 503 q 744 551 817 551 q 744 551 744 551 q 742 551 743 551 q 740 551 740 551 q 738 551 739 551 q 736 551 738 551 q 613 528 660 551 q 567 458 567 506 z "},"9":{"ha":1519,"x_min":17,"x_max":1506,"o":"m 735 -42 q 270 46 447 -42 q 43 294 93 133 l 589 424 q 606 376 589 394 q 649 349 624 358 q 701 337 675 340 q 743 333 726 333 q 855 359 810 333 q 923 425 900 385 q 946 510 946 465 q 918 613 946 574 q 843 669 890 651 q 739 688 796 688 q 676 681 706 688 q 622 660 646 674 q 583 628 597 646 q 569 586 569 610 q 584 544 569 563 q 622 515 599 526 q 676 497 646 503 q 736 490 706 490 q 837 506 781 490 q 940 567 893 521 q 865 495 918 525 q 738 446 811 465 q 642 426 693 435 q 539 415 592 418 q 432 411 486 411 q 326 419 378 411 q 228 444 275 428 q 144 486 182 461 q 77 544 106 511 q 33 620 49 578 q 17 714 17 663 q 62 851 17 785 q 197 969 107 917 q 420 1053 288 1022 q 728 1083 553 1083 q 934 1069 835 1083 q 1120 1025 1033 1054 q 1278 951 1207 996 q 1399 844 1349 906 q 1478 706 1450 783 q 1506 532 1506 628 q 1483 360 1506 439 q 1415 217 1460 281 q 1306 105 1371 153 q 1154 24 1240 57 q 963 -25 1068 -8 q 735 -42 858 -42 z "},"A":{"ha":1454,"x_min":3,"x_max":1451,"o":"m 1157 1042 q 1206 869 1182 956 q 1255 695 1231 782 q 1304 522 1279 608 q 1353 348 1329 435 q 1402 174 1378 261 q 1451 0 1426 88 l 832 0 l 808 136 q 799 136 803 136 q 789 136 794 136 l 636 136 q 628 136 632 136 q 619 136 624 136 l 596 0 l 3 0 q 52 174 28 88 q 101 348 76 261 q 149 522 125 435 q 198 695 174 608 q 247 869 222 782 q 294 1042 271 956 l 1157 1042 m 636 235 q 636 233 636 233 q 638 233 636 233 l 790 233 q 792 234 792 233 q 792 235 792 235 q 792 235 792 235 q 786 269 792 235 q 772 355 781 303 q 753 466 763 407 q 735 578 743 525 q 720 664 726 631 q 714 697 714 697 q 713 697 714 697 q 713 697 713 697 q 707 664 713 697 q 692 578 701 631 q 674 466 683 525 q 656 355 664 407 q 642 269 647 303 q 636 235 636 235 z "},"Á":{"ha":1454,"x_min":3,"x_max":1451,"o":"m 1157 1042 q 1206 869 1182 956 q 1255 695 1231 782 q 1304 522 1279 608 q 1353 348 1329 435 q 1402 174 1378 261 q 1451 0 1426 88 l 832 0 l 808 136 q 799 136 803 136 q 789 136 794 136 l 636 136 q 628 136 632 136 q 619 136 624 136 l 596 0 l 3 0 q 52 174 28 88 q 101 348 76 261 q 149 522 125 435 q 198 695 174 608 q 247 869 222 782 q 294 1042 271 956 l 1157 1042 m 636 235 q 636 233 636 233 q 638 233 636 233 l 790 233 q 792 234 792 233 q 792 235 792 235 q 792 235 792 235 q 786 269 792 235 q 772 355 781 303 q 753 466 763 407 q 735 578 743 525 q 720 664 726 631 q 714 697 714 697 q 713 697 714 697 q 713 697 713 697 q 707 664 713 697 q 692 578 701 631 q 674 466 683 525 q 656 355 664 407 q 642 269 647 303 q 636 235 636 235 m 653 1426 l 558 1142 l 879 1142 l 1115 1426 l 653 1426 z "},"Ă":{"ha":1454,"x_min":3,"x_max":1451,"o":"m 1157 1042 q 1206 869 1182 956 q 1255 695 1231 782 q 1304 522 1279 608 q 1353 348 1329 435 q 1402 174 1378 261 q 1451 0 1426 88 l 832 0 l 808 136 q 799 136 803 136 q 789 136 794 136 l 636 136 q 628 136 632 136 q 619 136 624 136 l 596 0 l 3 0 q 52 174 28 88 q 101 348 76 261 q 149 522 125 435 q 198 695 174 608 q 247 869 222 782 q 294 1042 271 956 l 1157 1042 m 636 235 q 636 233 636 233 q 638 233 636 233 l 790 233 q 792 234 792 233 q 792 235 792 235 q 792 235 792 235 q 786 269 792 235 q 772 355 781 303 q 753 466 763 407 q 735 578 743 525 q 720 664 726 631 q 714 697 714 697 q 713 697 714 697 q 713 697 713 697 q 707 664 713 697 q 692 578 701 631 q 674 466 683 525 q 656 355 664 407 q 642 269 647 303 q 636 235 636 235 m 315 1379 l 626 1379 q 638 1340 626 1356 q 673 1318 650 1325 q 726 1311 696 1311 q 779 1318 757 1311 q 815 1340 801 1325 q 828 1379 828 1356 l 1139 1379 q 1035 1194 1139 1257 q 726 1131 932 1131 q 419 1193 522 1131 q 315 1379 315 1256 z "},"Ǎ":{"ha":1454,"x_min":3,"x_max":1451,"o":"m 1157 1042 q 1206 869 1182 956 q 1255 695 1231 782 q 1304 522 1279 608 q 1353 348 1329 435 q 1402 174 1378 261 q 1451 0 1426 88 l 832 0 l 808 136 q 799 136 803 136 q 789 136 794 136 l 636 136 q 628 136 632 136 q 619 136 624 136 l 596 0 l 3 0 q 52 174 28 88 q 101 348 76 261 q 149 522 125 435 q 198 695 174 608 q 247 869 222 782 q 294 1042 271 956 l 1157 1042 m 636 235 q 636 233 636 233 q 638 233 636 233 l 790 233 q 792 234 792 233 q 792 235 792 235 q 792 235 792 235 q 786 269 792 235 q 772 355 781 303 q 753 466 763 407 q 735 578 743 525 q 720 664 726 631 q 714 697 714 697 q 713 697 714 697 q 713 697 713 697 q 707 664 713 697 q 692 578 701 631 q 674 466 683 525 q 656 355 664 407 q 642 269 647 303 q 636 235 636 235 m 1128 1426 l 967 1142 l 475 1142 l 314 1426 l 653 1426 l 739 1265 l 718 1265 l 799 1426 l 1128 1426 z "},"Â":{"ha":1454,"x_min":3,"x_max":1451,"o":"m 1157 1042 q 1206 869 1182 956 q 1255 695 1231 782 q 1304 522 1279 608 q 1353 348 1329 435 q 1402 174 1378 261 q 1451 0 1426 88 l 832 0 l 808 136 q 799 136 803 136 q 789 136 794 136 l 636 136 q 628 136 632 136 q 619 136 624 136 l 596 0 l 3 0 q 52 174 28 88 q 101 348 76 261 q 149 522 125 435 q 198 695 174 608 q 247 869 222 782 q 294 1042 271 956 l 1157 1042 m 636 235 q 636 233 636 233 q 638 233 636 233 l 790 233 q 792 234 792 233 q 792 235 792 235 q 792 235 792 235 q 786 269 792 235 q 772 355 781 303 q 753 466 763 407 q 735 578 743 525 q 720 664 726 631 q 714 697 714 697 q 713 697 714 697 q 713 697 713 697 q 707 664 713 697 q 692 578 701 631 q 674 466 683 525 q 656 355 664 407 q 642 269 647 303 q 636 235 636 235 m 329 1142 l 490 1426 l 982 1426 l 1143 1142 l 804 1142 l 718 1303 l 739 1303 l 658 1142 l 329 1142 z "},"Ä":{"ha":1454,"x_min":3,"x_max":1451,"o":"m 1157 1042 q 1206 869 1182 956 q 1255 695 1231 782 q 1304 522 1279 608 q 1353 348 1329 435 q 1402 174 1378 261 q 1451 0 1426 88 l 832 0 l 808 136 q 799 136 803 136 q 789 136 794 136 l 636 136 q 628 136 632 136 q 619 136 624 136 l 596 0 l 3 0 q 52 174 28 88 q 101 348 76 261 q 149 522 125 435 q 198 695 174 608 q 247 869 222 782 q 294 1042 271 956 l 1157 1042 m 636 235 q 636 233 636 233 q 638 233 636 233 l 790 233 q 792 234 792 233 q 792 235 792 235 q 792 235 792 235 q 786 269 792 235 q 772 355 781 303 q 753 466 763 407 q 735 578 743 525 q 720 664 726 631 q 714 697 714 697 q 713 697 714 697 q 713 697 713 697 q 707 664 713 697 q 692 578 701 631 q 674 466 683 525 q 656 355 664 407 q 642 269 647 303 q 636 235 636 235 m 254 1142 q 253 1142 253 1142 q 253 1143 253 1142 l 253 1365 q 253 1367 253 1367 q 254 1367 253 1367 l 697 1367 q 699 1367 699 1367 q 699 1365 699 1367 l 699 1143 q 697 1142 699 1142 l 254 1142 m 756 1142 q 754 1142 754 1142 q 754 1143 754 1142 l 754 1365 q 756 1367 754 1367 l 1199 1367 q 1200 1367 1200 1367 q 1200 1365 1200 1367 l 1200 1143 q 1199 1142 1200 1142 l 756 1142 z "},"Ạ":{"ha":1454,"x_min":3,"x_max":1451,"o":"m 1157 1042 q 1206 869 1182 956 q 1255 695 1231 782 q 1304 522 1279 608 q 1353 348 1329 435 q 1402 174 1378 261 q 1451 0 1426 88 l 832 0 l 808 136 q 799 136 803 136 q 789 136 794 136 l 636 136 q 628 136 632 136 q 619 136 624 136 l 596 0 l 3 0 q 52 174 28 88 q 101 348 76 261 q 149 522 125 435 q 198 695 174 608 q 247 869 222 782 q 294 1042 271 956 l 1157 1042 m 636 235 q 636 233 636 233 q 638 233 636 233 l 790 233 q 792 234 792 233 q 792 235 792 235 q 792 235 792 235 q 786 269 792 235 q 772 355 781 303 q 753 466 763 407 q 735 578 743 525 q 720 664 726 631 q 714 697 714 697 q 713 697 714 697 q 713 697 713 697 q 707 664 713 697 q 692 578 701 631 q 674 466 683 525 q 656 355 664 407 q 642 269 647 303 q 636 235 636 235 m 492 -364 q 490 -363 490 -364 q 489 -361 489 -362 l 489 -82 q 492 -79 489 -79 l 967 -79 q 969 -80 968 -79 q 969 -82 969 -81 l 969 -361 q 967 -364 969 -364 l 492 -364 z "},"À":{"ha":1454,"x_min":3,"x_max":1451,"o":"m 1157 1042 q 1206 869 1182 956 q 1255 695 1231 782 q 1304 522 1279 608 q 1353 348 1329 435 q 1402 174 1378 261 q 1451 0 1426 88 l 832 0 l 808 136 q 799 136 803 136 q 789 136 794 136 l 636 136 q 628 136 632 136 q 619 136 624 136 l 596 0 l 3 0 q 52 174 28 88 q 101 348 76 261 q 149 522 125 435 q 198 695 174 608 q 247 869 222 782 q 294 1042 271 956 l 1157 1042 m 636 235 q 636 233 636 233 q 638 233 636 233 l 790 233 q 792 234 792 233 q 792 235 792 235 q 792 235 792 235 q 786 269 792 235 q 772 355 781 303 q 753 466 763 407 q 735 578 743 525 q 720 664 726 631 q 714 697 714 697 q 713 697 714 697 q 713 697 713 697 q 707 664 713 697 q 692 578 701 631 q 674 466 683 525 q 656 355 664 407 q 642 269 647 303 q 636 235 636 235 m 790 1426 l 328 1426 l 564 1142 l 885 1142 l 790 1426 z "},"Ā":{"ha":1454,"x_min":3,"x_max":1451,"o":"m 1157 1042 q 1206 869 1182 956 q 1255 695 1231 782 q 1304 522 1279 608 q 1353 348 1329 435 q 1402 174 1378 261 q 1451 0 1426 88 l 832 0 l 808 136 q 799 136 803 136 q 789 136 794 136 l 636 136 q 628 136 632 136 q 619 136 624 136 l 596 0 l 3 0 q 52 174 28 88 q 101 348 76 261 q 149 522 125 435 q 198 695 174 608 q 247 869 222 782 q 294 1042 271 956 l 1157 1042 m 636 235 q 636 233 636 233 q 638 233 636 233 l 790 233 q 792 234 792 233 q 792 235 792 235 q 792 235 792 235 q 786 269 792 235 q 772 355 781 303 q 753 466 763 407 q 735 578 743 525 q 720 664 726 631 q 714 697 714 697 q 713 697 714 697 q 713 697 713 697 q 707 664 713 697 q 692 578 701 631 q 674 466 683 525 q 656 355 664 407 q 642 269 647 303 q 636 235 636 235 m 376 1163 l 376 1381 l 1076 1381 l 1076 1163 l 376 1163 z "},"Ą":{"ha":1454,"x_min":3,"x_max":1451,"o":"m 1076 -428 q 822 -367 907 -428 q 738 -194 738 -306 q 740 -157 738 -175 q 748 -122 743 -139 q 761 -87 753 -104 q 780 -56 769 -71 q 803 -27 790 -42 q 832 0 817 -12 l 808 136 q 799 136 803 136 q 789 136 794 136 l 636 136 q 628 136 632 136 q 619 136 624 136 l 596 0 l 3 0 q 52 174 28 88 q 101 348 76 261 q 149 522 125 435 q 198 695 174 608 q 247 869 222 782 q 294 1042 271 956 l 1157 1042 q 1206 869 1182 956 q 1255 695 1231 782 q 1304 522 1279 608 q 1353 348 1329 435 q 1402 174 1378 261 q 1451 0 1426 88 l 1324 0 q 1192 -17 1238 0 q 1128 -56 1146 -33 q 1111 -97 1111 -78 q 1131 -133 1111 -119 q 1186 -146 1151 -146 q 1241 -141 1215 -146 q 1297 -124 1267 -136 l 1297 -396 q 1191 -419 1240 -411 q 1076 -428 1142 -428 m 638 233 l 790 233 q 792 234 792 233 q 792 235 792 235 q 792 235 792 235 q 786 269 792 235 q 772 355 781 303 q 753 466 763 407 q 735 578 743 525 q 720 664 726 631 q 714 697 714 697 q 714 697 714 697 q 714 697 714 697 q 713 697 714 697 q 713 697 713 697 q 713 697 713 697 q 707 664 713 697 q 692 578 701 631 q 674 466 683 525 q 656 355 664 407 q 642 269 647 303 q 636 235 636 235 q 636 233 636 233 q 638 233 636 233 z "},"Å":{"ha":1454,"x_min":3,"x_max":1451,"o":"m 1157 1042 q 1206 869 1182 956 q 1255 695 1231 782 q 1304 522 1279 608 q 1353 348 1329 435 q 1402 174 1378 261 q 1451 0 1426 88 l 832 0 l 808 136 q 799 136 803 136 q 789 136 794 136 l 636 136 q 628 136 632 136 q 619 136 624 136 l 596 0 l 3 0 q 52 174 28 88 q 101 348 76 261 q 149 522 125 435 q 198 695 174 608 q 247 869 222 782 q 294 1042 271 956 l 1157 1042 m 636 235 q 636 233 636 233 q 638 233 636 233 l 790 233 q 792 234 792 233 q 792 235 792 235 q 792 235 792 235 q 786 269 792 235 q 772 355 781 303 q 753 466 763 407 q 735 578 743 525 q 720 664 726 631 q 714 697 714 697 q 713 697 714 697 q 713 697 713 697 q 707 664 713 697 q 692 578 701 631 q 674 466 683 525 q 656 355 664 407 q 642 269 647 303 q 636 235 636 235 m 490 1296 q 521 1394 490 1356 q 605 1453 551 1433 q 726 1474 658 1474 q 822 1463 778 1474 q 897 1429 865 1451 q 947 1374 929 1407 q 964 1296 964 1340 q 933 1197 964 1238 q 849 1137 903 1157 q 726 1117 796 1117 q 632 1128 675 1117 q 557 1161 589 1139 q 508 1217 525 1183 q 490 1296 490 1251 m 790 1296 q 772 1333 790 1319 q 726 1346 753 1346 q 682 1333 700 1346 q 664 1296 664 1319 q 682 1258 664 1271 q 726 1244 700 1244 q 772 1258 753 1244 q 790 1296 790 1271 z "},"Ǻ":{"ha":1454,"x_min":3,"x_max":1451,"o":"m 1157 1042 q 1206 869 1182 956 q 1255 695 1231 782 q 1304 522 1279 608 q 1353 348 1329 435 q 1402 174 1378 261 q 1451 0 1426 88 l 832 0 l 808 136 q 799 136 803 136 q 789 136 794 136 l 636 136 q 628 136 632 136 q 619 136 624 136 l 596 0 l 3 0 q 52 174 28 88 q 101 348 76 261 q 149 522 125 435 q 198 695 174 608 q 247 869 222 782 q 294 1042 271 956 l 1157 1042 m 636 235 q 636 233 636 233 q 638 233 636 233 l 790 233 q 792 234 792 233 q 792 235 792 235 q 792 235 792 235 q 786 269 792 235 q 772 355 781 303 q 753 466 763 407 q 735 578 743 525 q 720 664 726 631 q 714 697 714 697 q 713 697 714 697 q 713 697 713 697 q 707 664 713 697 q 692 578 701 631 q 674 466 683 525 q 656 355 664 407 q 642 269 647 303 q 636 235 636 235 m 490 1296 q 521 1394 490 1356 q 605 1453 551 1433 q 726 1474 658 1474 q 822 1463 778 1474 q 897 1429 865 1451 q 947 1374 929 1407 q 964 1296 964 1340 q 933 1197 964 1238 q 849 1137 903 1157 q 726 1117 796 1117 q 632 1128 675 1117 q 557 1161 589 1139 q 508 1217 525 1183 q 490 1296 490 1251 m 790 1296 q 772 1333 790 1319 q 726 1346 753 1346 q 682 1333 700 1346 q 664 1296 664 1319 q 682 1258 664 1271 q 726 1244 700 1244 q 772 1258 753 1244 q 790 1296 790 1271 m 653 1794 l 558 1510 l 879 1510 l 1115 1794 l 653 1794 z "},"Ã":{"ha":1454,"x_min":3,"x_max":1451,"o":"m 1157 1042 q 1206 869 1182 956 q 1255 695 1231 782 q 1304 522 1279 608 q 1353 348 1329 435 q 1402 174 1378 261 q 1451 0 1426 88 l 832 0 l 808 136 q 799 136 803 136 q 789 136 794 136 l 636 136 q 628 136 632 136 q 619 136 624 136 l 596 0 l 3 0 q 52 174 28 88 q 101 348 76 261 q 149 522 125 435 q 198 695 174 608 q 247 869 222 782 q 294 1042 271 956 l 1157 1042 m 636 235 q 636 233 636 233 q 638 233 636 233 l 790 233 q 792 234 792 233 q 792 235 792 235 q 792 235 792 235 q 786 269 792 235 q 772 355 781 303 q 753 466 763 407 q 735 578 743 525 q 720 664 726 631 q 714 697 714 697 q 713 697 714 697 q 713 697 713 697 q 707 664 713 697 q 692 578 701 631 q 674 466 683 525 q 656 355 664 407 q 642 269 647 303 q 636 235 636 235 m 342 1133 l 572 1133 q 572 1184 561 1169 q 604 1199 583 1199 q 649 1188 624 1199 q 705 1163 674 1176 q 774 1138 736 1149 q 856 1126 813 1126 q 958 1142 907 1126 q 1048 1193 1008 1158 q 1106 1285 1088 1228 q 1111 1426 1125 1343 l 882 1426 q 881 1374 892 1389 q 846 1360 869 1360 q 803 1371 828 1360 q 748 1397 779 1382 q 680 1422 717 1411 q 599 1433 643 1433 q 457 1404 522 1433 q 358 1310 392 1375 q 342 1133 324 1244 z "},"Æ":{"ha":1982,"x_min":-3,"x_max":1965,"o":"m -3 0 q 64 174 31 88 q 131 348 97 261 q 197 522 164 435 q 264 695 231 608 q 331 869 297 782 q 397 1042 364 956 l 1957 1042 l 1957 692 l 1381 692 q 1379 692 1379 692 q 1379 690 1379 692 l 1379 614 q 1379 613 1379 614 q 1379 613 1379 613 q 1380 613 1379 613 q 1381 613 1381 613 l 1936 613 l 1936 417 l 1381 417 q 1380 417 1381 417 q 1379 417 1379 417 q 1379 415 1379 417 l 1379 338 q 1379 337 1379 338 q 1379 336 1379 336 q 1380 336 1379 336 q 1381 336 1381 336 l 1965 336 l 1965 0 l 817 0 q 817 63 817 26 q 817 127 817 99 q 817 156 817 156 l 658 156 q 650 127 658 156 q 631 63 642 99 q 613 0 621 26 l -3 0 m 689 253 l 815 253 q 816 253 815 253 q 817 253 817 253 q 817 253 817 253 q 817 254 817 254 q 817 401 817 328 q 817 549 817 475 q 817 697 817 624 l 815 697 q 790 608 803 653 q 764 519 776 564 q 739 431 751 475 q 713 342 726 386 q 688 254 700 299 q 688 253 688 253 q 689 253 688 253 z "},"Ǽ":{"ha":1982,"x_min":-3,"x_max":1965,"o":"m -3 0 q 64 174 31 88 q 131 348 97 261 q 197 522 164 435 q 264 695 231 608 q 331 869 297 782 q 397 1042 364 956 l 1957 1042 l 1957 692 l 1381 692 q 1379 692 1379 692 q 1379 690 1379 692 l 1379 614 q 1379 613 1379 614 q 1379 613 1379 613 q 1380 613 1379 613 q 1381 613 1381 613 l 1936 613 l 1936 417 l 1381 417 q 1380 417 1381 417 q 1379 417 1379 417 q 1379 415 1379 417 l 1379 338 q 1379 337 1379 338 q 1379 336 1379 336 q 1380 336 1379 336 q 1381 336 1381 336 l 1965 336 l 1965 0 l 817 0 q 817 63 817 26 q 817 127 817 99 q 817 156 817 156 l 658 156 q 650 127 658 156 q 631 63 642 99 q 613 0 621 26 l -3 0 m 689 253 l 815 253 q 816 253 815 253 q 817 253 817 253 q 817 253 817 253 q 817 254 817 254 q 817 401 817 328 q 817 549 817 475 q 817 697 817 624 l 815 697 q 790 608 803 653 q 764 519 776 564 q 739 431 751 475 q 713 342 726 386 q 688 254 700 299 q 688 253 688 253 q 689 253 688 253 m 976 1426 l 882 1142 l 1203 1142 l 1439 1426 l 976 1426 z "},"B":{"ha":1453,"x_min":28,"x_max":1440,"o":"m 28 1042 l 1121 1042 q 1275 1006 1214 1042 q 1367 915 1336 971 q 1399 799 1399 860 q 1367 680 1399 738 q 1270 586 1335 622 q 1108 550 1206 550 q 1108 550 1108 550 q 1108 549 1107 550 q 1108 549 1108 549 q 1294 508 1221 549 q 1404 406 1368 468 q 1440 274 1440 343 q 1420 174 1440 222 q 1360 85 1400 125 q 1260 23 1319 46 q 1121 0 1200 0 l 28 0 q 28 188 28 94 q 28 376 28 282 q 28 565 28 471 q 28 753 28 658 q 28 897 28 825 q 28 1042 28 969 m 575 494 q 575 464 575 479 q 575 433 575 449 q 575 412 575 422 q 575 392 575 401 q 575 372 575 382 q 575 371 575 371 q 576 371 575 371 l 774 371 q 830 390 811 371 q 849 435 849 410 q 844 458 849 447 q 833 477 840 468 q 813 491 825 486 q 786 496 801 496 l 576 496 q 576 495 576 496 q 575 494 575 494 m 576 690 q 575 690 575 690 q 575 689 575 689 q 575 670 575 681 q 575 649 575 660 q 575 628 575 639 q 575 597 575 613 q 575 567 575 581 q 575 565 575 565 q 576 565 575 565 l 767 565 q 808 574 792 565 q 833 598 825 583 q 842 629 842 613 q 826 672 842 653 q 779 690 810 690 l 576 690 z "},"Ɓ":{"ha":2007,"x_min":1,"x_max":1994,"o":"m 526 1042 l 1675 1042 q 1829 1006 1768 1042 q 1922 915 1890 971 q 1953 799 1953 860 q 1921 680 1953 738 q 1824 586 1889 622 q 1663 550 1760 550 q 1662 550 1663 550 q 1662 549 1661 550 q 1663 549 1663 549 q 1849 508 1775 549 q 1958 406 1922 468 q 1994 274 1994 343 q 1974 174 1994 222 q 1914 85 1954 125 q 1814 23 1874 46 q 1675 0 1754 0 l 582 0 q 582 168 582 94 q 582 308 582 242 q 582 444 582 374 q 582 604 582 515 q 582 665 582 640 q 582 690 582 690 q 457 658 485 690 q 451 542 429 625 l 25 539 q 49 834 1 724 q 216 993 97 944 q 526 1042 335 1042 m 1129 494 q 1129 464 1129 479 q 1129 433 1129 449 q 1129 412 1129 422 q 1129 392 1129 401 q 1129 372 1129 382 q 1129 371 1129 371 q 1131 371 1129 371 l 1328 371 q 1384 390 1365 371 q 1403 435 1403 410 q 1399 458 1403 447 q 1387 477 1394 468 q 1367 491 1379 486 q 1340 496 1356 496 l 1131 496 q 1130 495 1131 496 q 1129 494 1129 494 m 1131 690 q 1129 690 1129 690 q 1129 689 1129 689 q 1129 670 1129 681 q 1129 649 1129 660 q 1129 628 1129 639 q 1129 597 1129 613 q 1129 567 1129 581 q 1129 565 1129 565 q 1131 565 1129 565 l 1321 565 q 1363 574 1346 565 q 1388 598 1379 583 q 1396 629 1396 613 q 1380 672 1396 653 q 1333 690 1364 690 l 1131 690 z "},"C":{"ha":1558,"x_min":14,"x_max":1542,"o":"m 778 -42 q 575 -28 668 -42 q 403 13 482 -14 q 263 76 325 39 q 154 161 201 114 q 76 265 107 208 q 29 385 44 321 q 14 519 14 449 q 51 726 14 635 q 158 885 89 818 q 322 996 226 951 q 532 1062 417 1040 q 778 1083 647 1083 q 1169 1028 1008 1083 q 1424 868 1331 972 q 1542 615 1518 764 l 951 519 q 938 574 951 551 q 900 611 924 597 q 845 632 876 625 q 778 639 814 639 q 689 626 728 639 q 627 587 650 613 q 604 522 604 561 q 613 479 604 499 q 636 445 621 460 q 673 422 651 431 q 721 408 694 413 q 778 403 747 403 q 901 433 851 403 q 951 519 951 463 l 1542 460 q 1474 267 1526 357 q 1330 107 1422 176 q 1101 -2 1238 38 q 778 -42 964 -42 z "},"Ć":{"ha":1558,"x_min":14,"x_max":1542,"o":"m 778 -42 q 575 -28 668 -42 q 403 13 482 -14 q 263 76 325 39 q 154 161 201 114 q 76 265 107 208 q 29 385 44 321 q 14 519 14 449 q 51 726 14 635 q 158 885 89 818 q 322 996 226 951 q 532 1062 417 1040 q 778 1083 647 1083 q 1169 1028 1008 1083 q 1424 868 1331 972 q 1542 615 1518 764 l 951 519 q 938 574 951 551 q 900 611 924 597 q 845 632 876 625 q 778 639 814 639 q 689 626 728 639 q 627 587 650 613 q 604 522 604 561 q 613 479 604 499 q 636 445 621 460 q 673 422 651 431 q 721 408 694 413 q 778 403 747 403 q 901 433 851 403 q 951 519 951 463 l 1542 460 q 1474 267 1526 357 q 1330 107 1422 176 q 1101 -2 1238 38 q 778 -42 964 -42 m 707 1426 l 613 1142 l 933 1142 l 1169 1426 l 707 1426 z "},"Č":{"ha":1558,"x_min":14,"x_max":1542,"o":"m 778 -42 q 575 -28 668 -42 q 403 13 482 -14 q 263 76 325 39 q 154 161 201 114 q 76 265 107 208 q 29 385 44 321 q 14 519 14 449 q 51 726 14 635 q 158 885 89 818 q 322 996 226 951 q 532 1062 417 1040 q 778 1083 647 1083 q 1169 1028 1008 1083 q 1424 868 1331 972 q 1542 615 1518 764 l 951 519 q 938 574 951 551 q 900 611 924 597 q 845 632 876 625 q 778 639 814 639 q 689 626 728 639 q 627 587 650 613 q 604 522 604 561 q 613 479 604 499 q 636 445 621 460 q 673 422 651 431 q 721 408 694 413 q 778 403 747 403 q 901 433 851 403 q 951 519 951 463 l 1542 460 q 1474 267 1526 357 q 1330 107 1422 176 q 1101 -2 1238 38 q 778 -42 964 -42 m 1182 1426 l 1021 1142 l 529 1142 l 368 1426 l 707 1426 l 793 1265 l 772 1265 l 853 1426 l 1182 1426 z "},"Ç":{"ha":1558,"x_min":14,"x_max":1542,"o":"m 778 -42 q 575 -28 668 -42 q 403 13 482 -14 q 263 76 325 39 q 154 161 201 114 q 76 265 107 208 q 29 385 44 321 q 14 519 14 449 q 51 726 14 635 q 158 885 89 818 q 322 996 226 951 q 532 1062 417 1040 q 778 1083 647 1083 q 1169 1028 1008 1083 q 1424 868 1331 972 q 1542 615 1518 764 l 951 519 q 938 574 951 551 q 900 611 924 597 q 845 632 876 625 q 778 639 814 639 q 689 626 728 639 q 627 587 650 613 q 604 522 604 561 q 613 479 604 499 q 636 445 621 460 q 673 422 651 431 q 721 408 694 413 q 778 403 747 403 q 901 433 851 403 q 951 519 951 463 l 1542 460 q 1474 267 1526 357 q 1330 107 1422 176 q 1101 -2 1238 38 q 778 -42 964 -42 m 729 22 l 885 22 q 881 -6 883 8 q 877 -35 879 -21 q 872 -65 875 -50 q 982 -81 936 -64 q 1053 -130 1028 -99 q 1078 -203 1078 -161 q 1044 -295 1078 -251 q 947 -365 1010 -339 q 796 -392 885 -392 q 676 -379 728 -392 q 589 -350 625 -367 l 647 -181 q 738 -214 700 -210 q 798 -206 776 -218 q 819 -176 819 -194 q 794 -145 819 -158 q 708 -142 769 -132 q 719 -60 714 -101 q 729 22 724 -18 z "},"Ĉ":{"ha":1558,"x_min":14,"x_max":1542,"o":"m 778 -42 q 575 -28 668 -42 q 403 13 482 -14 q 263 76 325 39 q 154 161 201 114 q 76 265 107 208 q 29 385 44 321 q 14 519 14 449 q 51 726 14 635 q 158 885 89 818 q 322 996 226 951 q 532 1062 417 1040 q 778 1083 647 1083 q 1169 1028 1008 1083 q 1424 868 1331 972 q 1542 615 1518 764 l 951 519 q 938 574 951 551 q 900 611 924 597 q 845 632 876 625 q 778 639 814 639 q 689 626 728 639 q 627 587 650 613 q 604 522 604 561 q 613 479 604 499 q 636 445 621 460 q 673 422 651 431 q 721 408 694 413 q 778 403 747 403 q 901 433 851 403 q 951 519 951 463 l 1542 460 q 1474 267 1526 357 q 1330 107 1422 176 q 1101 -2 1238 38 q 778 -42 964 -42 m 383 1142 l 544 1426 l 1036 1426 l 1197 1142 l 858 1142 l 772 1303 l 793 1303 l 713 1142 l 383 1142 z "},"Ċ":{"ha":1558,"x_min":14,"x_max":1542,"o":"m 778 -42 q 575 -28 668 -42 q 403 13 482 -14 q 263 76 325 39 q 154 161 201 114 q 76 265 107 208 q 29 385 44 321 q 14 519 14 449 q 51 726 14 635 q 158 885 89 818 q 322 996 226 951 q 532 1062 417 1040 q 778 1083 647 1083 q 1169 1028 1008 1083 q 1424 868 1331 972 q 1542 615 1518 764 l 951 519 q 938 574 951 551 q 900 611 924 597 q 845 632 876 625 q 778 639 814 639 q 689 626 728 639 q 627 587 650 613 q 604 522 604 561 q 613 479 604 499 q 636 445 621 460 q 673 422 651 431 q 721 408 694 413 q 778 403 747 403 q 901 433 851 403 q 951 519 951 463 l 1542 460 q 1474 267 1526 357 q 1330 107 1422 176 q 1101 -2 1238 38 q 778 -42 964 -42 m 543 1142 q 541 1142 542 1142 q 540 1144 540 1143 l 540 1424 q 543 1426 540 1426 l 1018 1426 q 1020 1426 1019 1426 q 1021 1424 1021 1425 l 1021 1144 q 1018 1142 1021 1142 l 543 1142 z "},"D":{"ha":1482,"x_min":28,"x_max":1468,"o":"m 856 1042 q 1087 1013 986 1042 q 1260 935 1188 985 q 1378 819 1332 885 q 1446 678 1424 753 q 1468 525 1468 603 q 1433 333 1468 426 q 1323 164 1397 239 q 1133 44 1249 89 q 856 0 1017 0 l 28 0 q 28 177 28 89 q 28 353 28 265 q 28 530 28 442 q 28 707 28 618 q 28 874 28 790 q 28 1042 28 958 l 856 1042 m 744 642 l 579 642 q 578 642 579 642 q 578 642 578 642 q 578 641 578 642 q 578 639 578 640 l 578 403 q 578 401 578 401 q 578 400 578 400 q 578 400 578 400 q 579 400 579 400 l 747 400 q 802 410 778 400 q 843 436 826 419 q 869 475 860 453 q 878 521 878 497 q 862 582 878 554 q 817 626 846 610 q 744 642 788 642 z "},"Ð":{"ha":1538,"x_min":8,"x_max":1524,"o":"m 8 579 l 819 579 l 819 463 l 8 463 l 8 579 m 911 1042 q 1142 1013 1042 1042 q 1315 935 1243 985 q 1433 819 1388 885 q 1501 678 1479 753 q 1524 525 1524 603 q 1488 333 1524 426 q 1378 164 1453 239 q 1188 44 1304 89 q 911 0 1072 0 l 83 0 q 83 177 83 89 q 83 353 83 265 q 83 530 83 442 q 83 707 83 618 q 83 874 83 790 q 83 1042 83 958 l 911 1042 m 800 642 l 635 642 q 634 642 635 642 q 633 642 633 642 q 633 641 633 642 q 633 639 633 640 l 633 403 q 633 401 633 401 q 633 400 633 400 q 634 400 633 400 q 635 400 635 400 l 803 400 q 858 410 833 400 q 899 436 882 419 q 924 475 915 453 q 933 521 933 497 q 917 582 933 554 q 872 626 901 610 q 800 642 843 642 z "},"Ď":{"ha":1482,"x_min":28,"x_max":1468,"o":"m 856 1042 q 1087 1013 986 1042 q 1260 935 1188 985 q 1378 819 1332 885 q 1446 678 1424 753 q 1468 525 1468 603 q 1433 333 1468 426 q 1323 164 1397 239 q 1133 44 1249 89 q 856 0 1017 0 l 28 0 q 28 177 28 89 q 28 353 28 265 q 28 530 28 442 q 28 707 28 618 q 28 874 28 790 q 28 1042 28 958 l 856 1042 m 744 642 l 579 642 q 578 642 579 642 q 578 642 578 642 q 578 641 578 642 q 578 639 578 640 l 578 403 q 578 401 578 401 q 578 400 578 400 q 578 400 578 400 q 579 400 579 400 l 747 400 q 802 410 778 400 q 843 436 826 419 q 869 475 860 453 q 878 521 878 497 q 862 582 878 554 q 817 626 846 610 q 744 642 788 642 m 1129 1426 l 968 1142 l 476 1142 l 315 1426 l 654 1426 l 740 1265 l 719 1265 l 800 1426 l 1129 1426 z "},"Ḓ":{"ha":1482,"x_min":28,"x_max":1468,"o":"m 856 1042 q 1087 1013 986 1042 q 1260 935 1188 985 q 1378 819 1332 885 q 1446 678 1424 753 q 1468 525 1468 603 q 1433 333 1468 426 q 1323 164 1397 239 q 1133 44 1249 89 q 856 0 1017 0 l 28 0 q 28 177 28 89 q 28 353 28 265 q 28 530 28 442 q 28 707 28 618 q 28 874 28 790 q 28 1042 28 958 l 856 1042 m 744 642 l 579 642 q 578 642 579 642 q 578 642 578 642 q 578 641 578 642 q 578 639 578 640 l 578 403 q 578 401 578 401 q 578 400 578 400 q 578 400 578 400 q 579 400 579 400 l 747 400 q 802 410 778 400 q 843 436 826 419 q 869 475 860 453 q 878 521 878 497 q 862 582 878 554 q 817 626 846 610 q 744 642 788 642 m 321 -364 l 482 -79 l 974 -79 l 1135 -364 l 796 -364 l 710 -203 l 731 -203 l 650 -364 l 321 -364 z "},"Đ":{"ha":1538,"x_min":8,"x_max":1524,"o":"m 8 579 l 819 579 l 819 463 l 8 463 l 8 579 m 911 1042 q 1142 1013 1042 1042 q 1315 935 1243 985 q 1433 819 1388 885 q 1501 678 1479 753 q 1524 525 1524 603 q 1488 333 1524 426 q 1378 164 1453 239 q 1188 44 1304 89 q 911 0 1072 0 l 83 0 q 83 177 83 89 q 83 353 83 265 q 83 530 83 442 q 83 707 83 618 q 83 874 83 790 q 83 1042 83 958 l 911 1042 m 800 642 l 635 642 q 634 642 635 642 q 633 642 633 642 q 633 641 633 642 q 633 639 633 640 l 633 403 q 633 401 633 401 q 633 400 633 400 q 634 400 633 400 q 635 400 635 400 l 803 400 q 858 410 833 400 q 899 436 882 419 q 924 475 915 453 q 933 521 933 497 q 917 582 933 554 q 872 626 901 610 q 800 642 843 642 z "},"Ɗ":{"ha":2036,"x_min":1,"x_max":2022,"o":"m 582 0 q 582 148 582 76 q 582 288 582 219 q 582 419 582 356 q 582 540 582 482 q 582 581 582 557 q 582 624 582 606 q 582 642 582 642 q 461 610 489 642 q 451 506 433 579 l 25 506 q 47 820 1 703 q 215 990 92 938 q 546 1042 338 1042 l 1410 1042 q 1641 1013 1540 1042 q 1814 935 1742 985 q 1932 819 1886 885 q 2000 678 1978 753 q 2022 525 2022 603 q 1987 333 2022 426 q 1877 164 1951 239 q 1687 44 1803 89 q 1410 0 1571 0 l 582 0 m 1133 400 l 1301 400 q 1356 410 1332 400 q 1397 436 1381 419 q 1423 475 1414 453 q 1432 521 1432 497 q 1416 582 1432 554 q 1371 626 1400 610 q 1299 642 1342 642 l 1133 642 q 1133 642 1133 642 q 1132 642 1132 642 q 1132 641 1132 642 q 1132 639 1132 640 l 1132 403 q 1132 401 1132 401 q 1132 400 1132 400 q 1133 400 1132 400 q 1133 400 1133 400 z "},"E":{"ha":1229,"x_min":28,"x_max":1204,"o":"m 1196 692 l 592 692 q 590 692 590 692 q 590 692 590 692 l 590 615 q 590 613 590 614 q 590 613 590 613 q 591 613 590 613 q 592 613 592 613 l 1175 613 l 1175 417 l 592 417 q 591 417 592 417 q 590 416 590 417 q 590 414 590 415 l 590 336 q 590 336 590 336 q 590 336 590 336 q 591 336 590 336 q 592 336 592 336 l 1204 336 l 1204 0 l 28 0 q 28 165 28 82 q 28 329 28 247 q 28 494 28 411 q 28 659 28 576 q 28 824 28 742 q 28 933 28 878 q 28 1042 28 988 l 1196 1042 l 1196 692 z "},"É":{"ha":1229,"x_min":28,"x_max":1204,"o":"m 1196 692 l 592 692 q 590 692 590 692 q 590 692 590 692 l 590 615 q 590 613 590 614 q 590 613 590 613 q 591 613 590 613 q 592 613 592 613 l 1175 613 l 1175 417 l 592 417 q 591 417 592 417 q 590 416 590 417 q 590 414 590 415 l 590 336 q 590 336 590 336 q 590 336 590 336 q 591 336 590 336 q 592 336 592 336 l 1204 336 l 1204 0 l 28 0 q 28 165 28 82 q 28 329 28 247 q 28 494 28 411 q 28 659 28 576 q 28 824 28 742 q 28 933 28 878 q 28 1042 28 988 l 1196 1042 l 1196 692 m 538 1426 l 443 1142 l 764 1142 l 1000 1426 l 538 1426 z "},"Ĕ":{"ha":1229,"x_min":28,"x_max":1204,"o":"m 1196 692 l 592 692 q 590 692 590 692 q 590 692 590 692 l 590 615 q 590 613 590 614 q 590 613 590 613 q 591 613 590 613 q 592 613 592 613 l 1175 613 l 1175 417 l 592 417 q 591 417 592 417 q 590 416 590 417 q 590 414 590 415 l 590 336 q 590 336 590 336 q 590 336 590 336 q 591 336 590 336 q 592 336 592 336 l 1204 336 l 1204 0 l 28 0 q 28 165 28 82 q 28 329 28 247 q 28 494 28 411 q 28 659 28 576 q 28 824 28 742 q 28 933 28 878 q 28 1042 28 988 l 1196 1042 l 1196 692 m 200 1379 l 511 1379 q 523 1340 511 1356 q 558 1318 535 1325 q 611 1311 581 1311 q 664 1318 642 1311 q 699 1340 686 1325 q 713 1379 713 1356 l 1024 1379 q 920 1194 1024 1257 q 611 1131 817 1131 q 303 1193 407 1131 q 200 1379 200 1256 z "},"Ě":{"ha":1229,"x_min":28,"x_max":1204,"o":"m 1196 692 l 592 692 q 590 692 590 692 q 590 692 590 692 l 590 615 q 590 613 590 614 q 590 613 590 613 q 591 613 590 613 q 592 613 592 613 l 1175 613 l 1175 417 l 592 417 q 591 417 592 417 q 590 416 590 417 q 590 414 590 415 l 590 336 q 590 336 590 336 q 590 336 590 336 q 591 336 590 336 q 592 336 592 336 l 1204 336 l 1204 0 l 28 0 q 28 165 28 82 q 28 329 28 247 q 28 494 28 411 q 28 659 28 576 q 28 824 28 742 q 28 933 28 878 q 28 1042 28 988 l 1196 1042 l 1196 692 m 1013 1426 l 851 1142 l 360 1142 l 199 1426 l 538 1426 l 624 1265 l 603 1265 l 683 1426 l 1013 1426 z "},"Ê":{"ha":1229,"x_min":28,"x_max":1204,"o":"m 1196 692 l 592 692 q 590 692 590 692 q 590 692 590 692 l 590 615 q 590 613 590 614 q 590 613 590 613 q 591 613 590 613 q 592 613 592 613 l 1175 613 l 1175 417 l 592 417 q 591 417 592 417 q 590 416 590 417 q 590 414 590 415 l 590 336 q 590 336 590 336 q 590 336 590 336 q 591 336 590 336 q 592 336 592 336 l 1204 336 l 1204 0 l 28 0 q 28 165 28 82 q 28 329 28 247 q 28 494 28 411 q 28 659 28 576 q 28 824 28 742 q 28 933 28 878 q 28 1042 28 988 l 1196 1042 l 1196 692 m 214 1142 l 375 1426 l 867 1426 l 1028 1142 l 689 1142 l 603 1303 l 624 1303 l 543 1142 l 214 1142 z "},"Ë":{"ha":1229,"x_min":28,"x_max":1204,"o":"m 1196 692 l 592 692 q 590 692 590 692 q 590 692 590 692 l 590 615 q 590 613 590 614 q 590 613 590 613 q 591 613 590 613 q 592 613 592 613 l 1175 613 l 1175 417 l 592 417 q 591 417 592 417 q 590 416 590 417 q 590 414 590 415 l 590 336 q 590 336 590 336 q 590 336 590 336 q 591 336 590 336 q 592 336 592 336 l 1204 336 l 1204 0 l 28 0 q 28 165 28 82 q 28 329 28 247 q 28 494 28 411 q 28 659 28 576 q 28 824 28 742 q 28 933 28 878 q 28 1042 28 988 l 1196 1042 l 1196 692 m 139 1142 q 138 1142 138 1142 q 138 1143 138 1142 l 138 1365 q 138 1367 138 1367 q 139 1367 138 1367 l 582 1367 q 583 1367 583 1367 q 583 1365 583 1367 l 583 1143 q 582 1142 583 1142 l 139 1142 m 640 1142 q 639 1142 639 1142 q 639 1143 639 1142 l 639 1365 q 640 1367 639 1367 l 1083 1367 q 1085 1367 1085 1367 q 1085 1365 1085 1367 l 1085 1143 q 1083 1142 1085 1142 l 640 1142 z "},"Ė":{"ha":1229,"x_min":28,"x_max":1204,"o":"m 1196 692 l 592 692 q 590 692 590 692 q 590 692 590 692 l 590 615 q 590 613 590 614 q 590 613 590 613 q 591 613 590 613 q 592 613 592 613 l 1175 613 l 1175 417 l 592 417 q 591 417 592 417 q 590 416 590 417 q 590 414 590 415 l 590 336 q 590 336 590 336 q 590 336 590 336 q 591 336 590 336 q 592 336 592 336 l 1204 336 l 1204 0 l 28 0 q 28 165 28 82 q 28 329 28 247 q 28 494 28 411 q 28 659 28 576 q 28 824 28 742 q 28 933 28 878 q 28 1042 28 988 l 1196 1042 l 1196 692 m 374 1142 q 372 1142 372 1142 q 371 1144 371 1143 l 371 1424 q 374 1426 371 1426 l 849 1426 q 851 1426 850 1426 q 851 1424 851 1425 l 851 1144 q 849 1142 851 1142 l 374 1142 z "},"Ẹ":{"ha":1229,"x_min":28,"x_max":1204,"o":"m 1196 692 l 592 692 q 590 692 590 692 q 590 692 590 692 l 590 615 q 590 613 590 614 q 590 613 590 613 q 591 613 590 613 q 592 613 592 613 l 1175 613 l 1175 417 l 592 417 q 591 417 592 417 q 590 416 590 417 q 590 414 590 415 l 590 336 q 590 336 590 336 q 590 336 590 336 q 591 336 590 336 q 592 336 592 336 l 1204 336 l 1204 0 l 28 0 q 28 165 28 82 q 28 329 28 247 q 28 494 28 411 q 28 659 28 576 q 28 824 28 742 q 28 933 28 878 q 28 1042 28 988 l 1196 1042 l 1196 692 m 374 -364 q 372 -363 372 -364 q 371 -361 371 -362 l 371 -82 q 374 -79 371 -79 l 849 -79 q 851 -80 850 -79 q 851 -82 851 -81 l 851 -361 q 849 -364 851 -364 l 374 -364 z "},"È":{"ha":1229,"x_min":28,"x_max":1204,"o":"m 1196 692 l 592 692 q 590 692 590 692 q 590 692 590 692 l 590 615 q 590 613 590 614 q 590 613 590 613 q 591 613 590 613 q 592 613 592 613 l 1175 613 l 1175 417 l 592 417 q 591 417 592 417 q 590 416 590 417 q 590 414 590 415 l 590 336 q 590 336 590 336 q 590 336 590 336 q 591 336 590 336 q 592 336 592 336 l 1204 336 l 1204 0 l 28 0 q 28 165 28 82 q 28 329 28 247 q 28 494 28 411 q 28 659 28 576 q 28 824 28 742 q 28 933 28 878 q 28 1042 28 988 l 1196 1042 l 1196 692 m 675 1426 l 213 1426 l 449 1142 l 769 1142 l 675 1426 z "},"Ē":{"ha":1229,"x_min":28,"x_max":1204,"o":"m 1196 692 l 592 692 q 590 692 590 692 q 590 692 590 692 l 590 615 q 590 613 590 614 q 590 613 590 613 q 591 613 590 613 q 592 613 592 613 l 1175 613 l 1175 417 l 592 417 q 591 417 592 417 q 590 416 590 417 q 590 414 590 415 l 590 336 q 590 336 590 336 q 590 336 590 336 q 591 336 590 336 q 592 336 592 336 l 1204 336 l 1204 0 l 28 0 q 28 165 28 82 q 28 329 28 247 q 28 494 28 411 q 28 659 28 576 q 28 824 28 742 q 28 933 28 878 q 28 1042 28 988 l 1196 1042 l 1196 692 m 261 1163 l 261 1381 l 961 1381 l 961 1163 l 261 1163 z "},"Ę":{"ha":1229,"x_min":28,"x_max":1204,"o":"m 976 -428 q 722 -367 807 -428 q 638 -194 638 -306 q 640 -162 638 -178 q 645 -132 642 -147 q 655 -102 649 -117 q 669 -74 661 -87 q 686 -48 676 -61 q 707 -23 696 -35 q 732 0 718 -11 l 28 0 q 28 165 28 82 q 28 329 28 247 q 28 494 28 411 q 28 659 28 576 q 28 824 28 742 q 28 932 28 878 q 28 1042 28 986 l 1196 1042 l 1196 692 l 592 692 q 590 692 590 692 q 590 692 590 692 l 590 615 q 590 613 590 614 q 590 613 590 613 q 591 613 590 613 q 592 613 592 613 l 1175 613 l 1175 417 l 592 417 q 591 417 592 417 q 590 416 590 417 q 590 414 590 415 l 590 336 q 590 336 590 336 q 590 336 590 336 q 591 336 590 336 q 592 336 592 336 l 1204 336 l 1204 0 q 1085 -19 1128 -3 q 1027 -57 1043 -36 q 1011 -97 1011 -78 q 1031 -133 1011 -119 q 1086 -146 1051 -146 q 1140 -141 1115 -146 q 1196 -124 1165 -136 l 1196 -396 q 1090 -419 1139 -411 q 976 -428 1042 -428 z "},"Ẽ":{"ha":1229,"x_min":28,"x_max":1204,"o":"m 1196 692 l 592 692 q 590 692 590 692 q 590 692 590 692 l 590 615 q 590 613 590 614 q 590 613 590 613 q 591 613 590 613 q 592 613 592 613 l 1175 613 l 1175 417 l 592 417 q 591 417 592 417 q 590 416 590 417 q 590 414 590 415 l 590 336 q 590 336 590 336 q 590 336 590 336 q 591 336 590 336 q 592 336 592 336 l 1204 336 l 1204 0 l 28 0 q 28 165 28 82 q 28 329 28 247 q 28 494 28 411 q 28 659 28 576 q 28 824 28 742 q 28 933 28 878 q 28 1042 28 988 l 1196 1042 l 1196 692 m 226 1133 l 457 1133 q 457 1184 446 1169 q 489 1199 468 1199 q 533 1188 508 1199 q 590 1163 558 1176 q 659 1138 621 1149 q 740 1126 697 1126 q 842 1142 792 1126 q 933 1193 893 1158 q 991 1285 972 1228 q 996 1426 1010 1343 l 767 1426 q 765 1374 776 1389 q 731 1360 754 1360 q 688 1371 713 1360 q 633 1397 664 1382 q 565 1422 601 1411 q 483 1433 528 1433 q 342 1404 407 1433 q 242 1310 276 1375 q 226 1133 208 1244 z "},"Ə":{"ha":1508,"x_min":7,"x_max":1494,"o":"m 722 643 q 626 633 668 643 q 560 603 583 624 q 533 550 536 583 l 22 713 q 109 858 44 790 q 269 976 174 925 q 482 1055 365 1026 q 725 1083 599 1083 q 1026 1049 886 1083 q 1270 944 1165 1014 q 1435 768 1375 874 q 1494 521 1494 663 q 1435 275 1494 381 q 1269 99 1375 169 q 1024 -6 1164 29 q 725 -42 885 -42 q 492 -19 601 -42 q 294 51 383 4 q 141 168 206 97 q 42 334 76 239 q 7 550 7 429 l 915 550 q 917 550 917 550 q 917 551 917 550 q 917 551 917 551 q 892 602 917 582 q 823 633 867 622 q 722 643 779 643 m 725 388 q 819 398 775 388 q 889 428 863 408 q 915 478 915 449 q 915 480 915 479 q 915 481 915 481 q 915 481 915 481 q 913 481 914 481 l 539 481 q 538 480 538 481 q 538 478 538 479 q 547 446 538 460 q 575 421 557 432 q 617 402 593 410 q 668 391 640 394 q 725 388 696 388 z "},"F":{"ha":1218,"x_min":28,"x_max":1196,"o":"m 1196 633 l 606 633 q 606 633 606 633 q 606 633 606 633 q 606 633 606 633 q 606 632 606 632 l 606 551 q 606 550 606 550 q 606 550 606 550 l 1175 550 l 1175 219 l 606 219 q 606 219 606 219 q 606 218 606 219 q 606 140 606 171 q 606 78 606 108 q 606 0 606 47 l 28 0 q 28 197 28 99 q 28 394 28 296 q 28 590 28 492 q 28 788 28 689 q 28 915 28 851 q 28 1042 28 978 l 1196 1042 l 1196 633 z "},"G":{"ha":1568,"x_min":14,"x_max":1543,"o":"m 779 1083 q 1188 1022 1026 1083 q 1435 856 1349 961 q 1543 619 1521 751 l 943 478 q 944 569 958 531 q 889 631 931 608 q 778 653 847 653 q 674 635 713 653 q 620 590 636 617 q 604 532 604 563 q 614 490 604 510 q 644 453 624 469 q 699 426 665 436 q 778 417 732 417 q 888 433 849 417 q 943 478 926 449 q 899 313 921 396 q 853 145 876 229 q 808 -21 831 61 q 735 -31 771 -28 q 651 -35 700 -35 q 458 -15 546 -35 q 299 40 369 4 q 174 125 228 75 q 85 237 121 175 q 32 370 50 299 q 14 519 14 442 q 27 644 14 583 q 69 760 40 704 q 142 866 97 817 q 247 955 186 915 q 386 1024 307 994 q 563 1068 465 1053 q 779 1083 661 1083 m 943 0 q 943 160 943 81 q 943 319 943 239 q 943 478 943 399 q 1140 478 1042 478 q 1336 478 1238 478 q 1532 478 1435 478 l 1532 0 l 943 0 z "},"Ğ":{"ha":1568,"x_min":14,"x_max":1543,"o":"m 779 1083 q 1188 1022 1026 1083 q 1435 856 1349 961 q 1543 619 1521 751 l 943 478 q 944 569 958 531 q 889 631 931 608 q 778 653 847 653 q 674 635 713 653 q 620 590 636 617 q 604 532 604 563 q 614 490 604 510 q 644 453 624 469 q 699 426 665 436 q 778 417 732 417 q 888 433 849 417 q 943 478 926 449 q 899 313 921 396 q 853 145 876 229 q 808 -21 831 61 q 735 -31 771 -28 q 651 -35 700 -35 q 458 -15 546 -35 q 299 40 369 4 q 174 125 228 75 q 85 237 121 175 q 32 370 50 299 q 14 519 14 442 q 27 644 14 583 q 69 760 40 704 q 142 866 97 817 q 247 955 186 915 q 386 1024 307 994 q 563 1068 465 1053 q 779 1083 661 1083 m 943 0 q 943 160 943 81 q 943 319 943 239 q 943 478 943 399 q 1140 478 1042 478 q 1336 478 1238 478 q 1532 478 1435 478 l 1532 0 l 943 0 m 375 1379 l 686 1379 q 698 1340 686 1356 q 733 1318 710 1325 q 786 1311 756 1311 q 839 1318 817 1311 q 874 1340 861 1325 q 888 1379 888 1356 l 1199 1379 q 1095 1194 1199 1257 q 786 1131 992 1131 q 478 1193 582 1131 q 375 1379 375 1256 z "},"Ǧ":{"ha":1568,"x_min":14,"x_max":1543,"o":"m 779 1083 q 1188 1022 1026 1083 q 1435 856 1349 961 q 1543 619 1521 751 l 943 478 q 944 569 958 531 q 889 631 931 608 q 778 653 847 653 q 674 635 713 653 q 620 590 636 617 q 604 532 604 563 q 614 490 604 510 q 644 453 624 469 q 699 426 665 436 q 778 417 732 417 q 888 433 849 417 q 943 478 926 449 q 899 313 921 396 q 853 145 876 229 q 808 -21 831 61 q 735 -31 771 -28 q 651 -35 700 -35 q 458 -15 546 -35 q 299 40 369 4 q 174 125 228 75 q 85 237 121 175 q 32 370 50 299 q 14 519 14 442 q 27 644 14 583 q 69 760 40 704 q 142 866 97 817 q 247 955 186 915 q 386 1024 307 994 q 563 1068 465 1053 q 779 1083 661 1083 m 943 0 q 943 160 943 81 q 943 319 943 239 q 943 478 943 399 q 1140 478 1042 478 q 1336 478 1238 478 q 1532 478 1435 478 l 1532 0 l 943 0 m 1188 1426 l 1026 1142 l 535 1142 l 374 1426 l 713 1426 l 799 1265 l 778 1265 l 858 1426 l 1188 1426 z "},"Ĝ":{"ha":1568,"x_min":14,"x_max":1543,"o":"m 779 1083 q 1188 1022 1026 1083 q 1435 856 1349 961 q 1543 619 1521 751 l 943 478 q 944 569 958 531 q 889 631 931 608 q 778 653 847 653 q 674 635 713 653 q 620 590 636 617 q 604 532 604 563 q 614 490 604 510 q 644 453 624 469 q 699 426 665 436 q 778 417 732 417 q 888 433 849 417 q 943 478 926 449 q 899 313 921 396 q 853 145 876 229 q 808 -21 831 61 q 735 -31 771 -28 q 651 -35 700 -35 q 458 -15 546 -35 q 299 40 369 4 q 174 125 228 75 q 85 237 121 175 q 32 370 50 299 q 14 519 14 442 q 27 644 14 583 q 69 760 40 704 q 142 866 97 817 q 247 955 186 915 q 386 1024 307 994 q 563 1068 465 1053 q 779 1083 661 1083 m 943 0 q 943 160 943 81 q 943 319 943 239 q 943 478 943 399 q 1140 478 1042 478 q 1336 478 1238 478 q 1532 478 1435 478 l 1532 0 l 943 0 m 389 1142 l 550 1426 l 1042 1426 l 1203 1142 l 864 1142 l 778 1303 l 799 1303 l 718 1142 l 389 1142 z "},"Ģ":{"ha":1568,"x_min":14,"x_max":1543,"o":"m 779 1083 q 1188 1022 1026 1083 q 1435 856 1349 961 q 1543 619 1521 751 l 943 478 q 944 569 958 531 q 889 631 931 608 q 778 653 847 653 q 674 635 713 653 q 620 590 636 617 q 604 532 604 563 q 614 490 604 510 q 644 453 624 469 q 699 426 665 436 q 778 417 732 417 q 888 433 849 417 q 943 478 926 449 q 899 313 921 396 q 853 145 876 229 q 808 -21 831 61 q 735 -31 771 -28 q 651 -35 700 -35 q 458 -15 546 -35 q 299 40 369 4 q 174 125 228 75 q 85 237 121 175 q 32 370 50 299 q 14 519 14 442 q 27 644 14 583 q 69 760 40 704 q 142 866 97 817 q 247 955 186 915 q 386 1024 307 994 q 563 1068 465 1053 q 779 1083 661 1083 m 943 0 q 943 160 943 81 q 943 319 943 239 q 943 478 943 399 q 1140 478 1042 478 q 1336 478 1238 478 q 1532 478 1435 478 l 1532 0 l 943 0 m 561 -351 l 597 -79 l 978 -79 l 871 -351 l 561 -351 z "},"Ġ":{"ha":1568,"x_min":14,"x_max":1543,"o":"m 779 1083 q 1188 1022 1026 1083 q 1435 856 1349 961 q 1543 619 1521 751 l 943 478 q 944 569 958 531 q 889 631 931 608 q 778 653 847 653 q 674 635 713 653 q 620 590 636 617 q 604 532 604 563 q 614 490 604 510 q 644 453 624 469 q 699 426 665 436 q 778 417 732 417 q 888 433 849 417 q 943 478 926 449 q 899 313 921 396 q 853 145 876 229 q 808 -21 831 61 q 735 -31 771 -28 q 651 -35 700 -35 q 458 -15 546 -35 q 299 40 369 4 q 174 125 228 75 q 85 237 121 175 q 32 370 50 299 q 14 519 14 442 q 27 644 14 583 q 69 760 40 704 q 142 866 97 817 q 247 955 186 915 q 386 1024 307 994 q 563 1068 465 1053 q 779 1083 661 1083 m 943 0 q 943 160 943 81 q 943 319 943 239 q 943 478 943 399 q 1140 478 1042 478 q 1336 478 1238 478 q 1532 478 1435 478 l 1532 0 l 943 0 m 549 1142 q 547 1142 547 1142 q 546 1144 546 1143 l 546 1424 q 549 1426 546 1426 l 1024 1426 q 1026 1426 1025 1426 q 1026 1424 1026 1425 l 1026 1144 q 1024 1142 1026 1142 l 549 1142 z "},"H":{"ha":1403,"x_min":28,"x_max":1375,"o":"m 799 1042 l 1375 1042 q 1375 867 1375 954 q 1375 692 1375 779 q 1375 515 1375 604 q 1375 258 1375 388 q 1375 0 1375 129 l 799 0 q 799 169 799 85 q 799 339 799 254 q 798 341 799 340 q 796 342 797 342 l 606 342 q 604 341 604 342 q 604 339 604 340 q 604 169 604 254 q 604 0 604 85 l 28 0 q 28 167 28 83 q 28 333 28 250 q 28 500 28 417 q 28 667 28 583 q 28 833 28 750 q 28 938 28 886 q 28 1042 28 990 l 604 1042 q 604 907 604 975 q 604 772 604 839 q 604 636 604 704 q 604 634 604 635 q 606 633 604 633 l 796 633 q 798 634 797 633 q 799 636 799 635 q 799 839 799 738 q 799 1042 799 940 z "},"Ħ":{"ha":1514,"x_min":8,"x_max":1506,"o":"m 8 776 l 8 899 l 1506 899 l 1506 776 l 8 776 m 854 1042 l 1431 1042 q 1431 867 1431 954 q 1431 692 1431 779 q 1431 515 1431 604 q 1431 258 1431 388 q 1431 0 1431 129 l 854 0 q 854 169 854 85 q 854 339 854 254 q 853 341 854 340 q 851 342 853 342 l 661 342 q 660 341 660 342 q 660 339 660 340 q 660 169 660 254 q 660 0 660 85 l 83 0 q 83 167 83 83 q 83 333 83 250 q 83 500 83 417 q 83 667 83 583 q 83 833 83 750 q 83 938 83 886 q 83 1042 83 990 l 660 1042 q 660 907 660 975 q 660 772 660 839 q 660 636 660 704 q 660 634 660 635 q 661 633 660 633 l 851 633 q 853 634 853 633 q 854 636 854 635 q 854 839 854 738 q 854 1042 854 940 z "},"Ĥ":{"ha":1403,"x_min":28,"x_max":1375,"o":"m 799 1042 l 1375 1042 q 1375 867 1375 954 q 1375 692 1375 779 q 1375 515 1375 604 q 1375 258 1375 388 q 1375 0 1375 129 l 799 0 q 799 169 799 85 q 799 339 799 254 q 798 341 799 340 q 796 342 797 342 l 606 342 q 604 341 604 342 q 604 339 604 340 q 604 169 604 254 q 604 0 604 85 l 28 0 q 28 167 28 83 q 28 333 28 250 q 28 500 28 417 q 28 667 28 583 q 28 833 28 750 q 28 938 28 886 q 28 1042 28 990 l 604 1042 q 604 907 604 975 q 604 772 604 839 q 604 636 604 704 q 604 634 604 635 q 606 633 604 633 l 796 633 q 798 634 797 633 q 799 636 799 635 q 799 839 799 738 q 799 1042 799 940 m 304 1142 l 465 1426 l 957 1426 l 1118 1142 l 779 1142 l 693 1303 l 714 1303 l 633 1142 l 304 1142 z "},"I":{"ha":632,"x_min":28,"x_max":604,"o":"m 28 0 q 28 200 28 100 q 28 400 28 300 q 28 600 28 500 q 28 800 28 700 q 28 922 28 861 q 28 1042 28 982 l 604 1042 q 604 773 604 907 q 604 504 604 639 q 604 337 604 421 q 604 169 604 253 q 604 0 604 85 l 28 0 z "},"Ĳ":{"ha":1313,"x_min":28,"x_max":1286,"o":"m 28 504 q 119 453 63 474 q 248 421 176 432 q 399 410 319 410 q 570 424 501 410 q 674 470 639 439 q 710 550 710 501 q 710 636 710 582 q 710 754 710 690 q 710 878 710 818 q 710 983 710 939 q 710 1042 710 1028 l 1286 1042 q 1286 938 1286 999 q 1286 807 1286 876 q 1286 669 1286 738 q 1286 588 1286 628 q 1286 513 1286 547 q 1286 451 1286 478 q 1286 407 1286 424 q 1231 221 1286 303 q 1075 82 1175 139 q 839 -6 975 25 q 542 -36 703 -36 q 351 -25 447 -36 q 169 8 254 -14 q 28 57 85 29 l 28 504 m 28 508 q 28 591 28 549 q 28 675 28 633 q 28 756 28 717 q 28 831 28 796 q 28 939 28 886 q 28 1042 28 992 l 604 1042 q 604 906 604 971 q 604 764 604 842 q 604 638 604 707 q 604 508 604 568 l 28 508 z "},"Í":{"ha":632,"x_min":28,"x_max":706,"o":"m 28 0 q 28 200 28 100 q 28 400 28 300 q 28 600 28 500 q 28 800 28 700 q 28 922 28 861 q 28 1042 28 982 l 604 1042 q 604 773 604 907 q 604 504 604 639 q 604 337 604 421 q 604 169 604 253 q 604 0 604 85 l 28 0 m 243 1426 l 149 1142 l 469 1142 l 706 1426 l 243 1426 z "},"Ĭ":{"ha":632,"x_min":-94,"x_max":729,"o":"m 28 0 q 28 200 28 100 q 28 400 28 300 q 28 600 28 500 q 28 800 28 700 q 28 922 28 861 q 28 1042 28 982 l 604 1042 q 604 773 604 907 q 604 504 604 639 q 604 337 604 421 q 604 169 604 253 q 604 0 604 85 l 28 0 m -94 1379 l 217 1379 q 228 1340 217 1356 q 263 1318 240 1325 q 317 1311 286 1311 q 369 1318 347 1311 q 405 1340 392 1325 q 418 1379 418 1356 l 729 1379 q 626 1194 729 1257 q 317 1131 522 1131 q 9 1193 113 1131 q -94 1379 -94 1256 z "},"Î":{"ha":632,"x_min":-81,"x_max":733,"o":"m 28 0 q 28 200 28 100 q 28 400 28 300 q 28 600 28 500 q 28 800 28 700 q 28 922 28 861 q 28 1042 28 982 l 604 1042 q 604 773 604 907 q 604 504 604 639 q 604 337 604 421 q 604 169 604 253 q 604 0 604 85 l 28 0 m -81 1142 l 81 1426 l 572 1426 l 733 1142 l 394 1142 l 308 1303 l 329 1303 l 249 1142 l -81 1142 z "},"Ï":{"ha":632,"x_min":-157,"x_max":790,"o":"m 28 0 q 28 200 28 100 q 28 400 28 300 q 28 600 28 500 q 28 800 28 700 q 28 922 28 861 q 28 1042 28 982 l 604 1042 q 604 773 604 907 q 604 504 604 639 q 604 337 604 421 q 604 169 604 253 q 604 0 604 85 l 28 0 m -156 1142 q -157 1142 -157 1142 q -157 1143 -157 1142 l -157 1365 q -157 1367 -157 1367 q -156 1367 -157 1367 l 288 1367 q 289 1367 289 1367 q 289 1365 289 1367 l 289 1143 q 288 1142 289 1142 l -156 1142 m 346 1142 q 344 1142 344 1142 q 344 1143 344 1142 l 344 1365 q 346 1367 344 1367 l 789 1367 q 790 1367 790 1367 q 790 1365 790 1367 l 790 1143 q 789 1142 790 1142 l 346 1142 z "},"İ":{"ha":632,"x_min":28,"x_max":604,"o":"m 28 0 q 28 200 28 100 q 28 400 28 300 q 28 600 28 500 q 28 800 28 700 q 28 922 28 861 q 28 1042 28 982 l 604 1042 q 604 773 604 907 q 604 504 604 639 q 604 337 604 421 q 604 169 604 253 q 604 0 604 85 l 28 0 m 79 1142 q 77 1142 78 1142 q 76 1144 76 1143 l 76 1424 q 79 1426 76 1426 l 554 1426 q 556 1426 556 1426 q 557 1424 557 1425 l 557 1144 q 554 1142 557 1142 l 79 1142 z "},"Ị":{"ha":632,"x_min":28,"x_max":604,"o":"m 28 0 q 28 200 28 100 q 28 400 28 300 q 28 600 28 500 q 28 800 28 700 q 28 922 28 861 q 28 1042 28 982 l 604 1042 q 604 773 604 907 q 604 504 604 639 q 604 337 604 421 q 604 169 604 253 q 604 0 604 85 l 28 0 m 79 -364 q 77 -363 78 -364 q 76 -361 76 -362 l 76 -82 q 79 -79 76 -79 l 554 -79 q 556 -80 556 -79 q 557 -82 557 -81 l 557 -361 q 554 -364 557 -364 l 79 -364 z "},"Ì":{"ha":632,"x_min":-82,"x_max":604,"o":"m 28 0 q 28 200 28 100 q 28 400 28 300 q 28 600 28 500 q 28 800 28 700 q 28 922 28 861 q 28 1042 28 982 l 604 1042 q 604 773 604 907 q 604 504 604 639 q 604 337 604 421 q 604 169 604 253 q 604 0 604 85 l 28 0 m 381 1426 l -82 1426 l 154 1142 l 475 1142 l 381 1426 z "},"Ī":{"ha":632,"x_min":-33,"x_max":667,"o":"m 28 0 q 28 200 28 100 q 28 400 28 300 q 28 600 28 500 q 28 800 28 700 q 28 922 28 861 q 28 1042 28 982 l 604 1042 q 604 773 604 907 q 604 504 604 639 q 604 337 604 421 q 604 169 604 253 q 604 0 604 85 l 28 0 m -33 1163 l -33 1381 l 667 1381 l 667 1163 l -33 1163 z "},"Į":{"ha":632,"x_min":-11,"x_max":604,"o":"m 331 -428 q 74 -365 160 -428 q -11 -175 -11 -301 q -10 -151 -11 -162 q -8 -126 -10 -139 q -5 -101 -7 -114 q 1 -76 -3 -89 q 8 -51 4 -64 q 17 -26 13 -39 q 28 0 22 -12 q 28 200 28 100 q 28 400 28 300 q 28 600 28 500 q 28 800 28 700 q 28 921 28 860 q 28 1042 28 982 l 604 1042 q 604 773 604 907 q 604 504 604 639 q 604 337 604 421 q 604 169 604 253 q 604 0 604 85 q 446 -19 500 -3 q 373 -56 392 -35 q 354 -97 354 -78 q 377 -134 354 -122 q 440 -146 400 -146 q 492 -141 468 -146 q 542 -124 515 -136 l 542 -396 q 440 -419 488 -411 q 331 -428 392 -428 z "},"Ĩ":{"ha":632,"x_min":-86,"x_max":715,"o":"m 28 0 q 28 200 28 100 q 28 400 28 300 q 28 600 28 500 q 28 800 28 700 q 28 922 28 861 q 28 1042 28 982 l 604 1042 q 604 773 604 907 q 604 504 604 639 q 604 337 604 421 q 604 169 604 253 q 604 0 604 85 l 28 0 m -68 1133 l 163 1133 q 163 1184 151 1169 q 194 1199 174 1199 q 239 1188 214 1199 q 295 1163 264 1176 q 365 1138 326 1149 q 446 1126 403 1126 q 548 1142 497 1126 q 638 1193 599 1158 q 697 1285 678 1228 q 701 1426 715 1343 l 472 1426 q 471 1374 482 1389 q 436 1360 460 1360 q 394 1371 418 1360 q 338 1397 369 1382 q 270 1422 307 1411 q 189 1433 233 1433 q 47 1404 113 1433 q -52 1310 -18 1375 q -68 1133 -86 1244 z "},"J":{"ha":851,"x_min":19,"x_max":824,"o":"m 19 482 q 60 462 39 471 q 103 449 81 453 q 144 444 125 444 q 217 465 188 444 q 247 531 247 486 q 247 579 247 542 q 247 671 247 617 q 247 785 247 725 q 247 899 247 844 q 247 992 247 953 q 247 1042 247 1031 l 824 1042 q 824 900 824 988 q 824 721 824 813 q 824 633 824 676 q 824 552 824 590 q 824 483 824 514 q 824 431 824 451 q 824 404 824 411 q 783 201 824 283 q 675 68 743 118 q 522 -4 607 18 q 349 -26 438 -26 q 171 -10 254 -26 q 19 47 88 7 l 19 482 z "},"Ĵ":{"ha":851,"x_min":19,"x_max":956,"o":"m 19 482 q 60 462 39 471 q 103 449 81 453 q 144 444 125 444 q 217 465 188 444 q 247 531 247 486 q 247 579 247 542 q 247 671 247 617 q 247 785 247 725 q 247 899 247 844 q 247 992 247 953 q 247 1042 247 1031 l 824 1042 q 824 900 824 988 q 824 721 824 813 q 824 633 824 676 q 824 552 824 590 q 824 483 824 514 q 824 431 824 451 q 824 404 824 411 q 783 201 824 283 q 675 68 743 118 q 522 -4 607 18 q 349 -26 438 -26 q 171 -10 254 -26 q 19 47 88 7 l 19 482 m 142 1142 l 303 1426 l 794 1426 l 956 1142 l 617 1142 l 531 1303 l 551 1303 l 471 1142 l 142 1142 z "},"K":{"ha":1457,"x_min":28,"x_max":1458,"o":"m 806 0 l 604 521 q 658 651 632 586 q 712 781 685 717 q 766 911 739 846 q 819 1042 793 976 l 1444 1042 q 1389 929 1421 993 q 1324 800 1357 865 q 1264 679 1292 735 q 1219 590 1236 624 q 1201 556 1201 556 q 1219 516 1201 556 q 1267 413 1238 476 q 1331 274 1296 349 q 1399 128 1365 200 q 1458 0 1432 56 l 806 0 m 28 0 q 28 203 28 101 q 28 407 28 306 q 28 610 28 508 q 28 814 28 713 q 28 928 28 871 q 28 1042 28 985 l 604 1042 q 604 914 604 978 q 604 786 604 850 q 604 658 604 722 q 604 531 604 594 q 604 526 604 529 q 604 521 604 524 q 604 518 604 519 q 604 515 604 517 q 604 511 604 513 q 604 256 604 383 q 604 0 604 128 l 28 0 z "},"Ķ":{"ha":1457,"x_min":28,"x_max":1458,"o":"m 806 0 l 604 521 q 658 651 632 586 q 712 781 685 717 q 766 911 739 846 q 819 1042 793 976 l 1444 1042 q 1389 929 1421 993 q 1324 800 1357 865 q 1264 679 1292 735 q 1219 590 1236 624 q 1201 556 1201 556 q 1219 516 1201 556 q 1267 413 1238 476 q 1331 274 1296 349 q 1399 128 1365 200 q 1458 0 1432 56 l 806 0 m 28 0 q 28 203 28 101 q 28 407 28 306 q 28 610 28 508 q 28 814 28 713 q 28 928 28 871 q 28 1042 28 985 l 604 1042 q 604 914 604 978 q 604 786 604 850 q 604 658 604 722 q 604 531 604 594 q 604 526 604 529 q 604 521 604 524 q 604 518 604 519 q 604 515 604 517 q 604 511 604 513 q 604 256 604 383 q 604 0 604 128 l 28 0 m 490 -351 l 526 -79 l 907 -79 l 800 -351 l 490 -351 z "},"Ƙ":{"ha":1457,"x_min":28,"x_max":1458,"o":"m 806 0 l 604 521 q 678 701 642 613 q 743 857 714 789 q 842 991 779 943 q 985 1059 904 1039 q 1157 1079 1067 1079 q 1269 1074 1213 1079 q 1372 1061 1325 1069 q 1447 1043 1419 1053 l 1446 704 q 1413 719 1440 713 q 1357 726 1385 726 q 1315 720 1333 726 q 1281 700 1296 714 q 1256 664 1267 686 q 1231 613 1244 642 q 1201 556 1217 585 q 1219 516 1201 556 q 1267 413 1238 476 q 1331 274 1296 349 q 1399 128 1365 200 q 1458 0 1432 56 l 806 0 m 28 0 q 28 203 28 101 q 28 407 28 306 q 28 610 28 508 q 28 814 28 713 q 28 928 28 871 q 28 1042 28 985 l 604 1042 q 604 914 604 978 q 604 786 604 850 q 604 658 604 722 q 604 531 604 594 q 604 526 604 529 q 604 521 604 524 q 604 518 604 519 q 604 515 604 517 q 604 511 604 513 q 604 256 604 383 q 604 0 604 128 l 28 0 z "},"L":{"ha":1167,"x_min":28,"x_max":1149,"o":"m 604 411 q 605 409 604 410 q 607 408 606 408 l 1149 408 l 1149 0 l 28 0 q 28 172 28 86 q 28 345 28 258 q 28 518 28 432 q 28 690 28 604 q 28 866 28 778 q 28 1042 28 954 l 604 1042 q 604 884 604 963 q 604 726 604 806 q 604 569 604 647 q 604 411 604 490 z "},"Ĺ":{"ha":1167,"x_min":28,"x_max":1149,"o":"m 604 411 q 605 409 604 410 q 607 408 606 408 l 1149 408 l 1149 0 l 28 0 q 28 172 28 86 q 28 345 28 258 q 28 518 28 432 q 28 690 28 604 q 28 866 28 778 q 28 1042 28 954 l 604 1042 q 604 884 604 963 q 604 726 604 806 q 604 569 604 647 q 604 411 604 490 m 179 1426 l 85 1142 l 406 1142 l 642 1426 l 179 1426 z "},"Ľ":{"ha":1167,"x_min":28,"x_max":1149,"o":"m 604 411 q 605 409 604 410 q 607 408 606 408 l 1149 408 l 1149 0 l 28 0 q 28 172 28 86 q 28 345 28 258 q 28 518 28 432 q 28 690 28 604 q 28 866 28 778 q 28 1042 28 954 l 604 1042 q 604 884 604 963 q 604 726 604 806 q 604 569 604 647 q 604 411 604 490 m 990 674 l 722 674 l 760 1042 l 1099 1042 l 990 674 z "},"Ḽ":{"ha":1167,"x_min":28,"x_max":1149,"o":"m 604 411 q 605 409 604 410 q 607 408 606 408 l 1149 408 l 1149 0 l 28 0 q 28 172 28 86 q 28 345 28 258 q 28 518 28 432 q 28 690 28 604 q 28 866 28 778 q 28 1042 28 954 l 604 1042 q 604 884 604 963 q 604 726 604 806 q 604 569 604 647 q 604 411 604 490 m 176 -364 l 338 -79 l 829 -79 l 990 -364 l 651 -364 l 565 -203 l 586 -203 l 506 -364 l 176 -364 z "},"Ļ":{"ha":1167,"x_min":28,"x_max":1149,"o":"m 604 411 q 605 409 604 410 q 607 408 606 408 l 1149 408 l 1149 0 l 28 0 q 28 172 28 86 q 28 345 28 258 q 28 518 28 432 q 28 690 28 604 q 28 866 28 778 q 28 1042 28 954 l 604 1042 q 604 884 604 963 q 604 726 604 806 q 604 569 604 647 q 604 411 604 490 m 358 -351 l 394 -79 l 775 -79 l 668 -351 l 358 -351 z "},"Ŀ":{"ha":1165,"x_min":28,"x_max":1149,"o":"m 718 492 l 718 803 l 1094 803 l 1094 492 l 718 492 m 604 411 q 605 409 604 410 q 607 408 606 408 l 1149 408 l 1149 0 l 28 0 q 28 172 28 86 q 28 345 28 258 q 28 518 28 432 q 28 690 28 604 q 28 866 28 778 q 28 1042 28 954 l 604 1042 q 604 884 604 963 q 604 726 604 806 q 604 569 604 647 q 604 411 604 490 z "},"Ł":{"ha":1243,"x_min":11,"x_max":1226,"o":"m 11 300 l 11 435 l 896 799 l 896 664 l 11 300 m 682 411 q 683 409 682 410 q 685 408 683 408 l 1226 408 l 1226 0 l 106 0 q 106 172 106 86 q 106 345 106 258 q 106 518 106 432 q 106 690 106 604 q 106 866 106 778 q 106 1042 106 954 l 682 1042 q 682 884 682 963 q 682 726 682 806 q 682 569 682 647 q 682 411 682 490 z "},"M":{"ha":1729,"x_min":28,"x_max":1701,"o":"m 1701 1042 q 1701 833 1701 938 q 1701 625 1701 729 q 1701 417 1701 521 q 1701 208 1701 313 q 1701 0 1701 104 l 1167 0 q 1167 289 1167 144 q 1167 578 1167 433 q 1167 578 1167 578 q 1166 579 1167 579 q 1165 579 1165 579 q 1164 578 1164 579 q 1164 578 1164 578 l 1028 0 l 674 0 q 606 288 639 144 q 538 574 572 431 q 538 574 538 574 q 537 575 538 575 q 536 575 536 575 q 535 575 536 575 q 535 574 535 575 q 535 574 535 574 q 535 288 535 431 q 535 0 535 144 l 28 0 q 28 209 28 104 q 28 419 28 314 q 28 628 28 524 q 28 838 28 733 q 28 940 28 889 q 28 1042 28 990 l 768 1042 q 808 870 789 956 q 848 699 828 785 q 888 526 868 613 q 888 524 888 525 q 890 524 889 524 q 890 526 890 525 l 1001 1042 l 1701 1042 z "},"N":{"ha":1411,"x_min":28,"x_max":1383,"o":"m 849 1042 l 1383 1042 q 1383 938 1383 990 q 1383 834 1383 886 q 1383 730 1383 782 q 1383 626 1383 678 q 1383 521 1383 574 q 1383 260 1383 390 q 1383 0 1383 131 l 740 0 l 565 500 q 565 501 565 500 q 565 501 565 501 q 563 501 564 501 q 563 501 563 501 q 563 500 563 500 q 563 250 563 378 q 563 0 563 122 l 28 0 q 28 208 28 104 q 28 417 28 313 q 28 625 28 521 q 28 833 28 729 q 28 1042 28 938 l 650 1042 l 846 465 q 846 465 846 465 q 847 465 846 465 q 848 465 847 465 q 849 466 849 465 q 849 467 849 467 l 849 1042 z "},"Ń":{"ha":1411,"x_min":28,"x_max":1383,"o":"m 849 1042 l 1383 1042 q 1383 938 1383 990 q 1383 834 1383 886 q 1383 730 1383 782 q 1383 626 1383 678 q 1383 521 1383 574 q 1383 260 1383 390 q 1383 0 1383 131 l 740 0 l 565 500 q 565 501 565 500 q 565 501 565 501 q 563 501 564 501 q 563 501 563 501 q 563 500 563 500 q 563 250 563 378 q 563 0 563 122 l 28 0 q 28 208 28 104 q 28 417 28 313 q 28 625 28 521 q 28 833 28 729 q 28 1042 28 938 l 650 1042 l 846 465 q 846 465 846 465 q 847 465 846 465 q 848 465 847 465 q 849 466 849 465 q 849 467 849 467 l 849 1042 m 619 1426 l 525 1142 l 846 1142 l 1082 1426 l 619 1426 z "},"Ň":{"ha":1411,"x_min":28,"x_max":1383,"o":"m 849 1042 l 1383 1042 q 1383 938 1383 990 q 1383 834 1383 886 q 1383 730 1383 782 q 1383 626 1383 678 q 1383 521 1383 574 q 1383 260 1383 390 q 1383 0 1383 131 l 740 0 l 565 500 q 565 501 565 500 q 565 501 565 501 q 563 501 564 501 q 563 501 563 501 q 563 500 563 500 q 563 250 563 378 q 563 0 563 122 l 28 0 q 28 208 28 104 q 28 417 28 313 q 28 625 28 521 q 28 833 28 729 q 28 1042 28 938 l 650 1042 l 846 465 q 846 465 846 465 q 847 465 846 465 q 848 465 847 465 q 849 466 849 465 q 849 467 849 467 l 849 1042 m 1094 1426 l 933 1142 l 442 1142 l 281 1426 l 619 1426 l 706 1265 l 685 1265 l 765 1426 l 1094 1426 z "},"Ṋ":{"ha":1411,"x_min":28,"x_max":1383,"o":"m 849 1042 l 1383 1042 q 1383 938 1383 990 q 1383 834 1383 886 q 1383 730 1383 782 q 1383 626 1383 678 q 1383 521 1383 574 q 1383 260 1383 390 q 1383 0 1383 131 l 740 0 l 565 500 q 565 501 565 500 q 565 501 565 501 q 563 501 564 501 q 563 501 563 501 q 563 500 563 500 q 563 250 563 378 q 563 0 563 122 l 28 0 q 28 208 28 104 q 28 417 28 313 q 28 625 28 521 q 28 833 28 729 q 28 1042 28 938 l 650 1042 l 846 465 q 846 465 846 465 q 847 465 846 465 q 848 465 847 465 q 849 466 849 465 q 849 467 849 467 l 849 1042 m 286 -364 l 447 -79 l 939 -79 l 1100 -364 l 761 -364 l 675 -203 l 696 -203 l 615 -364 l 286 -364 z "},"Ņ":{"ha":1411,"x_min":28,"x_max":1383,"o":"m 849 1042 l 1383 1042 q 1383 938 1383 990 q 1383 834 1383 886 q 1383 730 1383 782 q 1383 626 1383 678 q 1383 521 1383 574 q 1383 260 1383 390 q 1383 0 1383 131 l 740 0 l 565 500 q 565 501 565 500 q 565 501 565 501 q 563 501 564 501 q 563 501 563 501 q 563 500 563 500 q 563 250 563 378 q 563 0 563 122 l 28 0 q 28 208 28 104 q 28 417 28 313 q 28 625 28 521 q 28 833 28 729 q 28 1042 28 938 l 650 1042 l 846 465 q 846 465 846 465 q 847 465 846 465 q 848 465 847 465 q 849 466 849 465 q 849 467 849 467 l 849 1042 m 468 -351 l 504 -79 l 885 -79 l 778 -351 l 468 -351 z "},"Ṅ":{"ha":1411,"x_min":28,"x_max":1383,"o":"m 849 1042 l 1383 1042 q 1383 938 1383 990 q 1383 834 1383 886 q 1383 730 1383 782 q 1383 626 1383 678 q 1383 521 1383 574 q 1383 260 1383 390 q 1383 0 1383 131 l 740 0 l 565 500 q 565 501 565 500 q 565 501 565 501 q 563 501 564 501 q 563 501 563 501 q 563 500 563 500 q 563 250 563 378 q 563 0 563 122 l 28 0 q 28 208 28 104 q 28 417 28 313 q 28 625 28 521 q 28 833 28 729 q 28 1042 28 938 l 650 1042 l 846 465 q 846 465 846 465 q 847 465 846 465 q 848 465 847 465 q 849 466 849 465 q 849 467 849 467 l 849 1042 m 456 1142 q 453 1142 454 1142 q 453 1144 453 1143 l 453 1424 q 456 1426 453 1426 l 931 1426 q 933 1426 932 1426 q 933 1424 933 1425 l 933 1144 q 931 1142 933 1142 l 456 1142 z "},"Ɲ":{"ha":1515,"x_min":14,"x_max":1494,"o":"m 14 -206 l 14 164 q 85 156 56 153 q 131 177 115 158 q 146 231 146 196 q 146 436 146 343 q 146 619 146 529 q 146 810 146 708 q 146 1042 146 911 l 761 1042 l 957 465 q 957 465 957 465 q 958 465 957 465 q 959 465 958 465 q 960 466 960 465 q 960 467 960 467 l 960 1042 l 1494 1042 q 1494 938 1494 990 q 1494 834 1494 886 q 1494 729 1494 782 q 1494 624 1494 676 q 1494 521 1494 572 q 1494 261 1494 390 q 1494 0 1494 132 l 851 0 l 676 500 q 676 501 676 500 q 676 501 676 501 q 674 501 675 501 q 674 501 674 501 q 674 500 674 500 q 674 350 674 419 q 674 222 674 281 q 674 111 674 164 q 502 -162 674 -76 q 14 -206 331 -247 z "},"Ñ":{"ha":1411,"x_min":28,"x_max":1383,"o":"m 849 1042 l 1383 1042 q 1383 938 1383 990 q 1383 834 1383 886 q 1383 730 1383 782 q 1383 626 1383 678 q 1383 521 1383 574 q 1383 260 1383 390 q 1383 0 1383 131 l 740 0 l 565 500 q 565 501 565 500 q 565 501 565 501 q 563 501 564 501 q 563 501 563 501 q 563 500 563 500 q 563 250 563 378 q 563 0 563 122 l 28 0 q 28 208 28 104 q 28 417 28 313 q 28 625 28 521 q 28 833 28 729 q 28 1042 28 938 l 650 1042 l 846 465 q 846 465 846 465 q 847 465 846 465 q 848 465 847 465 q 849 466 849 465 q 849 467 849 467 l 849 1042 m 308 1133 l 539 1133 q 539 1184 528 1169 q 571 1199 550 1199 q 615 1188 590 1199 q 672 1163 640 1176 q 741 1138 703 1149 q 822 1126 779 1126 q 924 1142 874 1126 q 1015 1193 975 1158 q 1073 1285 1054 1228 q 1078 1426 1092 1343 l 849 1426 q 847 1374 858 1389 q 813 1360 836 1360 q 770 1371 794 1360 q 715 1397 746 1382 q 647 1422 683 1411 q 565 1433 610 1433 q 424 1404 489 1433 q 324 1310 358 1375 q 308 1133 290 1244 z "},"Ŋ":{"ha":1397,"x_min":28,"x_max":1369,"o":"m 643 -206 l 643 164 q 724 156 690 153 q 775 185 757 160 q 793 261 793 210 l 793 522 q 767 592 793 571 q 705 617 740 614 q 640 612 669 619 q 604 593 611 604 l 738 1025 q 1014 1078 876 1078 q 1189 1048 1108 1078 q 1319 952 1269 1018 q 1369 778 1369 886 l 1369 135 q 1183 -163 1369 -75 q 643 -206 996 -251 m 28 0 q 28 167 28 83 q 28 333 28 250 q 28 501 28 417 q 28 668 28 585 q 28 856 28 763 q 28 1042 28 949 q 172 1042 100 1042 q 316 1042 244 1042 q 460 1042 388 1042 q 604 1042 532 1042 q 604 926 604 982 q 604 817 604 871 q 604 708 604 764 q 604 593 604 653 q 604 563 604 578 q 604 532 604 547 q 604 265 604 403 q 604 0 604 126 l 28 0 z "},"O":{"ha":1556,"x_min":14,"x_max":1542,"o":"m 778 1083 q 544 1065 650 1083 q 353 1010 438 1046 q 205 926 268 975 q 99 814 142 876 q 35 678 57 751 q 14 522 14 604 q 27 399 14 460 q 69 282 40 338 q 141 177 97 226 q 245 88 185 128 q 385 19 306 47 q 562 -26 464 -10 q 778 -42 660 -42 q 1069 -12 943 -42 q 1285 72 1194 18 q 1432 197 1375 125 q 1515 351 1489 268 q 1542 522 1542 433 q 1457 813 1542 686 q 1203 1011 1372 939 q 778 1083 1033 1083 m 779 642 q 861 631 828 642 q 914 602 894 619 q 942 564 933 585 q 951 522 951 543 q 946 487 951 504 q 927 453 940 469 q 894 426 914 438 q 845 407 874 414 q 779 400 817 400 q 676 418 715 400 q 621 464 638 436 q 604 521 604 492 q 613 565 604 543 q 642 603 622 586 q 697 631 663 621 q 779 642 731 642 z "},"Ó":{"ha":1556,"x_min":14,"x_max":1542,"o":"m 778 1083 q 544 1065 650 1083 q 353 1010 438 1046 q 205 926 268 975 q 99 814 142 876 q 35 678 57 751 q 14 522 14 604 q 27 399 14 460 q 69 282 40 338 q 141 177 97 226 q 245 88 185 128 q 385 19 306 47 q 562 -26 464 -10 q 778 -42 660 -42 q 1069 -12 943 -42 q 1285 72 1194 18 q 1432 197 1375 125 q 1515 351 1489 268 q 1542 522 1542 433 q 1457 813 1542 686 q 1203 1011 1372 939 q 778 1083 1033 1083 m 779 642 q 861 631 828 642 q 914 602 894 619 q 942 564 933 585 q 951 522 951 543 q 946 487 951 504 q 927 453 940 469 q 894 426 914 438 q 845 407 874 414 q 779 400 817 400 q 676 418 715 400 q 621 464 638 436 q 604 521 604 492 q 613 565 604 543 q 642 603 622 586 q 697 631 663 621 q 779 642 731 642 m 704 1426 l 610 1142 l 931 1142 l 1167 1426 l 704 1426 z "},"Ŏ":{"ha":1556,"x_min":14,"x_max":1542,"o":"m 778 1083 q 544 1065 650 1083 q 353 1010 438 1046 q 205 926 268 975 q 99 814 142 876 q 35 678 57 751 q 14 522 14 604 q 27 399 14 460 q 69 282 40 338 q 141 177 97 226 q 245 88 185 128 q 385 19 306 47 q 562 -26 464 -10 q 778 -42 660 -42 q 1069 -12 943 -42 q 1285 72 1194 18 q 1432 197 1375 125 q 1515 351 1489 268 q 1542 522 1542 433 q 1457 813 1542 686 q 1203 1011 1372 939 q 778 1083 1033 1083 m 779 642 q 861 631 828 642 q 914 602 894 619 q 942 564 933 585 q 951 522 951 543 q 946 487 951 504 q 927 453 940 469 q 894 426 914 438 q 845 407 874 414 q 779 400 817 400 q 676 418 715 400 q 621 464 638 436 q 604 521 604 492 q 613 565 604 543 q 642 603 622 586 q 697 631 663 621 q 779 642 731 642 m 367 1379 l 678 1379 q 690 1340 678 1356 q 724 1318 701 1325 q 778 1311 747 1311 q 831 1318 808 1311 q 866 1340 853 1325 q 879 1379 879 1356 l 1190 1379 q 1087 1194 1190 1257 q 778 1131 983 1131 q 470 1193 574 1131 q 367 1379 367 1256 z "},"Ô":{"ha":1556,"x_min":14,"x_max":1542,"o":"m 778 1083 q 544 1065 650 1083 q 353 1010 438 1046 q 205 926 268 975 q 99 814 142 876 q 35 678 57 751 q 14 522 14 604 q 27 399 14 460 q 69 282 40 338 q 141 177 97 226 q 245 88 185 128 q 385 19 306 47 q 562 -26 464 -10 q 778 -42 660 -42 q 1069 -12 943 -42 q 1285 72 1194 18 q 1432 197 1375 125 q 1515 351 1489 268 q 1542 522 1542 433 q 1457 813 1542 686 q 1203 1011 1372 939 q 778 1083 1033 1083 m 779 642 q 861 631 828 642 q 914 602 894 619 q 942 564 933 585 q 951 522 951 543 q 946 487 951 504 q 927 453 940 469 q 894 426 914 438 q 845 407 874 414 q 779 400 817 400 q 676 418 715 400 q 621 464 638 436 q 604 521 604 492 q 613 565 604 543 q 642 603 622 586 q 697 631 663 621 q 779 642 731 642 m 381 1142 l 542 1426 l 1033 1426 l 1194 1142 l 856 1142 l 769 1303 l 790 1303 l 710 1142 l 381 1142 z "},"Ö":{"ha":1556,"x_min":14,"x_max":1542,"o":"m 778 1083 q 544 1065 650 1083 q 353 1010 438 1046 q 205 926 268 975 q 99 814 142 876 q 35 678 57 751 q 14 522 14 604 q 27 399 14 460 q 69 282 40 338 q 141 177 97 226 q 245 88 185 128 q 385 19 306 47 q 562 -26 464 -10 q 778 -42 660 -42 q 1069 -12 943 -42 q 1285 72 1194 18 q 1432 197 1375 125 q 1515 351 1489 268 q 1542 522 1542 433 q 1457 813 1542 686 q 1203 1011 1372 939 q 778 1083 1033 1083 m 779 642 q 861 631 828 642 q 914 602 894 619 q 942 564 933 585 q 951 522 951 543 q 946 487 951 504 q 927 453 940 469 q 894 426 914 438 q 845 407 874 414 q 779 400 817 400 q 676 418 715 400 q 621 464 638 436 q 604 521 604 492 q 613 565 604 543 q 642 603 622 586 q 697 631 663 621 q 779 642 731 642 m 306 1142 q 304 1142 304 1142 q 304 1143 304 1142 l 304 1365 q 304 1367 304 1367 q 306 1367 304 1367 l 749 1367 q 750 1367 750 1367 q 750 1365 750 1367 l 750 1143 q 749 1142 750 1142 l 306 1142 m 807 1142 q 806 1142 806 1142 q 806 1143 806 1142 l 806 1365 q 807 1367 806 1367 l 1250 1367 q 1251 1367 1251 1367 q 1251 1365 1251 1367 l 1251 1143 q 1250 1142 1251 1142 l 807 1142 z "},"Ọ":{"ha":1556,"x_min":14,"x_max":1542,"o":"m 778 1083 q 544 1065 650 1083 q 353 1010 438 1046 q 205 926 268 975 q 99 814 142 876 q 35 678 57 751 q 14 522 14 604 q 27 399 14 460 q 69 282 40 338 q 141 177 97 226 q 245 88 185 128 q 385 19 306 47 q 562 -26 464 -10 q 778 -42 660 -42 q 1069 -12 943 -42 q 1285 72 1194 18 q 1432 197 1375 125 q 1515 351 1489 268 q 1542 522 1542 433 q 1457 813 1542 686 q 1203 1011 1372 939 q 778 1083 1033 1083 m 779 642 q 861 631 828 642 q 914 602 894 619 q 942 564 933 585 q 951 522 951 543 q 946 487 951 504 q 927 453 940 469 q 894 426 914 438 q 845 407 874 414 q 779 400 817 400 q 676 418 715 400 q 621 464 638 436 q 604 521 604 492 q 613 565 604 543 q 642 603 622 586 q 697 631 663 621 q 779 642 731 642 m 540 -364 q 538 -363 539 -364 q 538 -361 538 -362 l 538 -82 q 540 -79 538 -79 l 1015 -79 q 1017 -80 1017 -79 q 1018 -82 1018 -81 l 1018 -361 q 1015 -364 1018 -364 l 540 -364 z "},"Ò":{"ha":1556,"x_min":14,"x_max":1542,"o":"m 778 1083 q 544 1065 650 1083 q 353 1010 438 1046 q 205 926 268 975 q 99 814 142 876 q 35 678 57 751 q 14 522 14 604 q 27 399 14 460 q 69 282 40 338 q 141 177 97 226 q 245 88 185 128 q 385 19 306 47 q 562 -26 464 -10 q 778 -42 660 -42 q 1069 -12 943 -42 q 1285 72 1194 18 q 1432 197 1375 125 q 1515 351 1489 268 q 1542 522 1542 433 q 1457 813 1542 686 q 1203 1011 1372 939 q 778 1083 1033 1083 m 779 642 q 861 631 828 642 q 914 602 894 619 q 942 564 933 585 q 951 522 951 543 q 946 487 951 504 q 927 453 940 469 q 894 426 914 438 q 845 407 874 414 q 779 400 817 400 q 676 418 715 400 q 621 464 638 436 q 604 521 604 492 q 613 565 604 543 q 642 603 622 586 q 697 631 663 621 q 779 642 731 642 m 842 1426 l 379 1426 l 615 1142 l 936 1142 l 842 1426 z "},"Ő":{"ha":1556,"x_min":14,"x_max":1542,"o":"m 778 1083 q 544 1065 650 1083 q 353 1010 438 1046 q 205 926 268 975 q 99 814 142 876 q 35 678 57 751 q 14 522 14 604 q 27 399 14 460 q 69 282 40 338 q 141 177 97 226 q 245 88 185 128 q 385 19 306 47 q 562 -26 464 -10 q 778 -42 660 -42 q 1069 -12 943 -42 q 1285 72 1194 18 q 1432 197 1375 125 q 1515 351 1489 268 q 1542 522 1542 433 q 1457 813 1542 686 q 1203 1011 1372 939 q 778 1083 1033 1083 m 779 642 q 861 631 828 642 q 914 602 894 619 q 942 564 933 585 q 951 522 951 543 q 946 487 951 504 q 927 453 940 469 q 894 426 914 438 q 845 407 874 414 q 779 400 817 400 q 676 418 715 400 q 621 464 638 436 q 604 521 604 492 q 613 565 604 543 q 642 603 622 586 q 697 631 663 621 q 779 642 731 642 m 493 1426 l 404 1142 l 711 1142 l 914 1426 l 493 1426 m 938 1426 l 849 1142 l 1156 1142 l 1358 1426 l 938 1426 z "},"Ō":{"ha":1556,"x_min":14,"x_max":1542,"o":"m 778 1083 q 544 1065 650 1083 q 353 1010 438 1046 q 205 926 268 975 q 99 814 142 876 q 35 678 57 751 q 14 522 14 604 q 27 399 14 460 q 69 282 40 338 q 141 177 97 226 q 245 88 185 128 q 385 19 306 47 q 562 -26 464 -10 q 778 -42 660 -42 q 1069 -12 943 -42 q 1285 72 1194 18 q 1432 197 1375 125 q 1515 351 1489 268 q 1542 522 1542 433 q 1457 813 1542 686 q 1203 1011 1372 939 q 778 1083 1033 1083 m 779 642 q 861 631 828 642 q 914 602 894 619 q 942 564 933 585 q 951 522 951 543 q 946 487 951 504 q 927 453 940 469 q 894 426 914 438 q 845 407 874 414 q 779 400 817 400 q 676 418 715 400 q 621 464 638 436 q 604 521 604 492 q 613 565 604 543 q 642 603 622 586 q 697 631 663 621 q 779 642 731 642 m 428 1163 l 428 1381 l 1128 1381 l 1128 1163 l 428 1163 z "},"Ǫ":{"ha":1556,"x_min":14,"x_max":1542,"o":"m 893 -426 q 626 -365 715 -426 q 538 -193 538 -304 q 540 -162 538 -178 q 545 -131 542 -146 q 554 -103 549 -117 q 567 -76 560 -89 q 584 -52 575 -64 q 604 -29 593 -40 l 604 -39 q 438 -6 514 -28 q 302 49 363 17 q 194 120 242 81 q 113 206 147 160 q 57 304 79 253 q 24 410 35 356 q 14 522 14 465 q 35 678 14 604 q 99 814 57 751 q 205 926 142 876 q 353 1010 268 975 q 544 1065 438 1046 q 778 1083 650 1083 q 1113 1042 969 1083 q 1351 926 1256 1001 q 1494 748 1446 850 q 1542 522 1542 646 q 1482 272 1542 383 q 1315 85 1422 160 q 1065 -18 1207 10 q 972 -42 1006 -29 q 924 -70 938 -56 q 911 -101 911 -85 q 935 -133 911 -121 q 1003 -144 960 -144 q 1061 -140 1035 -144 q 1118 -122 1088 -135 l 1118 -394 q 1010 -418 1061 -410 q 893 -426 958 -426 m 779 400 q 845 407 817 400 q 894 426 874 414 q 927 453 914 438 q 946 487 940 469 q 951 522 951 504 q 942 564 951 543 q 914 602 933 585 q 861 631 894 619 q 779 642 828 642 q 697 631 731 642 q 642 603 663 621 q 613 565 622 586 q 604 521 604 543 q 621 464 604 492 q 676 418 638 436 q 779 400 715 400 z "},"Ø":{"ha":1556,"x_min":14,"x_max":1542,"o":"m 115 -31 l 200 -119 l 1440 1075 l 1356 1164 l 115 -31 m 778 1083 q 544 1065 650 1083 q 353 1010 438 1046 q 205 926 268 975 q 99 814 142 876 q 35 678 57 751 q 14 522 14 604 q 27 399 14 460 q 69 282 40 338 q 141 177 97 226 q 245 88 185 128 q 385 19 306 47 q 562 -26 464 -10 q 778 -42 660 -42 q 1069 -12 943 -42 q 1285 72 1194 18 q 1432 197 1375 125 q 1515 351 1489 268 q 1542 522 1542 433 q 1457 813 1542 686 q 1203 1011 1372 939 q 778 1083 1033 1083 m 779 642 q 861 631 828 642 q 914 602 894 619 q 942 564 933 585 q 951 522 951 543 q 946 487 951 504 q 927 453 940 469 q 894 426 914 438 q 845 407 874 414 q 779 400 817 400 q 676 418 715 400 q 621 464 638 436 q 604 521 604 492 q 613 565 604 543 q 642 603 622 586 q 697 631 663 621 q 779 642 731 642 z "},"Ǿ":{"ha":1556,"x_min":14,"x_max":1542,"o":"m 115 -31 l 200 -119 l 1440 1075 l 1356 1164 l 115 -31 m 778 1083 q 544 1065 650 1083 q 353 1010 438 1046 q 205 926 268 975 q 99 814 142 876 q 35 678 57 751 q 14 522 14 604 q 27 399 14 460 q 69 282 40 338 q 141 177 97 226 q 245 88 185 128 q 385 19 306 47 q 562 -26 464 -10 q 778 -42 660 -42 q 1069 -12 943 -42 q 1285 72 1194 18 q 1432 197 1375 125 q 1515 351 1489 268 q 1542 522 1542 433 q 1457 813 1542 686 q 1203 1011 1372 939 q 778 1083 1033 1083 m 779 642 q 861 631 828 642 q 914 602 894 619 q 942 564 933 585 q 951 522 951 543 q 946 487 951 504 q 927 453 940 469 q 894 426 914 438 q 845 407 874 414 q 779 400 817 400 q 676 418 715 400 q 621 464 638 436 q 604 521 604 492 q 613 565 604 543 q 642 603 622 586 q 697 631 663 621 q 779 642 731 642 m 704 1426 l 610 1142 l 931 1142 l 1167 1426 l 704 1426 z "},"Õ":{"ha":1556,"x_min":14,"x_max":1542,"o":"m 778 1083 q 544 1065 650 1083 q 353 1010 438 1046 q 205 926 268 975 q 99 814 142 876 q 35 678 57 751 q 14 522 14 604 q 27 399 14 460 q 69 282 40 338 q 141 177 97 226 q 245 88 185 128 q 385 19 306 47 q 562 -26 464 -10 q 778 -42 660 -42 q 1069 -12 943 -42 q 1285 72 1194 18 q 1432 197 1375 125 q 1515 351 1489 268 q 1542 522 1542 433 q 1457 813 1542 686 q 1203 1011 1372 939 q 778 1083 1033 1083 m 779 642 q 861 631 828 642 q 914 602 894 619 q 942 564 933 585 q 951 522 951 543 q 946 487 951 504 q 927 453 940 469 q 894 426 914 438 q 845 407 874 414 q 779 400 817 400 q 676 418 715 400 q 621 464 638 436 q 604 521 604 492 q 613 565 604 543 q 642 603 622 586 q 697 631 663 621 q 779 642 731 642 m 393 1133 l 624 1133 q 624 1184 613 1169 q 656 1199 635 1199 q 700 1188 675 1199 q 756 1163 725 1176 q 826 1138 788 1149 q 907 1126 864 1126 q 1009 1142 958 1126 q 1099 1193 1060 1158 q 1158 1285 1139 1228 q 1163 1426 1176 1343 l 933 1426 q 932 1374 943 1389 q 897 1360 921 1360 q 855 1371 879 1360 q 799 1397 831 1382 q 731 1422 768 1411 q 650 1433 694 1433 q 508 1404 574 1433 q 409 1310 443 1375 q 393 1133 375 1244 z "},"Œ":{"ha":2061,"x_min":14,"x_max":2044,"o":"m 778 -35 q 575 -21 668 -35 q 403 19 482 -7 q 263 81 325 44 q 154 165 201 118 q 76 268 107 213 q 29 387 44 324 q 14 519 14 450 q 40 690 14 607 q 124 842 67 772 q 271 965 181 913 q 487 1047 361 1018 q 778 1076 613 1076 q 881 1072 832 1076 q 976 1060 931 1068 q 1063 1042 1022 1053 l 2036 1042 l 2036 692 l 1474 692 q 1472 692 1472 692 q 1472 690 1472 692 l 1472 614 q 1472 613 1472 614 q 1472 613 1472 613 q 1473 613 1472 613 q 1474 613 1474 613 l 2015 613 l 2015 417 l 1474 417 q 1473 417 1474 417 q 1472 417 1472 417 q 1472 415 1472 417 l 1472 338 q 1472 337 1472 338 q 1472 336 1472 336 q 1473 336 1472 336 q 1474 336 1474 336 l 2044 336 l 2044 0 l 1203 0 q 1156 0 1179 0 q 1108 0 1132 0 q 1060 0 1083 0 q 997 -15 1029 -8 q 928 -26 964 -21 q 856 -33 893 -31 q 778 -35 818 -35 m 779 408 q 813 410 797 408 q 843 415 829 411 q 869 422 857 418 q 892 431 882 425 q 910 442 901 436 l 910 600 q 877 617 896 610 q 834 629 858 625 q 779 633 810 633 q 697 624 731 633 q 643 598 664 614 q 613 561 622 582 q 604 519 604 540 q 621 467 604 493 q 676 425 638 442 q 779 408 714 408 z "},"P":{"ha":1431,"x_min":28,"x_max":1419,"o":"m 907 1042 q 1133 1006 1036 1042 q 1292 910 1229 971 q 1388 774 1356 850 q 1419 615 1419 697 q 1387 449 1419 528 q 1290 310 1354 371 q 1129 213 1225 249 q 907 178 1033 178 l 608 178 q 608 177 608 178 q 606 176 607 176 q 606 175 606 176 l 606 0 l 28 0 q 28 186 28 93 q 28 372 28 279 q 28 558 28 465 q 28 744 28 651 q 28 894 28 819 q 28 1042 28 968 l 907 1042 m 736 479 q 806 494 778 479 q 849 531 835 508 q 863 578 863 554 q 849 624 863 603 q 807 660 835 646 q 736 674 779 674 l 608 674 q 606 673 607 674 q 606 671 606 672 l 606 481 q 606 481 606 481 q 608 480 607 481 q 608 479 608 479 l 736 479 z "},"Þ":{"ha":1429,"x_min":28,"x_max":1418,"o":"m 28 0 q 28 149 28 71 q 28 313 28 228 q 28 488 28 399 q 28 671 28 578 q 28 856 28 763 q 28 1042 28 949 l 608 1042 q 608 1021 608 1032 q 608 999 608 1010 q 608 969 608 986 q 608 953 608 953 q 748 953 679 953 q 908 953 817 953 q 1188 896 1075 953 q 1360 743 1301 839 q 1418 532 1418 647 q 1360 325 1418 419 q 1188 174 1301 231 q 908 117 1075 117 l 608 117 q 606 116 607 117 q 606 114 606 115 l 606 0 l 28 0 m 607 399 l 736 399 q 806 413 778 399 q 847 450 833 426 q 861 500 861 474 q 847 548 861 526 q 806 583 833 569 q 736 596 779 596 l 607 596 q 604 593 604 596 l 604 401 q 605 401 604 401 q 606 399 606 400 q 607 399 607 399 z "},"Q":{"ha":1546,"x_min":14,"x_max":1532,"o":"m 965 124 q 965 123 965 124 q 965 121 965 122 q 965 119 965 121 q 965 117 965 118 q 965 117 965 117 l 1515 179 l 1428 -194 l 551 -153 q 563 -111 557 -131 q 574 -70 568 -92 q 586 -24 581 -49 q 586 -22 586 -22 q 585 -21 586 -21 q 392 21 481 -8 q 234 96 304 50 q 115 204 164 142 q 40 346 65 267 q 14 522 14 425 q 44 706 14 621 q 136 861 75 792 q 288 981 197 931 q 501 1057 379 1031 q 774 1083 622 1083 q 1074 1050 936 1083 q 1315 951 1213 1017 q 1475 789 1418 886 q 1532 564 1532 692 q 1458 337 1532 428 q 1255 194 1383 246 q 965 124 1126 142 m 779 642 q 676 624 715 642 q 621 578 638 606 q 604 521 604 551 q 613 478 604 499 q 642 440 622 457 q 697 413 663 424 q 779 403 731 403 q 861 413 828 403 q 914 441 894 424 q 942 479 933 458 q 951 519 951 500 q 942 563 951 542 q 913 603 933 585 q 860 631 893 621 q 779 642 826 642 z "},"R":{"ha":1431,"x_min":28,"x_max":1426,"o":"m 28 1042 l 1032 1042 q 1235 998 1154 1042 q 1356 885 1315 954 q 1396 740 1396 817 q 1352 587 1396 661 q 1220 465 1308 513 q 1000 418 1132 418 q 972 418 994 418 q 927 418 950 418 q 897 418 904 418 q 897 417 897 418 q 897 415 897 415 q 897 415 897 415 q 897 413 897 414 q 897 413 897 413 l 1213 413 l 1426 0 l 767 0 q 713 142 740 71 q 659 283 686 213 q 604 425 632 354 l 765 425 q 815 433 793 425 q 850 456 836 442 q 871 487 864 469 q 878 522 878 504 q 865 569 878 547 q 828 606 853 592 q 765 619 803 619 l 607 619 q 606 619 607 619 q 605 618 606 618 q 604 617 604 618 q 604 484 604 526 q 604 431 604 442 q 604 424 604 421 q 604 409 604 424 q 604 369 604 394 q 604 313 604 344 q 604 211 604 267 q 604 101 604 156 q 604 0 604 46 l 28 0 q 28 178 28 89 q 28 357 28 268 q 28 535 28 446 q 28 714 28 625 q 28 878 28 796 q 28 1042 28 960 z "},"Ŕ":{"ha":1431,"x_min":28,"x_max":1426,"o":"m 28 1042 l 1032 1042 q 1235 998 1154 1042 q 1356 885 1315 954 q 1396 740 1396 817 q 1352 587 1396 661 q 1220 465 1308 513 q 1000 418 1132 418 q 972 418 994 418 q 927 418 950 418 q 897 418 904 418 q 897 417 897 418 q 897 415 897 415 q 897 415 897 415 q 897 413 897 414 q 897 413 897 413 l 1213 413 l 1426 0 l 767 0 q 713 142 740 71 q 659 283 686 213 q 604 425 632 354 l 765 425 q 815 433 793 425 q 850 456 836 442 q 871 487 864 469 q 878 522 878 504 q 865 569 878 547 q 828 606 853 592 q 765 619 803 619 l 607 619 q 606 619 607 619 q 605 618 606 618 q 604 617 604 618 q 604 484 604 526 q 604 431 604 442 q 604 424 604 421 q 604 409 604 424 q 604 369 604 394 q 604 313 604 344 q 604 211 604 267 q 604 101 604 156 q 604 0 604 46 l 28 0 q 28 178 28 89 q 28 357 28 268 q 28 535 28 446 q 28 714 28 625 q 28 878 28 796 q 28 1042 28 960 m 657 1426 l 563 1142 l 883 1142 l 1119 1426 l 657 1426 z "},"Ř":{"ha":1431,"x_min":28,"x_max":1426,"o":"m 28 1042 l 1032 1042 q 1235 998 1154 1042 q 1356 885 1315 954 q 1396 740 1396 817 q 1352 587 1396 661 q 1220 465 1308 513 q 1000 418 1132 418 q 972 418 994 418 q 927 418 950 418 q 897 418 904 418 q 897 417 897 418 q 897 415 897 415 q 897 415 897 415 q 897 413 897 414 q 897 413 897 413 l 1213 413 l 1426 0 l 767 0 q 713 142 740 71 q 659 283 686 213 q 604 425 632 354 l 765 425 q 815 433 793 425 q 850 456 836 442 q 871 487 864 469 q 878 522 878 504 q 865 569 878 547 q 828 606 853 592 q 765 619 803 619 l 607 619 q 606 619 607 619 q 605 618 606 618 q 604 617 604 618 q 604 484 604 526 q 604 431 604 442 q 604 424 604 421 q 604 409 604 424 q 604 369 604 394 q 604 313 604 344 q 604 211 604 267 q 604 101 604 156 q 604 0 604 46 l 28 0 q 28 178 28 89 q 28 357 28 268 q 28 535 28 446 q 28 714 28 625 q 28 878 28 796 q 28 1042 28 960 m 1132 1426 l 971 1142 l 479 1142 l 318 1426 l 657 1426 l 743 1265 l 722 1265 l 803 1426 l 1132 1426 z "},"Ŗ":{"ha":1431,"x_min":28,"x_max":1426,"o":"m 28 1042 l 1032 1042 q 1235 998 1154 1042 q 1356 885 1315 954 q 1396 740 1396 817 q 1352 587 1396 661 q 1220 465 1308 513 q 1000 418 1132 418 q 972 418 994 418 q 927 418 950 418 q 897 418 904 418 q 897 417 897 418 q 897 415 897 415 q 897 415 897 415 q 897 413 897 414 q 897 413 897 413 l 1213 413 l 1426 0 l 767 0 q 713 142 740 71 q 659 283 686 213 q 604 425 632 354 l 765 425 q 815 433 793 425 q 850 456 836 442 q 871 487 864 469 q 878 522 878 504 q 865 569 878 547 q 828 606 853 592 q 765 619 803 619 l 607 619 q 606 619 607 619 q 605 618 606 618 q 604 617 604 618 q 604 484 604 526 q 604 431 604 442 q 604 424 604 421 q 604 409 604 424 q 604 369 604 394 q 604 313 604 344 q 604 211 604 267 q 604 101 604 156 q 604 0 604 46 l 28 0 q 28 178 28 89 q 28 357 28 268 q 28 535 28 446 q 28 714 28 625 q 28 878 28 796 q 28 1042 28 960 m 506 -351 l 542 -79 l 922 -79 l 815 -351 l 506 -351 z "},"S":{"ha":1497,"x_min":11,"x_max":1481,"o":"m 753 628 q 1101 610 961 628 q 1325 553 1242 592 q 1444 456 1408 515 q 1481 317 1481 397 q 1424 162 1481 229 q 1267 49 1368 94 q 1034 -19 1167 4 q 749 -42 901 -42 q 440 -17 579 -42 q 204 60 301 8 q 59 194 107 113 q 21 390 11 276 l 614 431 q 620 361 603 389 q 675 319 638 333 q 758 306 713 306 q 809 310 786 306 q 850 322 832 314 q 878 344 868 331 q 888 374 888 357 q 853 417 888 407 q 754 426 819 426 q 748 426 751 426 q 741 426 744 426 q 733 426 738 426 q 726 426 729 426 q 719 426 722 426 q 378 448 514 426 q 163 508 242 469 q 50 601 83 547 q 17 721 17 654 q 54 849 17 792 q 160 951 92 907 q 322 1024 229 994 q 524 1068 414 1053 q 756 1083 635 1083 q 1062 1053 926 1083 q 1290 965 1197 1022 q 1422 829 1382 908 q 1442 651 1463 750 l 868 625 q 867 691 883 665 q 815 728 850 717 q 735 740 779 740 q 685 735 707 740 q 647 722 663 731 q 622 700 631 713 q 613 674 613 688 q 624 647 613 657 q 658 632 635 636 q 718 628 681 628 q 724 628 721 628 q 731 628 728 628 q 738 628 735 628 q 745 628 742 628 q 753 628 749 628 z "},"Ś":{"ha":1497,"x_min":11,"x_max":1481,"o":"m 753 628 q 1101 610 961 628 q 1325 553 1242 592 q 1444 456 1408 515 q 1481 317 1481 397 q 1424 162 1481 229 q 1267 49 1368 94 q 1034 -19 1167 4 q 749 -42 901 -42 q 440 -17 579 -42 q 204 60 301 8 q 59 194 107 113 q 21 390 11 276 l 614 431 q 620 361 603 389 q 675 319 638 333 q 758 306 713 306 q 809 310 786 306 q 850 322 832 314 q 878 344 868 331 q 888 374 888 357 q 853 417 888 407 q 754 426 819 426 q 748 426 751 426 q 741 426 744 426 q 733 426 738 426 q 726 426 729 426 q 719 426 722 426 q 378 448 514 426 q 163 508 242 469 q 50 601 83 547 q 17 721 17 654 q 54 849 17 792 q 160 951 92 907 q 322 1024 229 994 q 524 1068 414 1053 q 756 1083 635 1083 q 1062 1053 926 1083 q 1290 965 1197 1022 q 1422 829 1382 908 q 1442 651 1463 750 l 868 625 q 867 691 883 665 q 815 728 850 717 q 735 740 779 740 q 685 735 707 740 q 647 722 663 731 q 622 700 631 713 q 613 674 613 688 q 624 647 613 657 q 658 632 635 636 q 718 628 681 628 q 724 628 721 628 q 731 628 728 628 q 738 628 735 628 q 745 628 742 628 q 753 628 749 628 m 678 1426 l 583 1142 l 904 1142 l 1140 1426 l 678 1426 z "},"Š":{"ha":1497,"x_min":11,"x_max":1481,"o":"m 753 628 q 1101 610 961 628 q 1325 553 1242 592 q 1444 456 1408 515 q 1481 317 1481 397 q 1424 162 1481 229 q 1267 49 1368 94 q 1034 -19 1167 4 q 749 -42 901 -42 q 440 -17 579 -42 q 204 60 301 8 q 59 194 107 113 q 21 390 11 276 l 614 431 q 620 361 603 389 q 675 319 638 333 q 758 306 713 306 q 809 310 786 306 q 850 322 832 314 q 878 344 868 331 q 888 374 888 357 q 853 417 888 407 q 754 426 819 426 q 748 426 751 426 q 741 426 744 426 q 733 426 738 426 q 726 426 729 426 q 719 426 722 426 q 378 448 514 426 q 163 508 242 469 q 50 601 83 547 q 17 721 17 654 q 54 849 17 792 q 160 951 92 907 q 322 1024 229 994 q 524 1068 414 1053 q 756 1083 635 1083 q 1062 1053 926 1083 q 1290 965 1197 1022 q 1422 829 1382 908 q 1442 651 1463 750 l 868 625 q 867 691 883 665 q 815 728 850 717 q 735 740 779 740 q 685 735 707 740 q 647 722 663 731 q 622 700 631 713 q 613 674 613 688 q 624 647 613 657 q 658 632 635 636 q 718 628 681 628 q 724 628 721 628 q 731 628 728 628 q 738 628 735 628 q 745 628 742 628 q 753 628 749 628 m 1153 1426 l 992 1142 l 500 1142 l 339 1426 l 678 1426 l 764 1265 l 743 1265 l 824 1426 l 1153 1426 z "},"Ş":{"ha":1497,"x_min":11,"x_max":1481,"o":"m 753 628 q 1101 610 961 628 q 1325 553 1242 592 q 1444 456 1408 515 q 1481 317 1481 397 q 1424 162 1481 229 q 1267 49 1368 94 q 1034 -19 1167 4 q 749 -42 901 -42 q 440 -17 579 -42 q 204 60 301 8 q 59 194 107 113 q 21 390 11 276 l 614 431 q 620 361 603 389 q 675 319 638 333 q 758 306 713 306 q 809 310 786 306 q 850 322 832 314 q 878 344 868 331 q 888 374 888 357 q 853 417 888 407 q 754 426 819 426 q 748 426 751 426 q 741 426 744 426 q 733 426 738 426 q 726 426 729 426 q 719 426 722 426 q 378 448 514 426 q 163 508 242 469 q 50 601 83 547 q 17 721 17 654 q 54 849 17 792 q 160 951 92 907 q 322 1024 229 994 q 524 1068 414 1053 q 756 1083 635 1083 q 1062 1053 926 1083 q 1290 965 1197 1022 q 1422 829 1382 908 q 1442 651 1463 750 l 868 625 q 867 691 883 665 q 815 728 850 717 q 735 740 779 740 q 685 735 707 740 q 647 722 663 731 q 622 700 631 713 q 613 674 613 688 q 624 647 613 657 q 658 632 635 636 q 718 628 681 628 q 724 628 721 628 q 731 628 728 628 q 738 628 735 628 q 745 628 742 628 q 753 628 749 628 m 700 22 l 856 22 q 852 -6 854 8 q 848 -35 850 -21 q 843 -65 846 -50 q 953 -81 907 -64 q 1024 -130 999 -99 q 1049 -203 1049 -161 q 1015 -295 1049 -251 q 918 -365 981 -339 q 767 -392 856 -392 q 647 -379 699 -392 q 560 -350 596 -367 l 618 -181 q 709 -214 671 -210 q 769 -206 747 -218 q 790 -176 790 -194 q 765 -145 790 -158 q 679 -142 740 -132 q 690 -60 685 -101 q 700 22 694 -18 z "},"Ŝ":{"ha":1497,"x_min":11,"x_max":1481,"o":"m 753 628 q 1101 610 961 628 q 1325 553 1242 592 q 1444 456 1408 515 q 1481 317 1481 397 q 1424 162 1481 229 q 1267 49 1368 94 q 1034 -19 1167 4 q 749 -42 901 -42 q 440 -17 579 -42 q 204 60 301 8 q 59 194 107 113 q 21 390 11 276 l 614 431 q 620 361 603 389 q 675 319 638 333 q 758 306 713 306 q 809 310 786 306 q 850 322 832 314 q 878 344 868 331 q 888 374 888 357 q 853 417 888 407 q 754 426 819 426 q 748 426 751 426 q 741 426 744 426 q 733 426 738 426 q 726 426 729 426 q 719 426 722 426 q 378 448 514 426 q 163 508 242 469 q 50 601 83 547 q 17 721 17 654 q 54 849 17 792 q 160 951 92 907 q 322 1024 229 994 q 524 1068 414 1053 q 756 1083 635 1083 q 1062 1053 926 1083 q 1290 965 1197 1022 q 1422 829 1382 908 q 1442 651 1463 750 l 868 625 q 867 691 883 665 q 815 728 850 717 q 735 740 779 740 q 685 735 707 740 q 647 722 663 731 q 622 700 631 713 q 613 674 613 688 q 624 647 613 657 q 658 632 635 636 q 718 628 681 628 q 724 628 721 628 q 731 628 728 628 q 738 628 735 628 q 745 628 742 628 q 753 628 749 628 m 354 1142 l 515 1426 l 1007 1426 l 1168 1142 l 829 1142 l 743 1303 l 764 1303 l 683 1142 l 354 1142 z "},"Ș":{"ha":1497,"x_min":11,"x_max":1481,"o":"m 753 628 q 1101 610 961 628 q 1325 553 1242 592 q 1444 456 1408 515 q 1481 317 1481 397 q 1424 162 1481 229 q 1267 49 1368 94 q 1034 -19 1167 4 q 749 -42 901 -42 q 440 -17 579 -42 q 204 60 301 8 q 59 194 107 113 q 21 390 11 276 l 614 431 q 620 361 603 389 q 675 319 638 333 q 758 306 713 306 q 809 310 786 306 q 850 322 832 314 q 878 344 868 331 q 888 374 888 357 q 853 417 888 407 q 754 426 819 426 q 748 426 751 426 q 741 426 744 426 q 733 426 738 426 q 726 426 729 426 q 719 426 722 426 q 378 448 514 426 q 163 508 242 469 q 50 601 83 547 q 17 721 17 654 q 54 849 17 792 q 160 951 92 907 q 322 1024 229 994 q 524 1068 414 1053 q 756 1083 635 1083 q 1062 1053 926 1083 q 1290 965 1197 1022 q 1422 829 1382 908 q 1442 651 1463 750 l 868 625 q 867 691 883 665 q 815 728 850 717 q 735 740 779 740 q 685 735 707 740 q 647 722 663 731 q 622 700 631 713 q 613 674 613 688 q 624 647 613 657 q 658 632 635 636 q 718 628 681 628 q 724 628 721 628 q 731 628 728 628 q 738 628 735 628 q 745 628 742 628 q 753 628 749 628 m 526 -351 l 563 -79 l 943 -79 l 836 -351 l 526 -351 z "},"Ṣ":{"ha":1497,"x_min":11,"x_max":1481,"o":"m 753 628 q 1101 610 961 628 q 1325 553 1242 592 q 1444 456 1408 515 q 1481 317 1481 397 q 1424 162 1481 229 q 1267 49 1368 94 q 1034 -19 1167 4 q 749 -42 901 -42 q 440 -17 579 -42 q 204 60 301 8 q 59 194 107 113 q 21 390 11 276 l 614 431 q 620 361 603 389 q 675 319 638 333 q 758 306 713 306 q 809 310 786 306 q 850 322 832 314 q 878 344 868 331 q 888 374 888 357 q 853 417 888 407 q 754 426 819 426 q 748 426 751 426 q 741 426 744 426 q 733 426 738 426 q 726 426 729 426 q 719 426 722 426 q 378 448 514 426 q 163 508 242 469 q 50 601 83 547 q 17 721 17 654 q 54 849 17 792 q 160 951 92 907 q 322 1024 229 994 q 524 1068 414 1053 q 756 1083 635 1083 q 1062 1053 926 1083 q 1290 965 1197 1022 q 1422 829 1382 908 q 1442 651 1463 750 l 868 625 q 867 691 883 665 q 815 728 850 717 q 735 740 779 740 q 685 735 707 740 q 647 722 663 731 q 622 700 631 713 q 613 674 613 688 q 624 647 613 657 q 658 632 635 636 q 718 628 681 628 q 724 628 721 628 q 731 628 728 628 q 738 628 735 628 q 745 628 742 628 q 753 628 749 628 m 514 -364 q 512 -363 513 -364 q 511 -361 511 -362 l 511 -82 q 514 -79 511 -79 l 989 -79 q 991 -80 990 -79 q 992 -82 992 -81 l 992 -361 q 989 -364 992 -364 l 514 -364 z "},"ẞ":{"ha":1483,"x_min":28,"x_max":1469,"o":"m 926 -22 q 808 -16 857 -22 q 725 2 760 -10 q 661 29 690 14 l 661 436 q 719 378 676 397 q 825 360 761 360 q 872 365 850 360 q 908 378 893 369 q 931 399 922 386 q 939 426 939 411 q 925 461 939 447 q 884 482 911 475 q 817 489 857 489 l 690 489 q 717 533 704 511 q 744 578 731 556 q 769 622 757 600 q 795 667 782 644 q 822 711 808 689 l 772 711 q 666 697 708 711 q 602 651 624 683 q 581 563 581 619 q 581 372 581 463 q 581 192 581 282 q 581 0 581 101 l 28 0 q 28 142 28 79 q 28 256 28 206 q 28 349 28 307 q 28 425 28 390 q 28 469 28 449 q 28 511 28 490 q 28 553 28 532 q 28 596 28 574 q 92 829 28 729 q 286 985 157 929 q 608 1042 415 1042 l 1460 1042 q 1404 951 1435 1001 q 1342 849 1374 900 q 1283 754 1310 797 q 1241 685 1257 711 q 1225 658 1225 658 q 1302 626 1268 644 q 1363 585 1336 607 q 1410 538 1390 564 q 1444 482 1431 511 q 1463 420 1457 453 q 1469 350 1469 388 q 1406 166 1469 251 q 1222 29 1343 81 q 926 -22 1101 -22 z "},"T":{"ha":1288,"x_min":18,"x_max":1269,"o":"m 1269 1042 l 1269 619 l 935 619 q 934 619 935 619 q 933 618 933 618 q 932 617 932 618 q 932 494 932 556 q 932 370 932 432 q 932 247 932 308 q 932 123 932 185 q 932 0 932 61 l 356 0 q 356 206 356 103 q 356 411 356 308 q 356 617 356 514 q 356 617 356 617 q 355 619 356 618 q 353 619 354 619 q 353 619 353 619 l 18 619 l 18 1042 l 1269 1042 z "},"Ŧ":{"ha":1285,"x_min":18,"x_max":1269,"o":"m 194 318 l 194 440 l 1090 440 l 1090 318 l 194 318 m 1269 1042 l 1269 619 l 935 619 q 934 619 935 619 q 933 618 933 618 q 932 617 932 618 q 932 494 932 556 q 932 370 932 432 q 932 247 932 308 q 932 123 932 185 q 932 0 932 61 l 356 0 q 356 206 356 103 q 356 411 356 308 q 356 617 356 514 q 356 617 356 617 q 355 619 356 618 q 353 619 354 619 q 353 619 353 619 l 18 619 l 18 1042 l 1269 1042 z "},"Ť":{"ha":1288,"x_min":18,"x_max":1269,"o":"m 1269 1042 l 1269 619 l 935 619 q 934 619 935 619 q 933 618 933 618 q 932 617 932 618 q 932 494 932 556 q 932 370 932 432 q 932 247 932 308 q 932 123 932 185 q 932 0 932 61 l 356 0 q 356 206 356 103 q 356 411 356 308 q 356 617 356 514 q 356 617 356 617 q 355 619 356 618 q 353 619 354 619 q 353 619 353 619 l 18 619 l 18 1042 l 1269 1042 m 1046 1426 l 885 1142 l 393 1142 l 232 1426 l 571 1426 l 657 1265 l 636 1265 l 717 1426 l 1046 1426 z "},"Ţ":{"ha":1288,"x_min":18,"x_max":1269,"o":"m 1269 1042 l 1269 619 l 935 619 q 934 619 935 619 q 933 618 933 618 q 932 617 932 618 q 932 494 932 556 q 932 370 932 432 q 932 247 932 308 q 932 123 932 185 q 932 0 932 61 l 356 0 q 356 206 356 103 q 356 411 356 308 q 356 617 356 514 q 356 617 356 617 q 355 619 356 618 q 353 619 354 619 q 353 619 353 619 l 18 619 l 18 1042 l 1269 1042 m 593 22 l 749 22 q 745 -6 747 8 q 741 -35 743 -21 q 736 -65 739 -50 q 846 -81 800 -64 q 917 -130 892 -99 q 942 -203 942 -161 q 908 -295 942 -251 q 811 -365 874 -339 q 660 -392 749 -392 q 540 -379 592 -392 q 453 -350 489 -367 l 511 -181 q 602 -214 564 -210 q 662 -206 640 -218 q 683 -176 683 -194 q 658 -145 683 -158 q 572 -142 633 -132 q 583 -60 578 -101 q 593 22 588 -18 z "},"Ṱ":{"ha":1288,"x_min":18,"x_max":1269,"o":"m 1269 1042 l 1269 619 l 935 619 q 934 619 935 619 q 933 618 933 618 q 932 617 932 618 q 932 494 932 556 q 932 370 932 432 q 932 247 932 308 q 932 123 932 185 q 932 0 932 61 l 356 0 q 356 206 356 103 q 356 411 356 308 q 356 617 356 514 q 356 617 356 617 q 355 619 356 618 q 353 619 354 619 q 353 619 353 619 l 18 619 l 18 1042 l 1269 1042 m 238 -364 l 399 -79 l 890 -79 l 1051 -364 l 713 -364 l 626 -203 l 647 -203 l 567 -364 l 238 -364 z "},"Ț":{"ha":1288,"x_min":18,"x_max":1269,"o":"m 1269 1042 l 1269 619 l 935 619 q 934 619 935 619 q 933 618 933 618 q 932 617 932 618 q 932 494 932 556 q 932 370 932 432 q 932 247 932 308 q 932 123 932 185 q 932 0 932 61 l 356 0 q 356 206 356 103 q 356 411 356 308 q 356 617 356 514 q 356 617 356 617 q 355 619 356 618 q 353 619 354 619 q 353 619 353 619 l 18 619 l 18 1042 l 1269 1042 m 419 -351 l 456 -79 l 836 -79 l 729 -351 l 419 -351 z "},"U":{"ha":1417,"x_min":28,"x_max":1389,"o":"m 28 1042 q 28 899 28 972 q 28 753 28 826 q 28 606 28 679 q 28 494 28 550 q 28 385 28 438 q 65 231 28 300 q 169 112 103 163 q 322 26 235 61 q 508 -25 408 -8 q 708 -42 607 -42 q 958 -15 836 -42 q 1176 65 1079 11 q 1331 198 1274 118 q 1389 385 1389 278 q 1389 602 1389 490 q 1389 825 1389 714 q 1389 1042 1389 936 l 813 1042 q 813 894 813 965 q 813 757 813 824 q 813 625 813 690 q 813 493 813 560 q 781 432 813 453 q 708 411 749 411 q 670 417 689 411 q 637 433 651 422 q 613 458 622 443 q 604 494 604 474 q 604 758 604 626 q 604 1042 604 890 l 28 1042 z "},"Ú":{"ha":1417,"x_min":28,"x_max":1389,"o":"m 28 1042 q 28 899 28 972 q 28 753 28 826 q 28 606 28 679 q 28 494 28 550 q 28 385 28 438 q 65 231 28 300 q 169 112 103 163 q 322 26 235 61 q 508 -25 408 -8 q 708 -42 607 -42 q 958 -15 836 -42 q 1176 65 1079 11 q 1331 198 1274 118 q 1389 385 1389 278 q 1389 602 1389 490 q 1389 825 1389 714 q 1389 1042 1389 936 l 813 1042 q 813 894 813 965 q 813 757 813 824 q 813 625 813 690 q 813 493 813 560 q 781 432 813 453 q 708 411 749 411 q 670 417 689 411 q 637 433 651 422 q 613 458 622 443 q 604 494 604 474 q 604 758 604 626 q 604 1042 604 890 l 28 1042 m 626 1426 l 532 1142 l 853 1142 l 1089 1426 l 626 1426 z "},"Ŭ":{"ha":1417,"x_min":28,"x_max":1389,"o":"m 28 1042 q 28 899 28 972 q 28 753 28 826 q 28 606 28 679 q 28 494 28 550 q 28 385 28 438 q 65 231 28 300 q 169 112 103 163 q 322 26 235 61 q 508 -25 408 -8 q 708 -42 607 -42 q 958 -15 836 -42 q 1176 65 1079 11 q 1331 198 1274 118 q 1389 385 1389 278 q 1389 602 1389 490 q 1389 825 1389 714 q 1389 1042 1389 936 l 813 1042 q 813 894 813 965 q 813 757 813 824 q 813 625 813 690 q 813 493 813 560 q 781 432 813 453 q 708 411 749 411 q 670 417 689 411 q 637 433 651 422 q 613 458 622 443 q 604 494 604 474 q 604 758 604 626 q 604 1042 604 890 l 28 1042 m 289 1379 l 600 1379 q 612 1340 600 1356 q 647 1318 624 1325 q 700 1311 669 1311 q 753 1318 731 1311 q 788 1340 775 1325 q 801 1379 801 1356 l 1113 1379 q 1009 1194 1113 1257 q 700 1131 906 1131 q 392 1193 496 1131 q 289 1379 289 1256 z "},"Û":{"ha":1417,"x_min":28,"x_max":1389,"o":"m 28 1042 q 28 899 28 972 q 28 753 28 826 q 28 606 28 679 q 28 494 28 550 q 28 385 28 438 q 65 231 28 300 q 169 112 103 163 q 322 26 235 61 q 508 -25 408 -8 q 708 -42 607 -42 q 958 -15 836 -42 q 1176 65 1079 11 q 1331 198 1274 118 q 1389 385 1389 278 q 1389 602 1389 490 q 1389 825 1389 714 q 1389 1042 1389 936 l 813 1042 q 813 894 813 965 q 813 757 813 824 q 813 625 813 690 q 813 493 813 560 q 781 432 813 453 q 708 411 749 411 q 670 417 689 411 q 637 433 651 422 q 613 458 622 443 q 604 494 604 474 q 604 758 604 626 q 604 1042 604 890 l 28 1042 m 303 1142 l 464 1426 l 956 1426 l 1117 1142 l 778 1142 l 692 1303 l 713 1303 l 632 1142 l 303 1142 z "},"Ü":{"ha":1417,"x_min":28,"x_max":1389,"o":"m 28 1042 q 28 899 28 972 q 28 753 28 826 q 28 606 28 679 q 28 494 28 550 q 28 385 28 438 q 65 231 28 300 q 169 112 103 163 q 322 26 235 61 q 508 -25 408 -8 q 708 -42 607 -42 q 958 -15 836 -42 q 1176 65 1079 11 q 1331 198 1274 118 q 1389 385 1389 278 q 1389 602 1389 490 q 1389 825 1389 714 q 1389 1042 1389 936 l 813 1042 q 813 894 813 965 q 813 757 813 824 q 813 625 813 690 q 813 493 813 560 q 781 432 813 453 q 708 411 749 411 q 670 417 689 411 q 637 433 651 422 q 613 458 622 443 q 604 494 604 474 q 604 758 604 626 q 604 1042 604 890 l 28 1042 m 228 1142 q 226 1142 226 1142 q 226 1143 226 1142 l 226 1365 q 226 1367 226 1367 q 228 1367 226 1367 l 671 1367 q 672 1367 672 1367 q 672 1365 672 1367 l 672 1143 q 671 1142 672 1142 l 228 1142 m 729 1142 q 728 1142 728 1142 q 728 1143 728 1142 l 728 1365 q 729 1367 728 1367 l 1172 1367 q 1174 1367 1174 1367 q 1174 1365 1174 1367 l 1174 1143 q 1172 1142 1174 1142 l 729 1142 z "},"Ụ":{"ha":1417,"x_min":28,"x_max":1389,"o":"m 28 1042 q 28 899 28 972 q 28 753 28 826 q 28 606 28 679 q 28 494 28 550 q 28 385 28 438 q 65 231 28 300 q 169 112 103 163 q 322 26 235 61 q 508 -25 408 -8 q 708 -42 607 -42 q 958 -15 836 -42 q 1176 65 1079 11 q 1331 198 1274 118 q 1389 385 1389 278 q 1389 602 1389 490 q 1389 825 1389 714 q 1389 1042 1389 936 l 813 1042 q 813 894 813 965 q 813 757 813 824 q 813 625 813 690 q 813 493 813 560 q 781 432 813 453 q 708 411 749 411 q 670 417 689 411 q 637 433 651 422 q 613 458 622 443 q 604 494 604 474 q 604 758 604 626 q 604 1042 604 890 l 28 1042 m 463 -364 q 460 -363 461 -364 q 460 -361 460 -362 l 460 -82 q 463 -79 460 -79 l 938 -79 q 940 -80 939 -79 q 940 -82 940 -81 l 940 -361 q 938 -364 940 -364 l 463 -364 z "},"Ù":{"ha":1417,"x_min":28,"x_max":1389,"o":"m 28 1042 q 28 899 28 972 q 28 753 28 826 q 28 606 28 679 q 28 494 28 550 q 28 385 28 438 q 65 231 28 300 q 169 112 103 163 q 322 26 235 61 q 508 -25 408 -8 q 708 -42 607 -42 q 958 -15 836 -42 q 1176 65 1079 11 q 1331 198 1274 118 q 1389 385 1389 278 q 1389 602 1389 490 q 1389 825 1389 714 q 1389 1042 1389 936 l 813 1042 q 813 894 813 965 q 813 757 813 824 q 813 625 813 690 q 813 493 813 560 q 781 432 813 453 q 708 411 749 411 q 670 417 689 411 q 637 433 651 422 q 613 458 622 443 q 604 494 604 474 q 604 758 604 626 q 604 1042 604 890 l 28 1042 m 764 1426 l 301 1426 l 538 1142 l 858 1142 l 764 1426 z "},"Ű":{"ha":1417,"x_min":28,"x_max":1389,"o":"m 28 1042 q 28 899 28 972 q 28 753 28 826 q 28 606 28 679 q 28 494 28 550 q 28 385 28 438 q 65 231 28 300 q 169 112 103 163 q 322 26 235 61 q 508 -25 408 -8 q 708 -42 607 -42 q 958 -15 836 -42 q 1176 65 1079 11 q 1331 198 1274 118 q 1389 385 1389 278 q 1389 602 1389 490 q 1389 825 1389 714 q 1389 1042 1389 936 l 813 1042 q 813 894 813 965 q 813 757 813 824 q 813 625 813 690 q 813 493 813 560 q 781 432 813 453 q 708 411 749 411 q 670 417 689 411 q 637 433 651 422 q 613 458 622 443 q 604 494 604 474 q 604 758 604 626 q 604 1042 604 890 l 28 1042 m 415 1426 l 326 1142 l 633 1142 l 836 1426 l 415 1426 m 860 1426 l 771 1142 l 1078 1142 l 1281 1426 l 860 1426 z "},"Ū":{"ha":1417,"x_min":28,"x_max":1389,"o":"m 28 1042 q 28 899 28 972 q 28 753 28 826 q 28 606 28 679 q 28 494 28 550 q 28 385 28 438 q 65 231 28 300 q 169 112 103 163 q 322 26 235 61 q 508 -25 408 -8 q 708 -42 607 -42 q 958 -15 836 -42 q 1176 65 1079 11 q 1331 198 1274 118 q 1389 385 1389 278 q 1389 602 1389 490 q 1389 825 1389 714 q 1389 1042 1389 936 l 813 1042 q 813 894 813 965 q 813 757 813 824 q 813 625 813 690 q 813 493 813 560 q 781 432 813 453 q 708 411 749 411 q 670 417 689 411 q 637 433 651 422 q 613 458 622 443 q 604 494 604 474 q 604 758 604 626 q 604 1042 604 890 l 28 1042 m 350 1163 l 350 1381 l 1050 1381 l 1050 1163 l 350 1163 z "},"Ų":{"ha":1417,"x_min":28,"x_max":1389,"o":"m 833 -419 q 567 -358 656 -419 q 478 -186 478 -297 q 480 -156 478 -171 q 485 -128 482 -142 q 494 -101 489 -114 q 507 -76 500 -87 q 523 -52 514 -64 q 543 -31 532 -40 q 383 6 460 -18 q 242 65 307 29 q 129 147 178 100 q 54 253 81 194 q 28 385 28 313 q 28 519 28 450 q 28 657 28 589 q 28 852 28 756 q 28 1042 28 949 l 604 1042 q 604 758 604 890 q 604 494 604 626 q 613 458 604 474 q 637 433 622 443 q 670 417 651 422 q 708 411 689 411 q 781 432 749 411 q 813 493 813 453 q 813 625 813 560 q 813 757 813 690 q 813 894 813 824 q 813 1042 813 965 l 1389 1042 q 1389 825 1389 936 q 1389 602 1389 714 q 1389 385 1389 490 q 1353 233 1389 297 q 1263 124 1318 168 q 1149 51 1208 79 q 1044 10 1090 24 q 934 -24 976 -10 q 872 -53 892 -39 q 851 -89 851 -68 q 876 -124 851 -111 q 943 -137 900 -137 q 1001 -133 975 -137 q 1058 -115 1028 -128 l 1058 -387 q 950 -411 1001 -403 q 833 -419 899 -419 z "},"Ů":{"ha":1417,"x_min":28,"x_max":1389,"o":"m 28 1042 q 28 899 28 972 q 28 753 28 826 q 28 606 28 679 q 28 494 28 550 q 28 385 28 438 q 65 231 28 300 q 169 112 103 163 q 322 26 235 61 q 508 -25 408 -8 q 708 -42 607 -42 q 958 -15 836 -42 q 1176 65 1079 11 q 1331 198 1274 118 q 1389 385 1389 278 q 1389 602 1389 490 q 1389 825 1389 714 q 1389 1042 1389 936 l 813 1042 q 813 894 813 965 q 813 757 813 824 q 813 625 813 690 q 813 493 813 560 q 781 432 813 453 q 708 411 749 411 q 670 417 689 411 q 637 433 651 422 q 613 458 622 443 q 604 494 604 474 q 604 758 604 626 q 604 1042 604 890 l 28 1042 m 464 1296 q 494 1394 464 1356 q 578 1453 525 1433 q 700 1474 632 1474 q 795 1463 751 1474 q 871 1429 839 1451 q 920 1374 903 1407 q 938 1296 938 1340 q 907 1197 938 1238 q 823 1137 876 1157 q 700 1117 769 1117 q 606 1128 649 1117 q 531 1161 563 1139 q 481 1217 499 1183 q 464 1296 464 1251 m 764 1296 q 745 1333 764 1319 q 700 1346 726 1346 q 656 1333 674 1346 q 638 1296 638 1319 q 656 1258 638 1271 q 700 1244 674 1244 q 745 1258 726 1244 q 764 1296 764 1271 z "},"Ũ":{"ha":1417,"x_min":28,"x_max":1389,"o":"m 28 1042 q 28 899 28 972 q 28 753 28 826 q 28 606 28 679 q 28 494 28 550 q 28 385 28 438 q 65 231 28 300 q 169 112 103 163 q 322 26 235 61 q 508 -25 408 -8 q 708 -42 607 -42 q 958 -15 836 -42 q 1176 65 1079 11 q 1331 198 1274 118 q 1389 385 1389 278 q 1389 602 1389 490 q 1389 825 1389 714 q 1389 1042 1389 936 l 813 1042 q 813 894 813 965 q 813 757 813 824 q 813 625 813 690 q 813 493 813 560 q 781 432 813 453 q 708 411 749 411 q 670 417 689 411 q 637 433 651 422 q 613 458 622 443 q 604 494 604 474 q 604 758 604 626 q 604 1042 604 890 l 28 1042 m 315 1133 l 546 1133 q 546 1184 535 1169 q 578 1199 557 1199 q 622 1188 597 1199 q 678 1163 647 1176 q 748 1138 710 1149 q 829 1126 786 1126 q 931 1142 881 1126 q 1022 1193 982 1158 q 1080 1285 1061 1228 q 1085 1426 1099 1343 l 856 1426 q 854 1374 865 1389 q 819 1360 843 1360 q 777 1371 801 1360 q 722 1397 753 1382 q 653 1422 690 1411 q 572 1433 617 1433 q 431 1404 496 1433 q 331 1310 365 1375 q 315 1133 297 1244 z "},"V":{"ha":1428,"x_min":0,"x_max":1428,"o":"m 1428 1042 q 1366 833 1397 938 q 1303 625 1335 729 q 1241 417 1272 521 q 1178 208 1210 313 q 1115 0 1147 104 l 311 0 q 208 347 260 174 q 104 694 156 521 q 0 1042 53 868 l 619 1042 q 637 934 628 988 q 654 826 646 881 q 671 718 663 772 q 688 610 679 664 q 705 502 696 556 q 722 394 714 449 q 724 394 724 394 q 724 394 724 394 q 725 394 725 394 q 740 487 732 440 q 754 579 747 533 q 769 672 761 625 q 784 765 776 718 q 799 857 792 811 q 813 949 806 903 q 828 1042 821 996 l 1428 1042 z "},"W":{"ha":1922,"x_min":6,"x_max":1917,"o":"m 1354 1042 l 1917 1042 q 1856 781 1886 911 q 1796 521 1826 651 q 1735 260 1765 390 q 1676 0 1706 131 l 1031 0 l 947 522 q 947 524 947 524 q 946 525 946 525 q 945 525 946 525 q 944 524 944 525 q 943 522 943 524 l 861 0 l 258 0 q 208 208 233 104 q 158 417 183 313 q 107 625 132 521 q 56 833 82 729 q 6 1042 31 938 l 597 1042 q 619 899 608 971 q 640 757 629 828 q 661 615 650 686 q 682 472 672 543 q 683 472 682 472 q 686 472 685 472 q 688 472 688 472 q 689 472 689 472 l 767 1042 l 1185 1042 l 1267 472 q 1267 472 1267 472 q 1267 472 1267 472 q 1268 472 1268 472 q 1269 472 1268 472 q 1269 472 1269 472 q 1269 472 1269 472 q 1312 757 1290 615 q 1354 1042 1333 899 z "},"Ẃ":{"ha":1922,"x_min":6,"x_max":1917,"o":"m 1354 1042 l 1917 1042 q 1856 781 1886 911 q 1796 521 1826 651 q 1735 260 1765 390 q 1676 0 1706 131 l 1031 0 l 947 522 q 947 524 947 524 q 946 525 946 525 q 945 525 946 525 q 944 524 944 525 q 943 522 943 524 l 861 0 l 258 0 q 208 208 233 104 q 158 417 183 313 q 107 625 132 521 q 56 833 82 729 q 6 1042 31 938 l 597 1042 q 619 899 608 971 q 640 757 629 828 q 661 615 650 686 q 682 472 672 543 q 683 472 682 472 q 686 472 685 472 q 688 472 688 472 q 689 472 689 472 l 767 1042 l 1185 1042 l 1267 472 q 1267 472 1267 472 q 1267 472 1267 472 q 1268 472 1268 472 q 1269 472 1268 472 q 1269 472 1269 472 q 1269 472 1269 472 q 1312 757 1290 615 q 1354 1042 1333 899 m 888 1426 l 793 1142 l 1114 1142 l 1350 1426 l 888 1426 z "},"Ŵ":{"ha":1922,"x_min":6,"x_max":1917,"o":"m 1354 1042 l 1917 1042 q 1856 781 1886 911 q 1796 521 1826 651 q 1735 260 1765 390 q 1676 0 1706 131 l 1031 0 l 947 522 q 947 524 947 524 q 946 525 946 525 q 945 525 946 525 q 944 524 944 525 q 943 522 943 524 l 861 0 l 258 0 q 208 208 233 104 q 158 417 183 313 q 107 625 132 521 q 56 833 82 729 q 6 1042 31 938 l 597 1042 q 619 899 608 971 q 640 757 629 828 q 661 615 650 686 q 682 472 672 543 q 683 472 682 472 q 686 472 685 472 q 688 472 688 472 q 689 472 689 472 l 767 1042 l 1185 1042 l 1267 472 q 1267 472 1267 472 q 1267 472 1267 472 q 1268 472 1268 472 q 1269 472 1268 472 q 1269 472 1269 472 q 1269 472 1269 472 q 1312 757 1290 615 q 1354 1042 1333 899 m 564 1142 l 725 1426 l 1217 1426 l 1378 1142 l 1039 1142 l 953 1303 l 974 1303 l 893 1142 l 564 1142 z "},"Ẅ":{"ha":1922,"x_min":6,"x_max":1917,"o":"m 1354 1042 l 1917 1042 q 1856 781 1886 911 q 1796 521 1826 651 q 1735 260 1765 390 q 1676 0 1706 131 l 1031 0 l 947 522 q 947 524 947 524 q 946 525 946 525 q 945 525 946 525 q 944 524 944 525 q 943 522 943 524 l 861 0 l 258 0 q 208 208 233 104 q 158 417 183 313 q 107 625 132 521 q 56 833 82 729 q 6 1042 31 938 l 597 1042 q 619 899 608 971 q 640 757 629 828 q 661 615 650 686 q 682 472 672 543 q 683 472 682 472 q 686 472 685 472 q 688 472 688 472 q 689 472 689 472 l 767 1042 l 1185 1042 l 1267 472 q 1267 472 1267 472 q 1267 472 1267 472 q 1268 472 1268 472 q 1269 472 1268 472 q 1269 472 1269 472 q 1269 472 1269 472 q 1312 757 1290 615 q 1354 1042 1333 899 m 489 1142 q 488 1142 488 1142 q 488 1143 488 1142 l 488 1365 q 488 1367 488 1367 q 489 1367 488 1367 l 932 1367 q 933 1367 933 1367 q 933 1365 933 1367 l 933 1143 q 932 1142 933 1142 l 489 1142 m 990 1142 q 989 1142 989 1142 q 989 1143 989 1142 l 989 1365 q 990 1367 989 1367 l 1433 1367 q 1435 1367 1435 1367 q 1435 1365 1435 1367 l 1435 1143 q 1433 1142 1435 1142 l 990 1142 z "},"Ẁ":{"ha":1922,"x_min":6,"x_max":1917,"o":"m 1354 1042 l 1917 1042 q 1856 781 1886 911 q 1796 521 1826 651 q 1735 260 1765 390 q 1676 0 1706 131 l 1031 0 l 947 522 q 947 524 947 524 q 946 525 946 525 q 945 525 946 525 q 944 524 944 525 q 943 522 943 524 l 861 0 l 258 0 q 208 208 233 104 q 158 417 183 313 q 107 625 132 521 q 56 833 82 729 q 6 1042 31 938 l 597 1042 q 619 899 608 971 q 640 757 629 828 q 661 615 650 686 q 682 472 672 543 q 683 472 682 472 q 686 472 685 472 q 688 472 688 472 q 689 472 689 472 l 767 1042 l 1185 1042 l 1267 472 q 1267 472 1267 472 q 1267 472 1267 472 q 1268 472 1268 472 q 1269 472 1268 472 q 1269 472 1269 472 q 1269 472 1269 472 q 1312 757 1290 615 q 1354 1042 1333 899 m 1025 1426 l 563 1426 l 799 1142 l 1119 1142 l 1025 1426 z "},"X":{"ha":1417,"x_min":6,"x_max":1411,"o":"m 728 521 q 728 519 728 521 q 727 517 728 518 q 726 515 726 517 l 610 0 l 6 0 q 74 177 42 89 q 140 354 107 265 q 208 531 172 443 q 208 531 208 531 q 208 532 208 532 q 208 533 208 532 q 208 533 208 533 q 107 788 154 661 q 6 1042 60 915 l 631 1042 l 726 528 q 727 525 726 526 q 728 521 728 524 m 683 447 q 684 449 683 449 q 685 451 685 450 q 685 453 685 453 q 725 649 706 551 q 765 846 744 747 q 804 1042 785 944 l 1407 1042 q 1310 776 1356 910 q 1211 511 1264 643 q 1211 510 1211 511 q 1211 510 1211 510 q 1211 508 1211 510 q 1252 406 1232 457 q 1292 305 1272 356 q 1331 203 1311 254 q 1370 102 1350 153 q 1411 0 1390 51 l 783 0 l 685 442 q 685 444 685 443 q 684 446 685 444 q 683 447 683 447 z "},"Y":{"ha":1513,"x_min":-3,"x_max":1515,"o":"m 885 1042 l 1515 1042 q 1363 764 1439 903 q 1209 486 1286 625 q 1056 208 1132 347 q 1056 208 1056 208 q 1056 208 1056 208 l 1056 0 l 479 0 l 479 210 q 479 210 479 210 q 479 210 479 210 q 383 376 431 293 q 287 543 335 460 q 190 709 239 626 q 94 875 142 792 q -3 1042 46 958 l 664 1042 q 699 908 682 975 q 735 775 717 842 q 769 642 753 708 q 770 641 769 642 q 771 640 771 640 q 772 641 771 640 q 772 642 772 642 q 800 742 786 692 q 828 842 814 792 q 857 942 843 892 q 885 1042 871 992 z "},"Ý":{"ha":1513,"x_min":-3,"x_max":1515,"o":"m 885 1042 l 1515 1042 q 1363 764 1439 903 q 1209 486 1286 625 q 1056 208 1132 347 q 1056 208 1056 208 q 1056 208 1056 208 l 1056 0 l 479 0 l 479 210 q 479 210 479 210 q 479 210 479 210 q 383 376 431 293 q 287 543 335 460 q 190 709 239 626 q 94 875 142 792 q -3 1042 46 958 l 664 1042 q 699 908 682 975 q 735 775 717 842 q 769 642 753 708 q 770 641 769 642 q 771 640 771 640 q 772 641 771 640 q 772 642 772 642 q 800 742 786 692 q 828 842 814 792 q 857 942 843 892 q 885 1042 871 992 m 700 1426 l 606 1142 l 926 1142 l 1163 1426 l 700 1426 z "},"Ŷ":{"ha":1513,"x_min":-3,"x_max":1515,"o":"m 885 1042 l 1515 1042 q 1363 764 1439 903 q 1209 486 1286 625 q 1056 208 1132 347 q 1056 208 1056 208 q 1056 208 1056 208 l 1056 0 l 479 0 l 479 210 q 479 210 479 210 q 479 210 479 210 q 383 376 431 293 q 287 543 335 460 q 190 709 239 626 q 94 875 142 792 q -3 1042 46 958 l 664 1042 q 699 908 682 975 q 735 775 717 842 q 769 642 753 708 q 770 641 769 642 q 771 640 771 640 q 772 641 771 640 q 772 642 772 642 q 800 742 786 692 q 828 842 814 792 q 857 942 843 892 q 885 1042 871 992 m 376 1142 l 538 1426 l 1029 1426 l 1190 1142 l 851 1142 l 765 1303 l 786 1303 l 706 1142 l 376 1142 z "},"Ÿ":{"ha":1513,"x_min":-3,"x_max":1515,"o":"m 885 1042 l 1515 1042 q 1363 764 1439 903 q 1209 486 1286 625 q 1056 208 1132 347 q 1056 208 1056 208 q 1056 208 1056 208 l 1056 0 l 479 0 l 479 210 q 479 210 479 210 q 479 210 479 210 q 383 376 431 293 q 287 543 335 460 q 190 709 239 626 q 94 875 142 792 q -3 1042 46 958 l 664 1042 q 699 908 682 975 q 735 775 717 842 q 769 642 753 708 q 770 641 769 642 q 771 640 771 640 q 772 641 771 640 q 772 642 772 642 q 800 742 786 692 q 828 842 814 792 q 857 942 843 892 q 885 1042 871 992 m 301 1142 q 300 1142 300 1142 q 300 1143 300 1142 l 300 1365 q 300 1367 300 1367 q 301 1367 300 1367 l 744 1367 q 746 1367 746 1367 q 746 1365 746 1367 l 746 1143 q 744 1142 746 1142 l 301 1142 m 803 1142 q 801 1142 801 1142 q 801 1143 801 1142 l 801 1365 q 803 1367 801 1367 l 1246 1367 q 1247 1367 1247 1367 q 1247 1365 1247 1367 l 1247 1143 q 1246 1142 1247 1142 l 803 1142 z "},"Ỳ":{"ha":1513,"x_min":-3,"x_max":1515,"o":"m 885 1042 l 1515 1042 q 1363 764 1439 903 q 1209 486 1286 625 q 1056 208 1132 347 q 1056 208 1056 208 q 1056 208 1056 208 l 1056 0 l 479 0 l 479 210 q 479 210 479 210 q 479 210 479 210 q 383 376 431 293 q 287 543 335 460 q 190 709 239 626 q 94 875 142 792 q -3 1042 46 958 l 664 1042 q 699 908 682 975 q 735 775 717 842 q 769 642 753 708 q 770 641 769 642 q 771 640 771 640 q 772 641 771 640 q 772 642 772 642 q 800 742 786 692 q 828 842 814 792 q 857 942 843 892 q 885 1042 871 992 m 838 1426 l 375 1426 l 611 1142 l 932 1142 l 838 1426 z "},"Ƴ":{"ha":1513,"x_min":-3,"x_max":1472,"o":"m 479 0 l 479 210 q 479 210 479 210 q 479 210 479 210 q 383 376 431 293 q 287 543 335 460 q 190 709 239 626 q 94 875 142 792 q -3 1042 46 958 l 664 1042 q 699 908 682 975 q 735 775 717 842 q 769 642 753 708 q 770 641 769 642 q 771 640 771 640 q 772 641 771 640 q 772 642 772 642 q 813 767 793 706 q 851 885 833 829 q 924 994 875 951 q 1040 1058 972 1038 q 1189 1078 1108 1078 q 1357 1067 1286 1078 q 1472 1042 1428 1056 l 1472 711 q 1386 720 1421 728 q 1328 687 1351 713 q 1286 624 1306 661 q 1227 516 1264 582 q 1146 371 1190 450 q 1056 208 1101 292 q 1056 208 1056 208 q 1056 208 1056 208 l 1056 0 l 479 0 z "},"Ȳ":{"ha":1513,"x_min":-3,"x_max":1515,"o":"m 885 1042 l 1515 1042 q 1363 764 1439 903 q 1209 486 1286 625 q 1056 208 1132 347 q 1056 208 1056 208 q 1056 208 1056 208 l 1056 0 l 479 0 l 479 210 q 479 210 479 210 q 479 210 479 210 q 383 376 431 293 q 287 543 335 460 q 190 709 239 626 q 94 875 142 792 q -3 1042 46 958 l 664 1042 q 699 908 682 975 q 735 775 717 842 q 769 642 753 708 q 770 641 769 642 q 771 640 771 640 q 772 641 771 640 q 772 642 772 642 q 800 742 786 692 q 828 842 814 792 q 857 942 843 892 q 885 1042 871 992 m 424 1163 l 424 1381 l 1124 1381 l 1124 1163 l 424 1163 z "},"Ỹ":{"ha":1513,"x_min":-3,"x_max":1515,"o":"m 885 1042 l 1515 1042 q 1363 764 1439 903 q 1209 486 1286 625 q 1056 208 1132 347 q 1056 208 1056 208 q 1056 208 1056 208 l 1056 0 l 479 0 l 479 210 q 479 210 479 210 q 479 210 479 210 q 383 376 431 293 q 287 543 335 460 q 190 709 239 626 q 94 875 142 792 q -3 1042 46 958 l 664 1042 q 699 908 682 975 q 735 775 717 842 q 769 642 753 708 q 770 641 769 642 q 771 640 771 640 q 772 641 771 640 q 772 642 772 642 q 800 742 786 692 q 828 842 814 792 q 857 942 843 892 q 885 1042 871 992 m 389 1133 l 619 1133 q 619 1184 608 1169 q 651 1199 631 1199 q 696 1188 671 1199 q 752 1163 721 1176 q 822 1138 783 1149 q 903 1126 860 1126 q 1005 1142 954 1126 q 1095 1193 1056 1158 q 1153 1285 1135 1228 q 1158 1426 1172 1343 l 929 1426 q 928 1374 939 1389 q 893 1360 917 1360 q 851 1371 875 1360 q 795 1397 826 1382 q 727 1422 764 1411 q 646 1433 690 1433 q 504 1404 569 1433 q 405 1310 439 1375 q 389 1133 371 1244 z "},"Z":{"ha":1253,"x_min":-18,"x_max":1264,"o":"m 1264 1042 l 825 417 q 825 416 825 417 q 826 415 825 415 q 826 415 826 415 l 1231 415 l 1231 0 l -18 0 l 464 626 q 464 627 464 626 q 464 628 464 628 q 463 628 464 628 l 22 628 l 22 1042 l 1264 1042 z "},"Ź":{"ha":1253,"x_min":-18,"x_max":1264,"o":"m 1264 1042 l 825 417 q 825 416 825 417 q 826 415 825 415 q 826 415 826 415 l 1231 415 l 1231 0 l -18 0 l 464 626 q 464 627 464 626 q 464 628 464 628 q 463 628 464 628 l 22 628 l 22 1042 l 1264 1042 m 547 1426 l 453 1142 l 774 1142 l 1010 1426 l 547 1426 z "},"Ž":{"ha":1253,"x_min":-18,"x_max":1264,"o":"m 1264 1042 l 825 417 q 825 416 825 417 q 826 415 825 415 q 826 415 826 415 l 1231 415 l 1231 0 l -18 0 l 464 626 q 464 627 464 626 q 464 628 464 628 q 463 628 464 628 l 22 628 l 22 1042 l 1264 1042 m 1022 1426 l 861 1142 l 369 1142 l 208 1426 l 547 1426 l 633 1265 l 613 1265 l 693 1426 l 1022 1426 z "},"Ż":{"ha":1253,"x_min":-18,"x_max":1264,"o":"m 1264 1042 l 825 417 q 825 416 825 417 q 826 415 825 415 q 826 415 826 415 l 1231 415 l 1231 0 l -18 0 l 464 626 q 464 627 464 626 q 464 628 464 628 q 463 628 464 628 l 22 628 l 22 1042 l 1264 1042 m 383 1142 q 381 1142 382 1142 q 381 1144 381 1143 l 381 1424 q 383 1426 381 1426 l 858 1426 q 860 1426 860 1426 q 861 1424 861 1425 l 861 1144 q 858 1142 861 1142 l 383 1142 z "},"a":{"ha":1185,"x_min":4,"x_max":1158,"o":"m 96 811 l 96 479 q 242 540 158 519 q 407 561 325 561 q 508 551 460 561 q 592 522 556 542 q 651 470 629 501 q 672 396 672 439 q 672 392 672 394 q 672 388 672 390 q 672 383 672 386 q 619 433 651 411 q 545 471 586 456 q 458 494 504 486 q 364 501 413 501 q 231 487 289 501 q 130 446 172 472 q 60 385 88 419 q 18 311 32 350 q 4 232 4 272 q 32 115 4 165 q 108 32 60 65 q 216 -19 156 -1 q 342 -36 276 -36 q 451 -26 396 -36 q 556 10 506 -15 q 615 146 585 78 q 674 282 644 214 q 625 232 657 242 q 568 222 593 222 q 489 244 517 222 q 461 292 461 265 q 488 339 461 318 q 568 360 515 360 q 615 353 592 360 q 656 332 639 347 q 672 292 672 317 q 672 147 672 219 q 672 0 672 74 q 769 0 721 0 q 867 0 818 0 q 964 0 915 0 q 1061 0 1013 0 q 1158 0 1110 0 q 1158 269 1158 135 q 1158 539 1158 404 q 1108 699 1158 631 q 973 813 1058 767 q 779 881 888 858 q 554 903 671 903 q 316 880 435 903 q 96 811 197 857 z "},"á":{"ha":1185,"x_min":4,"x_max":1158,"o":"m 96 811 l 96 479 q 242 540 158 519 q 407 561 325 561 q 508 551 460 561 q 592 522 556 542 q 651 470 629 501 q 672 396 672 439 q 672 392 672 394 q 672 388 672 390 q 672 383 672 386 q 619 433 651 411 q 545 471 586 456 q 458 494 504 486 q 364 501 413 501 q 231 487 289 501 q 130 446 172 472 q 60 385 88 419 q 18 311 32 350 q 4 232 4 272 q 32 115 4 165 q 108 32 60 65 q 216 -19 156 -1 q 342 -36 276 -36 q 451 -26 396 -36 q 556 10 506 -15 q 615 146 585 78 q 674 282 644 214 q 625 232 657 242 q 568 222 593 222 q 489 244 517 222 q 461 292 461 265 q 488 339 461 318 q 568 360 515 360 q 615 353 592 360 q 656 332 639 347 q 672 292 672 317 q 672 147 672 219 q 672 0 672 74 q 769 0 721 0 q 867 0 818 0 q 964 0 915 0 q 1061 0 1013 0 q 1158 0 1110 0 q 1158 269 1158 135 q 1158 539 1158 404 q 1108 699 1158 631 q 973 813 1058 767 q 779 881 888 858 q 554 903 671 903 q 316 880 435 903 q 96 811 197 857 m 506 1246 l 411 961 l 732 961 l 968 1246 l 506 1246 z "},"ă":{"ha":1185,"x_min":4,"x_max":1158,"o":"m 96 811 l 96 479 q 242 540 158 519 q 407 561 325 561 q 508 551 460 561 q 592 522 556 542 q 651 470 629 501 q 672 396 672 439 q 672 392 672 394 q 672 388 672 390 q 672 383 672 386 q 619 433 651 411 q 545 471 586 456 q 458 494 504 486 q 364 501 413 501 q 231 487 289 501 q 130 446 172 472 q 60 385 88 419 q 18 311 32 350 q 4 232 4 272 q 32 115 4 165 q 108 32 60 65 q 216 -19 156 -1 q 342 -36 276 -36 q 451 -26 396 -36 q 556 10 506 -15 q 615 146 585 78 q 674 282 644 214 q 625 232 657 242 q 568 222 593 222 q 489 244 517 222 q 461 292 461 265 q 488 339 461 318 q 568 360 515 360 q 615 353 592 360 q 656 332 639 347 q 672 292 672 317 q 672 147 672 219 q 672 0 672 74 q 769 0 721 0 q 867 0 818 0 q 964 0 915 0 q 1061 0 1013 0 q 1158 0 1110 0 q 1158 269 1158 135 q 1158 539 1158 404 q 1108 699 1158 631 q 973 813 1058 767 q 779 881 888 858 q 554 903 671 903 q 316 880 435 903 q 96 811 197 857 m 182 1199 l 493 1199 q 505 1160 493 1175 q 540 1138 517 1144 q 593 1131 563 1131 q 646 1138 624 1131 q 681 1160 668 1144 q 694 1199 694 1175 l 1006 1199 q 902 1013 1006 1076 q 593 950 799 950 q 285 1013 389 950 q 182 1199 182 1075 z "},"ǎ":{"ha":1185,"x_min":4,"x_max":1158,"o":"m 96 811 l 96 479 q 242 540 158 519 q 407 561 325 561 q 508 551 460 561 q 592 522 556 542 q 651 470 629 501 q 672 396 672 439 q 672 392 672 394 q 672 388 672 390 q 672 383 672 386 q 619 433 651 411 q 545 471 586 456 q 458 494 504 486 q 364 501 413 501 q 231 487 289 501 q 130 446 172 472 q 60 385 88 419 q 18 311 32 350 q 4 232 4 272 q 32 115 4 165 q 108 32 60 65 q 216 -19 156 -1 q 342 -36 276 -36 q 451 -26 396 -36 q 556 10 506 -15 q 615 146 585 78 q 674 282 644 214 q 625 232 657 242 q 568 222 593 222 q 489 244 517 222 q 461 292 461 265 q 488 339 461 318 q 568 360 515 360 q 615 353 592 360 q 656 332 639 347 q 672 292 672 317 q 672 147 672 219 q 672 0 672 74 q 769 0 721 0 q 867 0 818 0 q 964 0 915 0 q 1061 0 1013 0 q 1158 0 1110 0 q 1158 269 1158 135 q 1158 539 1158 404 q 1108 699 1158 631 q 973 813 1058 767 q 779 881 888 858 q 554 903 671 903 q 316 880 435 903 q 96 811 197 857 m 996 1246 l 835 961 l 343 961 l 182 1246 l 521 1246 l 607 1085 l 586 1085 l 667 1246 l 996 1246 z "},"â":{"ha":1185,"x_min":4,"x_max":1158,"o":"m 96 811 l 96 479 q 242 540 158 519 q 407 561 325 561 q 508 551 460 561 q 592 522 556 542 q 651 470 629 501 q 672 396 672 439 q 672 392 672 394 q 672 388 672 390 q 672 383 672 386 q 619 433 651 411 q 545 471 586 456 q 458 494 504 486 q 364 501 413 501 q 231 487 289 501 q 130 446 172 472 q 60 385 88 419 q 18 311 32 350 q 4 232 4 272 q 32 115 4 165 q 108 32 60 65 q 216 -19 156 -1 q 342 -36 276 -36 q 451 -26 396 -36 q 556 10 506 -15 q 615 146 585 78 q 674 282 644 214 q 625 232 657 242 q 568 222 593 222 q 489 244 517 222 q 461 292 461 265 q 488 339 461 318 q 568 360 515 360 q 615 353 592 360 q 656 332 639 347 q 672 292 672 317 q 672 147 672 219 q 672 0 672 74 q 769 0 721 0 q 867 0 818 0 q 964 0 915 0 q 1061 0 1013 0 q 1158 0 1110 0 q 1158 269 1158 135 q 1158 539 1158 404 q 1108 699 1158 631 q 973 813 1058 767 q 779 881 888 858 q 554 903 671 903 q 316 880 435 903 q 96 811 197 857 m 197 961 l 358 1246 l 850 1246 l 1011 961 l 672 961 l 586 1122 l 607 1122 l 526 961 l 197 961 z "},"ä":{"ha":1185,"x_min":4,"x_max":1158,"o":"m 96 811 l 96 479 q 242 540 158 519 q 407 561 325 561 q 508 551 460 561 q 592 522 556 542 q 651 470 629 501 q 672 396 672 439 q 672 392 672 394 q 672 388 672 390 q 672 383 672 386 q 619 433 651 411 q 545 471 586 456 q 458 494 504 486 q 364 501 413 501 q 231 487 289 501 q 130 446 172 472 q 60 385 88 419 q 18 311 32 350 q 4 232 4 272 q 32 115 4 165 q 108 32 60 65 q 216 -19 156 -1 q 342 -36 276 -36 q 451 -26 396 -36 q 556 10 506 -15 q 615 146 585 78 q 674 282 644 214 q 625 232 657 242 q 568 222 593 222 q 489 244 517 222 q 461 292 461 265 q 488 339 461 318 q 568 360 515 360 q 615 353 592 360 q 656 332 639 347 q 672 292 672 317 q 672 147 672 219 q 672 0 672 74 q 769 0 721 0 q 867 0 818 0 q 964 0 915 0 q 1061 0 1013 0 q 1158 0 1110 0 q 1158 269 1158 135 q 1158 539 1158 404 q 1108 699 1158 631 q 973 813 1058 767 q 779 881 888 858 q 554 903 671 903 q 316 880 435 903 q 96 811 197 857 m 121 961 q 119 961 119 961 q 119 963 119 961 l 119 1185 q 119 1186 119 1186 q 121 1186 119 1186 l 564 1186 q 565 1185 565 1186 l 565 963 q 565 961 565 961 q 564 961 565 961 l 121 961 m 622 961 q 621 961 621 961 q 621 963 621 961 l 621 1185 q 622 1186 621 1186 l 1065 1186 q 1067 1186 1067 1186 q 1067 1185 1067 1186 l 1067 963 q 1065 961 1067 961 l 622 961 z "},"ạ":{"ha":1185,"x_min":4,"x_max":1158,"o":"m 96 811 l 96 479 q 242 540 158 519 q 407 561 325 561 q 508 551 460 561 q 592 522 556 542 q 651 470 629 501 q 672 396 672 439 q 672 392 672 394 q 672 388 672 390 q 672 383 672 386 q 619 433 651 411 q 545 471 586 456 q 458 494 504 486 q 364 501 413 501 q 231 487 289 501 q 130 446 172 472 q 60 385 88 419 q 18 311 32 350 q 4 232 4 272 q 32 115 4 165 q 108 32 60 65 q 216 -19 156 -1 q 342 -36 276 -36 q 451 -26 396 -36 q 556 10 506 -15 q 615 146 585 78 q 674 282 644 214 q 625 232 657 242 q 568 222 593 222 q 489 244 517 222 q 461 292 461 265 q 488 339 461 318 q 568 360 515 360 q 615 353 592 360 q 656 332 639 347 q 672 292 672 317 q 672 147 672 219 q 672 0 672 74 q 769 0 721 0 q 867 0 818 0 q 964 0 915 0 q 1061 0 1013 0 q 1158 0 1110 0 q 1158 269 1158 135 q 1158 539 1158 404 q 1108 699 1158 631 q 973 813 1058 767 q 779 881 888 858 q 554 903 671 903 q 316 880 435 903 q 96 811 197 857 m 356 -364 q 353 -363 354 -364 q 353 -361 353 -362 l 353 -82 q 356 -79 353 -79 l 831 -79 q 833 -80 832 -79 q 833 -82 833 -81 l 833 -361 q 831 -364 833 -364 l 356 -364 z "},"à":{"ha":1185,"x_min":4,"x_max":1158,"o":"m 96 811 l 96 479 q 242 540 158 519 q 407 561 325 561 q 508 551 460 561 q 592 522 556 542 q 651 470 629 501 q 672 396 672 439 q 672 392 672 394 q 672 388 672 390 q 672 383 672 386 q 619 433 651 411 q 545 471 586 456 q 458 494 504 486 q 364 501 413 501 q 231 487 289 501 q 130 446 172 472 q 60 385 88 419 q 18 311 32 350 q 4 232 4 272 q 32 115 4 165 q 108 32 60 65 q 216 -19 156 -1 q 342 -36 276 -36 q 451 -26 396 -36 q 556 10 506 -15 q 615 146 585 78 q 674 282 644 214 q 625 232 657 242 q 568 222 593 222 q 489 244 517 222 q 461 292 461 265 q 488 339 461 318 q 568 360 515 360 q 615 353 592 360 q 656 332 639 347 q 672 292 672 317 q 672 147 672 219 q 672 0 672 74 q 769 0 721 0 q 867 0 818 0 q 964 0 915 0 q 1061 0 1013 0 q 1158 0 1110 0 q 1158 269 1158 135 q 1158 539 1158 404 q 1108 699 1158 631 q 973 813 1058 767 q 779 881 888 858 q 554 903 671 903 q 316 880 435 903 q 96 811 197 857 m 447 961 l 211 1246 l 674 1246 l 768 961 l 447 961 z "},"ā":{"ha":1185,"x_min":4,"x_max":1158,"o":"m 96 811 l 96 479 q 242 540 158 519 q 407 561 325 561 q 508 551 460 561 q 592 522 556 542 q 651 470 629 501 q 672 396 672 439 q 672 392 672 394 q 672 388 672 390 q 672 383 672 386 q 619 433 651 411 q 545 471 586 456 q 458 494 504 486 q 364 501 413 501 q 231 487 289 501 q 130 446 172 472 q 60 385 88 419 q 18 311 32 350 q 4 232 4 272 q 32 115 4 165 q 108 32 60 65 q 216 -19 156 -1 q 342 -36 276 -36 q 451 -26 396 -36 q 556 10 506 -15 q 615 146 585 78 q 674 282 644 214 q 625 232 657 242 q 568 222 593 222 q 489 244 517 222 q 461 292 461 265 q 488 339 461 318 q 568 360 515 360 q 615 353 592 360 q 656 332 639 347 q 672 292 672 317 q 672 147 672 219 q 672 0 672 74 q 769 0 721 0 q 867 0 818 0 q 964 0 915 0 q 1061 0 1013 0 q 1158 0 1110 0 q 1158 269 1158 135 q 1158 539 1158 404 q 1108 699 1158 631 q 973 813 1058 767 q 779 881 888 858 q 554 903 671 903 q 316 880 435 903 q 96 811 197 857 m 243 983 l 243 1201 l 943 1201 l 943 983 l 243 983 z "},"ą":{"ha":1185,"x_min":4,"x_max":1158,"o":"m 933 -428 q 667 -367 756 -428 q 578 -194 578 -306 q 581 -157 578 -175 q 588 -122 583 -139 q 601 -87 593 -104 q 620 -56 610 -71 q 644 -27 631 -42 q 672 0 657 -12 q 672 147 672 74 q 672 292 672 219 q 656 332 672 317 q 615 353 639 347 q 568 360 592 360 q 488 339 515 360 q 461 292 461 318 q 489 244 461 265 q 568 222 517 222 q 625 232 593 222 q 674 282 657 242 q 615 146 644 214 q 556 10 585 78 q 451 -26 506 -15 q 342 -36 396 -36 q 216 -19 276 -36 q 108 32 156 -1 q 32 115 60 65 q 4 232 4 165 q 18 311 4 272 q 60 385 32 350 q 130 446 88 419 q 231 487 172 472 q 364 501 289 501 q 458 494 413 501 q 545 471 504 486 q 619 433 586 456 q 672 383 651 411 q 672 388 672 386 q 672 392 672 390 q 672 396 672 394 q 651 470 672 439 q 592 522 629 501 q 508 551 556 542 q 407 561 460 561 q 242 540 325 561 q 96 479 158 519 l 96 811 q 316 880 197 857 q 554 903 435 903 q 779 881 671 903 q 973 813 888 858 q 1108 699 1058 767 q 1158 539 1158 631 q 1158 269 1158 404 q 1158 0 1158 135 q 1031 -19 1076 -3 q 969 -57 986 -36 q 951 -97 951 -78 q 962 -124 951 -112 q 993 -140 972 -135 q 1043 -146 1014 -146 q 1101 -141 1075 -146 q 1158 -124 1128 -136 l 1158 -396 q 1050 -419 1101 -411 q 933 -428 999 -428 z "},"å":{"ha":1185,"x_min":4,"x_max":1158,"o":"m 96 811 l 96 479 q 242 540 158 519 q 407 561 325 561 q 508 551 460 561 q 592 522 556 542 q 651 470 629 501 q 672 396 672 439 q 672 392 672 394 q 672 388 672 390 q 672 383 672 386 q 619 433 651 411 q 545 471 586 456 q 458 494 504 486 q 364 501 413 501 q 231 487 289 501 q 130 446 172 472 q 60 385 88 419 q 18 311 32 350 q 4 232 4 272 q 32 115 4 165 q 108 32 60 65 q 216 -19 156 -1 q 342 -36 276 -36 q 451 -26 396 -36 q 556 10 506 -15 q 615 146 585 78 q 674 282 644 214 q 625 232 657 242 q 568 222 593 222 q 489 244 517 222 q 461 292 461 265 q 488 339 461 318 q 568 360 515 360 q 615 353 592 360 q 656 332 639 347 q 672 292 672 317 q 672 147 672 219 q 672 0 672 74 q 769 0 721 0 q 867 0 818 0 q 964 0 915 0 q 1061 0 1013 0 q 1158 0 1110 0 q 1158 269 1158 135 q 1158 539 1158 404 q 1108 699 1158 631 q 973 813 1058 767 q 779 881 888 858 q 554 903 671 903 q 316 880 435 903 q 96 811 197 857 m 356 1129 q 386 1228 356 1189 q 470 1287 417 1267 q 592 1307 524 1307 q 597 1307 594 1307 q 603 1307 600 1307 q 720 1287 669 1307 q 800 1227 771 1267 q 829 1129 829 1188 q 762 995 829 1040 q 592 950 694 950 q 423 995 490 950 q 356 1129 356 1040 m 656 1129 q 648 1156 656 1144 q 627 1173 640 1167 q 599 1179 614 1179 q 596 1179 597 1179 q 592 1179 594 1179 q 547 1166 565 1179 q 529 1129 529 1153 q 538 1101 529 1113 q 560 1083 546 1089 q 592 1078 575 1078 q 624 1083 610 1078 q 647 1101 638 1089 q 656 1129 656 1113 z "},"ǻ":{"ha":1185,"x_min":4,"x_max":1158,"o":"m 96 811 l 96 479 q 242 540 158 519 q 407 561 325 561 q 508 551 460 561 q 592 522 556 542 q 651 470 629 501 q 672 396 672 439 q 672 392 672 394 q 672 388 672 390 q 672 383 672 386 q 619 433 651 411 q 545 471 586 456 q 458 494 504 486 q 364 501 413 501 q 231 487 289 501 q 130 446 172 472 q 60 385 88 419 q 18 311 32 350 q 4 232 4 272 q 32 115 4 165 q 108 32 60 65 q 216 -19 156 -1 q 342 -36 276 -36 q 451 -26 396 -36 q 556 10 506 -15 q 615 146 585 78 q 674 282 644 214 q 625 232 657 242 q 568 222 593 222 q 489 244 517 222 q 461 292 461 265 q 488 339 461 318 q 568 360 515 360 q 615 353 592 360 q 656 332 639 347 q 672 292 672 317 q 672 147 672 219 q 672 0 672 74 q 769 0 721 0 q 867 0 818 0 q 964 0 915 0 q 1061 0 1013 0 q 1158 0 1110 0 q 1158 269 1158 135 q 1158 539 1158 404 q 1108 699 1158 631 q 973 813 1058 767 q 779 881 888 858 q 554 903 671 903 q 316 880 435 903 q 96 811 197 857 m 356 1129 q 386 1228 356 1189 q 470 1287 417 1267 q 592 1307 524 1307 q 597 1307 594 1307 q 603 1307 600 1307 q 720 1287 669 1307 q 800 1227 771 1267 q 829 1129 829 1188 q 762 995 829 1040 q 592 950 694 950 q 423 995 490 950 q 356 1129 356 1040 m 656 1129 q 648 1156 656 1144 q 627 1173 640 1167 q 599 1179 614 1179 q 596 1179 597 1179 q 592 1179 594 1179 q 547 1166 565 1179 q 529 1129 529 1153 q 538 1101 529 1113 q 560 1083 546 1089 q 592 1078 575 1078 q 624 1083 610 1078 q 647 1101 638 1089 q 656 1129 656 1113 m 506 1628 l 411 1343 l 732 1343 l 968 1628 l 506 1628 z "},"ã":{"ha":1185,"x_min":4,"x_max":1158,"o":"m 96 811 l 96 479 q 242 540 158 519 q 407 561 325 561 q 508 551 460 561 q 592 522 556 542 q 651 470 629 501 q 672 396 672 439 q 672 392 672 394 q 672 388 672 390 q 672 383 672 386 q 619 433 651 411 q 545 471 586 456 q 458 494 504 486 q 364 501 413 501 q 231 487 289 501 q 130 446 172 472 q 60 385 88 419 q 18 311 32 350 q 4 232 4 272 q 32 115 4 165 q 108 32 60 65 q 216 -19 156 -1 q 342 -36 276 -36 q 451 -26 396 -36 q 556 10 506 -15 q 615 146 585 78 q 674 282 644 214 q 625 232 657 242 q 568 222 593 222 q 489 244 517 222 q 461 292 461 265 q 488 339 461 318 q 568 360 515 360 q 615 353 592 360 q 656 332 639 347 q 672 292 672 317 q 672 147 672 219 q 672 0 672 74 q 769 0 721 0 q 867 0 818 0 q 964 0 915 0 q 1061 0 1013 0 q 1158 0 1110 0 q 1158 269 1158 135 q 1158 539 1158 404 q 1108 699 1158 631 q 973 813 1058 767 q 779 881 888 858 q 554 903 671 903 q 316 880 435 903 q 96 811 197 857 m 208 957 l 439 957 q 439 1008 428 993 q 471 1022 450 1022 q 515 1011 490 1022 q 572 986 540 1000 q 641 961 603 972 q 722 950 679 950 q 824 966 774 950 q 915 1017 875 982 q 973 1109 954 1051 q 978 1250 992 1167 l 749 1250 q 747 1198 758 1213 q 713 1183 736 1183 q 670 1194 694 1183 q 615 1220 646 1206 q 547 1246 583 1235 q 465 1257 510 1257 q 324 1228 389 1257 q 224 1133 258 1199 q 208 957 190 1068 z "},"æ":{"ha":1900,"x_min":4,"x_max":1889,"o":"m 1289 -42 q 1045 -12 1158 -42 q 847 76 932 17 q 713 224 761 135 q 664 431 664 313 q 638 481 658 458 q 585 522 617 504 q 510 548 553 539 q 415 557 467 557 q 332 551 375 557 q 247 532 289 544 q 165 501 204 519 q 90 460 125 483 l 90 811 q 300 880 189 857 q 521 903 411 903 q 731 879 631 903 q 907 807 831 856 q 1088 881 989 858 q 1289 903 1186 903 q 1529 873 1419 903 q 1719 782 1639 843 q 1844 628 1800 721 q 1889 413 1889 536 l 1132 413 q 1131 413 1132 413 q 1131 413 1131 413 q 1131 412 1131 413 q 1131 411 1131 411 q 1152 366 1132 386 q 1208 335 1172 346 q 1292 324 1244 324 q 1403 348 1360 324 q 1447 413 1446 372 l 1876 272 q 1803 149 1858 206 q 1666 49 1747 92 q 1488 -17 1585 7 q 1289 -42 1390 -42 m 671 32 q 557 -17 628 0 q 408 -35 486 -35 q 201 -8 292 -35 q 57 76 110 19 q 4 219 4 132 q 33 332 4 285 q 114 410 63 379 q 233 455 165 440 q 381 469 301 469 l 685 469 l 711 426 l 574 426 q 504 420 531 426 q 465 401 478 414 q 453 369 453 389 q 479 327 453 343 q 544 310 506 311 q 617 326 582 308 q 671 382 653 343 l 671 32 m 1133 456 l 1443 456 q 1444 456 1444 456 q 1444 458 1444 457 q 1432 493 1444 478 q 1397 519 1419 508 q 1347 536 1375 531 q 1289 542 1319 542 q 1179 519 1226 542 q 1132 458 1132 497 q 1132 456 1132 457 q 1132 456 1132 456 q 1133 456 1132 456 q 1133 456 1133 456 z "},"ǽ":{"ha":1900,"x_min":4,"x_max":1889,"o":"m 1289 -42 q 1045 -12 1158 -42 q 847 76 932 17 q 713 224 761 135 q 664 431 664 313 q 638 481 658 458 q 585 522 617 504 q 510 548 553 539 q 415 557 467 557 q 332 551 375 557 q 247 532 289 544 q 165 501 204 519 q 90 460 125 483 l 90 811 q 300 880 189 857 q 521 903 411 903 q 731 879 631 903 q 907 807 831 856 q 1088 881 989 858 q 1289 903 1186 903 q 1529 873 1419 903 q 1719 782 1639 843 q 1844 628 1800 721 q 1889 413 1889 536 l 1132 413 q 1131 413 1132 413 q 1131 413 1131 413 q 1131 412 1131 413 q 1131 411 1131 411 q 1152 366 1132 386 q 1208 335 1172 346 q 1292 324 1244 324 q 1403 348 1360 324 q 1447 413 1446 372 l 1876 272 q 1803 149 1858 206 q 1666 49 1747 92 q 1488 -17 1585 7 q 1289 -42 1390 -42 m 671 32 q 557 -17 628 0 q 408 -35 486 -35 q 201 -8 292 -35 q 57 76 110 19 q 4 219 4 132 q 33 332 4 285 q 114 410 63 379 q 233 455 165 440 q 381 469 301 469 l 685 469 l 711 426 l 574 426 q 504 420 531 426 q 465 401 478 414 q 453 369 453 389 q 479 327 453 343 q 544 310 506 311 q 617 326 582 308 q 671 382 653 343 l 671 32 m 1133 456 l 1443 456 q 1444 456 1444 456 q 1444 458 1444 457 q 1432 493 1444 478 q 1397 519 1419 508 q 1347 536 1375 531 q 1289 542 1319 542 q 1179 519 1226 542 q 1132 458 1132 497 q 1132 456 1132 457 q 1132 456 1132 456 q 1133 456 1132 456 q 1133 456 1133 456 m 860 1246 l 765 961 l 1086 961 l 1322 1246 l 860 1246 z "},"b":{"ha":1333,"x_min":28,"x_max":1319,"o":"m 28 1042 l 508 1042 q 508 905 508 986 q 508 735 508 824 q 508 566 508 647 q 508 429 508 485 q 522 383 508 403 q 560 351 536 364 q 613 333 583 339 q 674 326 643 326 q 794 358 756 326 q 833 429 833 390 q 816 482 833 458 q 763 520 799 506 q 674 535 728 535 q 570 514 615 535 q 510 446 525 493 l 619 861 q 710 877 665 872 q 799 882 756 882 q 1000 852 906 882 q 1166 764 1094 822 q 1278 622 1238 706 q 1319 432 1319 539 q 1278 246 1319 329 q 1167 103 1238 163 q 1010 11 1097 43 q 828 -21 922 -21 q 745 -15 788 -21 q 661 3 703 -10 q 581 38 619 15 q 511 93 543 60 q 509 94 510 94 q 508 92 508 93 l 508 0 l 28 0 q 28 188 28 94 q 28 376 28 282 q 28 563 28 469 q 28 751 28 657 q 28 897 28 824 q 28 1042 28 969 z "},"ɓ":{"ha":1333,"x_min":28,"x_max":1319,"o":"m 828 -21 q 745 -15 788 -21 q 661 3 703 -10 q 581 38 619 15 q 511 93 543 60 q 509 94 510 94 q 508 92 508 93 l 508 0 l 28 0 q 28 152 28 68 q 28 324 28 236 q 28 492 28 413 q 28 630 28 571 q 28 715 28 689 q 79 933 28 853 q 225 1049 131 1014 q 446 1083 319 1083 q 574 1075 508 1083 q 675 1056 640 1067 l 675 786 q 644 795 661 793 q 604 797 626 797 q 547 787 568 797 q 517 756 526 776 q 508 704 508 736 q 508 604 508 649 q 508 508 508 560 q 508 381 508 457 q 522 335 508 354 q 560 303 536 315 q 613 284 583 290 q 674 278 643 278 q 763 293 728 278 q 816 332 799 308 q 833 381 833 356 q 816 434 833 410 q 763 472 799 458 q 674 486 728 486 q 570 465 615 486 q 510 397 525 444 l 594 736 q 698 760 640 751 q 799 768 756 768 q 1000 748 906 768 q 1166 682 1094 728 q 1278 563 1238 636 q 1319 383 1319 490 q 1287 228 1319 301 q 1191 99 1254 156 q 1037 11 1128 43 q 828 -21 946 -21 z "},"c":{"ha":1264,"x_min":14,"x_max":1246,"o":"m 639 -42 q 395 -12 508 -42 q 197 76 282 17 q 63 224 111 135 q 14 431 14 313 q 27 544 14 492 q 65 642 40 597 q 126 725 90 688 q 206 792 161 763 q 331 853 263 829 q 477 890 399 878 q 639 903 556 903 q 927 859 799 903 q 1140 728 1056 815 q 1244 508 1224 640 l 799 429 q 775 490 799 467 q 715 524 751 514 q 639 535 679 535 q 558 523 594 535 q 500 488 521 511 q 479 431 479 465 q 491 385 479 404 q 525 352 503 365 q 576 333 547 339 q 639 326 606 326 q 715 336 678 326 q 775 369 751 346 q 799 429 799 392 q 1022 401 915 415 q 1246 371 1129 386 q 1147 144 1229 236 q 933 5 1064 51 q 639 -42 801 -42 z "},"ć":{"ha":1264,"x_min":14,"x_max":1246,"o":"m 639 -42 q 395 -12 508 -42 q 197 76 282 17 q 63 224 111 135 q 14 431 14 313 q 27 544 14 492 q 65 642 40 597 q 126 725 90 688 q 206 792 161 763 q 331 853 263 829 q 477 890 399 878 q 639 903 556 903 q 927 859 799 903 q 1140 728 1056 815 q 1244 508 1224 640 l 799 429 q 775 490 799 467 q 715 524 751 514 q 639 535 679 535 q 558 523 594 535 q 500 488 521 511 q 479 431 479 465 q 491 385 479 404 q 525 352 503 365 q 576 333 547 339 q 639 326 606 326 q 715 336 678 326 q 775 369 751 346 q 799 429 799 392 q 1022 401 915 415 q 1246 371 1129 386 q 1147 144 1229 236 q 933 5 1064 51 q 639 -42 801 -42 m 544 1246 l 450 961 l 771 961 l 1007 1246 l 544 1246 z "},"č":{"ha":1264,"x_min":14,"x_max":1246,"o":"m 639 -42 q 395 -12 508 -42 q 197 76 282 17 q 63 224 111 135 q 14 431 14 313 q 27 544 14 492 q 65 642 40 597 q 126 725 90 688 q 206 792 161 763 q 331 853 263 829 q 477 890 399 878 q 639 903 556 903 q 927 859 799 903 q 1140 728 1056 815 q 1244 508 1224 640 l 799 429 q 775 490 799 467 q 715 524 751 514 q 639 535 679 535 q 558 523 594 535 q 500 488 521 511 q 479 431 479 465 q 491 385 479 404 q 525 352 503 365 q 576 333 547 339 q 639 326 606 326 q 715 336 678 326 q 775 369 751 346 q 799 429 799 392 q 1022 401 915 415 q 1246 371 1129 386 q 1147 144 1229 236 q 933 5 1064 51 q 639 -42 801 -42 m 1035 1246 l 874 961 l 382 961 l 221 1246 l 560 1246 l 646 1085 l 625 1085 l 706 1246 l 1035 1246 z "},"ç":{"ha":1264,"x_min":14,"x_max":1246,"o":"m 639 -42 q 395 -12 508 -42 q 197 76 282 17 q 63 224 111 135 q 14 431 14 313 q 27 544 14 492 q 65 642 40 597 q 126 725 90 688 q 206 792 161 763 q 331 853 263 829 q 477 890 399 878 q 639 903 556 903 q 927 859 799 903 q 1140 728 1056 815 q 1244 508 1224 640 l 799 429 q 775 490 799 467 q 715 524 751 514 q 639 535 679 535 q 558 523 594 535 q 500 488 521 511 q 479 431 479 465 q 491 385 479 404 q 525 352 503 365 q 576 333 547 339 q 639 326 606 326 q 715 336 678 326 q 775 369 751 346 q 799 429 799 392 q 1022 401 915 415 q 1246 371 1129 386 q 1147 144 1229 236 q 933 5 1064 51 q 639 -42 801 -42 m 567 22 l 722 22 q 719 -6 721 8 q 715 -35 717 -21 q 710 -65 713 -50 q 819 -81 774 -64 q 890 -130 865 -99 q 915 -203 915 -161 q 881 -295 915 -251 q 785 -365 847 -339 q 633 -392 722 -392 q 514 -379 565 -392 q 426 -350 463 -367 l 485 -181 q 576 -214 538 -210 q 635 -206 614 -218 q 657 -176 657 -194 q 632 -145 657 -158 q 546 -142 607 -132 q 556 -60 551 -101 q 567 22 561 -18 z "},"ĉ":{"ha":1264,"x_min":14,"x_max":1246,"o":"m 639 -42 q 395 -12 508 -42 q 197 76 282 17 q 63 224 111 135 q 14 431 14 313 q 27 544 14 492 q 65 642 40 597 q 126 725 90 688 q 206 792 161 763 q 331 853 263 829 q 477 890 399 878 q 639 903 556 903 q 927 859 799 903 q 1140 728 1056 815 q 1244 508 1224 640 l 799 429 q 775 490 799 467 q 715 524 751 514 q 639 535 679 535 q 558 523 594 535 q 500 488 521 511 q 479 431 479 465 q 491 385 479 404 q 525 352 503 365 q 576 333 547 339 q 639 326 606 326 q 715 336 678 326 q 775 369 751 346 q 799 429 799 392 q 1022 401 915 415 q 1246 371 1129 386 q 1147 144 1229 236 q 933 5 1064 51 q 639 -42 801 -42 m 236 961 l 397 1246 l 889 1246 l 1050 961 l 711 961 l 625 1122 l 646 1122 l 565 961 l 236 961 z "},"ċ":{"ha":1264,"x_min":14,"x_max":1246,"o":"m 639 -42 q 395 -12 508 -42 q 197 76 282 17 q 63 224 111 135 q 14 431 14 313 q 27 544 14 492 q 65 642 40 597 q 126 725 90 688 q 206 792 161 763 q 331 853 263 829 q 477 890 399 878 q 639 903 556 903 q 927 859 799 903 q 1140 728 1056 815 q 1244 508 1224 640 l 799 429 q 775 490 799 467 q 715 524 751 514 q 639 535 679 535 q 558 523 594 535 q 500 488 521 511 q 479 431 479 465 q 491 385 479 404 q 525 352 503 365 q 576 333 547 339 q 639 326 606 326 q 715 336 678 326 q 775 369 751 346 q 799 429 799 392 q 1022 401 915 415 q 1246 371 1129 386 q 1147 144 1229 236 q 933 5 1064 51 q 639 -42 801 -42 m 394 961 q 392 962 393 961 q 392 964 392 963 l 392 1243 q 394 1246 392 1246 l 869 1246 q 872 1245 871 1246 q 872 1243 872 1244 l 872 964 q 869 961 872 961 l 394 961 z "},"d":{"ha":1333,"x_min":14,"x_max":1306,"o":"m 825 0 q 825 149 825 75 q 825 298 825 224 q 825 446 825 372 q 811 492 825 472 q 774 524 797 511 q 721 542 750 536 q 660 549 692 549 q 540 517 579 549 q 500 446 500 485 q 517 393 500 417 q 570 355 535 369 q 660 340 606 340 q 764 361 718 340 q 824 429 810 382 l 713 0 q 628 -16 668 -11 q 535 -21 588 -21 q 333 9 428 -21 q 167 97 239 39 q 55 239 96 156 q 14 429 14 322 q 43 594 14 521 q 123 721 72 667 q 240 811 174 775 q 383 865 307 847 q 536 882 458 882 q 601 879 568 882 q 667 871 635 876 q 727 856 699 865 q 780 832 756 846 q 822 800 804 818 q 824 799 824 799 q 825 801 825 800 q 825 922 825 857 q 825 1042 825 986 l 1306 1042 q 1306 774 1306 908 q 1306 507 1306 640 q 1306 254 1306 381 q 1306 0 1306 128 l 825 0 z "},"ð":{"ha":1289,"x_min":14,"x_max":1269,"o":"m 604 -28 q 367 -3 475 -28 q 181 71 260 22 q 58 192 101 119 q 14 358 14 264 q 56 516 14 451 q 168 619 99 581 q 318 672 238 657 q 476 679 399 686 q 610 646 553 672 l 793 424 q 727 477 763 460 q 635 494 692 494 q 565 483 599 494 q 509 450 531 472 q 488 394 488 428 q 533 323 488 347 q 635 299 579 299 q 720 313 683 299 q 778 362 757 328 q 799 454 799 396 q 779 553 799 508 q 724 632 760 597 q 640 692 689 667 q 533 731 592 717 q 408 748 474 744 q 271 743 342 751 l 544 1067 q 845 1006 711 1053 q 1074 881 979 958 q 1219 699 1169 803 q 1269 471 1269 596 q 1217 240 1269 335 q 1074 85 1165 144 q 861 -1 982 26 q 604 -28 740 -28 m 1013 710 l 792 919 l 1010 1106 l 1267 913 l 1013 710 z "},"ď":{"ha":1686,"x_min":14,"x_max":1719,"o":"m 825 0 q 825 149 825 75 q 825 298 825 224 q 825 446 825 372 q 811 492 825 472 q 774 524 797 511 q 721 542 750 536 q 660 549 692 549 q 540 517 579 549 q 500 446 500 485 q 517 393 500 417 q 570 355 535 369 q 660 340 606 340 q 764 361 718 340 q 824 429 810 382 l 713 0 q 628 -16 668 -11 q 535 -21 588 -21 q 333 9 428 -21 q 167 97 239 39 q 55 239 96 156 q 14 429 14 322 q 43 594 14 521 q 123 721 72 667 q 240 811 174 775 q 383 865 307 847 q 536 882 458 882 q 601 879 568 882 q 667 871 635 876 q 727 856 699 865 q 780 832 756 846 q 822 800 804 818 q 824 799 824 799 q 825 801 825 800 q 825 922 825 857 q 825 1042 825 986 l 1306 1042 q 1306 774 1306 908 q 1306 507 1306 640 q 1306 254 1306 381 q 1306 0 1306 128 l 825 0 m 1611 674 l 1343 674 l 1381 1042 l 1719 1042 l 1611 674 z "},"ḓ":{"ha":1333,"x_min":14,"x_max":1306,"o":"m 825 0 q 825 149 825 75 q 825 298 825 224 q 825 446 825 372 q 811 492 825 472 q 774 524 797 511 q 721 542 750 536 q 660 549 692 549 q 540 517 579 549 q 500 446 500 485 q 517 393 500 417 q 570 355 535 369 q 660 340 606 340 q 764 361 718 340 q 824 429 810 382 l 713 0 q 628 -16 668 -11 q 535 -21 588 -21 q 333 9 428 -21 q 167 97 239 39 q 55 239 96 156 q 14 429 14 322 q 43 594 14 521 q 123 721 72 667 q 240 811 174 775 q 383 865 307 847 q 536 882 458 882 q 601 879 568 882 q 667 871 635 876 q 727 856 699 865 q 780 832 756 846 q 822 800 804 818 q 824 799 824 799 q 825 801 825 800 q 825 922 825 857 q 825 1042 825 986 l 1306 1042 q 1306 774 1306 908 q 1306 507 1306 640 q 1306 254 1306 381 q 1306 0 1306 128 l 825 0 m 258 -372 l 419 -87 l 911 -87 l 1072 -372 l 733 -372 l 647 -211 l 668 -211 l 588 -372 l 258 -372 z "},"đ":{"ha":1357,"x_min":14,"x_max":1371,"o":"m 715 888 l 715 997 l 1371 997 l 1371 888 l 715 888 m 825 0 q 825 149 825 75 q 825 298 825 224 q 825 446 825 372 q 811 492 825 472 q 774 524 797 511 q 721 542 750 536 q 660 549 692 549 q 540 517 579 549 q 500 446 500 485 q 517 393 500 417 q 570 355 535 369 q 660 340 606 340 q 764 361 718 340 q 824 429 810 382 l 713 0 q 628 -16 668 -11 q 535 -21 588 -21 q 333 9 428 -21 q 167 97 239 39 q 55 239 96 156 q 14 429 14 322 q 43 594 14 521 q 123 721 72 667 q 240 811 174 775 q 383 865 307 847 q 536 882 458 882 q 601 879 568 882 q 667 871 635 876 q 727 856 699 865 q 780 832 756 846 q 822 800 804 818 q 824 799 824 799 q 825 801 825 800 q 825 922 825 857 q 825 1042 825 986 l 1306 1042 q 1306 774 1306 908 q 1306 507 1306 640 q 1306 254 1306 381 q 1306 0 1306 128 l 825 0 z "},"ɗ":{"ha":1454,"x_min":14,"x_max":1433,"o":"m 825 0 q 825 149 825 75 q 825 298 825 224 q 825 446 825 372 q 811 492 825 472 q 774 524 797 511 q 721 542 750 536 q 660 549 692 549 q 540 517 579 549 q 500 446 500 485 q 517 393 500 417 q 570 355 535 369 q 660 340 606 340 q 764 361 718 340 q 824 429 810 382 l 713 0 q 628 -16 668 -11 q 535 -21 588 -21 q 333 9 428 -21 q 167 97 239 39 q 55 239 96 156 q 14 429 14 322 q 43 594 14 521 q 123 721 72 667 q 240 811 174 775 q 383 865 307 847 q 536 882 458 882 q 601 880 568 882 q 665 872 633 878 q 725 856 696 867 q 778 828 754 844 q 822 786 803 811 q 824 785 824 785 q 825 788 825 786 q 853 911 825 857 q 935 1004 882 965 q 1065 1063 989 1043 q 1238 1083 1142 1083 q 1306 1081 1268 1083 q 1377 1074 1343 1078 q 1433 1065 1411 1069 l 1433 776 q 1409 788 1422 785 q 1372 792 1396 792 q 1348 788 1360 792 q 1326 775 1336 783 q 1311 753 1317 767 q 1306 721 1306 740 q 1306 559 1306 654 q 1306 360 1306 464 q 1306 162 1306 257 q 1306 0 1306 67 l 825 0 z "},"e":{"ha":1250,"x_min":14,"x_max":1239,"o":"m 642 314 q 756 340 715 314 q 797 413 796 367 l 1226 272 q 1120 113 1201 185 q 915 0 1039 42 q 639 -42 792 -42 q 395 -12 508 -42 q 197 76 282 17 q 63 224 111 135 q 14 431 14 313 q 63 638 14 549 q 197 785 111 726 q 396 874 282 844 q 639 903 510 903 q 881 874 771 903 q 1072 784 992 844 q 1195 631 1151 724 q 1239 413 1239 539 l 482 413 q 481 413 482 413 q 481 413 481 413 q 481 411 481 413 q 492 372 481 390 q 523 341 503 354 q 573 321 543 328 q 642 314 603 314 m 639 551 q 526 527 571 551 q 482 458 482 503 q 482 456 482 457 q 482 456 482 456 q 483 456 482 456 q 483 456 483 456 l 793 456 q 794 456 794 456 q 794 458 794 457 q 783 498 794 481 q 750 527 771 515 q 701 545 729 539 q 639 551 672 551 z "},"é":{"ha":1250,"x_min":14,"x_max":1239,"o":"m 642 314 q 756 340 715 314 q 797 413 796 367 l 1226 272 q 1120 113 1201 185 q 915 0 1039 42 q 639 -42 792 -42 q 395 -12 508 -42 q 197 76 282 17 q 63 224 111 135 q 14 431 14 313 q 63 638 14 549 q 197 785 111 726 q 396 874 282 844 q 639 903 510 903 q 881 874 771 903 q 1072 784 992 844 q 1195 631 1151 724 q 1239 413 1239 539 l 482 413 q 481 413 482 413 q 481 413 481 413 q 481 411 481 413 q 492 372 481 390 q 523 341 503 354 q 573 321 543 328 q 642 314 603 314 m 639 551 q 526 527 571 551 q 482 458 482 503 q 482 456 482 457 q 482 456 482 456 q 483 456 482 456 q 483 456 483 456 l 793 456 q 794 456 794 456 q 794 458 794 457 q 783 498 794 481 q 750 527 771 515 q 701 545 729 539 q 639 551 672 551 m 538 1246 l 443 961 l 764 961 l 1000 1246 l 538 1246 z "},"ĕ":{"ha":1250,"x_min":14,"x_max":1239,"o":"m 642 314 q 756 340 715 314 q 797 413 796 367 l 1226 272 q 1120 113 1201 185 q 915 0 1039 42 q 639 -42 792 -42 q 395 -12 508 -42 q 197 76 282 17 q 63 224 111 135 q 14 431 14 313 q 63 638 14 549 q 197 785 111 726 q 396 874 282 844 q 639 903 510 903 q 881 874 771 903 q 1072 784 992 844 q 1195 631 1151 724 q 1239 413 1239 539 l 482 413 q 481 413 482 413 q 481 413 481 413 q 481 411 481 413 q 492 372 481 390 q 523 341 503 354 q 573 321 543 328 q 642 314 603 314 m 639 551 q 526 527 571 551 q 482 458 482 503 q 482 456 482 457 q 482 456 482 456 q 483 456 482 456 q 483 456 483 456 l 793 456 q 794 456 794 456 q 794 458 794 457 q 783 498 794 481 q 750 527 771 515 q 701 545 729 539 q 639 551 672 551 m 214 1199 l 525 1199 q 537 1160 525 1175 q 572 1138 549 1144 q 625 1131 594 1131 q 678 1138 656 1131 q 713 1160 700 1144 q 726 1199 726 1175 l 1038 1199 q 934 1013 1038 1076 q 625 950 831 950 q 317 1013 421 950 q 214 1199 214 1075 z "},"ě":{"ha":1250,"x_min":14,"x_max":1239,"o":"m 642 314 q 756 340 715 314 q 797 413 796 367 l 1226 272 q 1120 113 1201 185 q 915 0 1039 42 q 639 -42 792 -42 q 395 -12 508 -42 q 197 76 282 17 q 63 224 111 135 q 14 431 14 313 q 63 638 14 549 q 197 785 111 726 q 396 874 282 844 q 639 903 510 903 q 881 874 771 903 q 1072 784 992 844 q 1195 631 1151 724 q 1239 413 1239 539 l 482 413 q 481 413 482 413 q 481 413 481 413 q 481 411 481 413 q 492 372 481 390 q 523 341 503 354 q 573 321 543 328 q 642 314 603 314 m 639 551 q 526 527 571 551 q 482 458 482 503 q 482 456 482 457 q 482 456 482 456 q 483 456 482 456 q 483 456 483 456 l 793 456 q 794 456 794 456 q 794 458 794 457 q 783 498 794 481 q 750 527 771 515 q 701 545 729 539 q 639 551 672 551 m 1028 1246 l 867 961 l 375 961 l 214 1246 l 553 1246 l 639 1085 l 618 1085 l 699 1246 l 1028 1246 z "},"ê":{"ha":1250,"x_min":14,"x_max":1239,"o":"m 642 314 q 756 340 715 314 q 797 413 796 367 l 1226 272 q 1120 113 1201 185 q 915 0 1039 42 q 639 -42 792 -42 q 395 -12 508 -42 q 197 76 282 17 q 63 224 111 135 q 14 431 14 313 q 63 638 14 549 q 197 785 111 726 q 396 874 282 844 q 639 903 510 903 q 881 874 771 903 q 1072 784 992 844 q 1195 631 1151 724 q 1239 413 1239 539 l 482 413 q 481 413 482 413 q 481 413 481 413 q 481 411 481 413 q 492 372 481 390 q 523 341 503 354 q 573 321 543 328 q 642 314 603 314 m 639 551 q 526 527 571 551 q 482 458 482 503 q 482 456 482 457 q 482 456 482 456 q 483 456 482 456 q 483 456 483 456 l 793 456 q 794 456 794 456 q 794 458 794 457 q 783 498 794 481 q 750 527 771 515 q 701 545 729 539 q 639 551 672 551 m 229 961 l 390 1246 l 882 1246 l 1043 961 l 704 961 l 618 1122 l 639 1122 l 558 961 l 229 961 z "},"ë":{"ha":1250,"x_min":14,"x_max":1239,"o":"m 642 314 q 756 340 715 314 q 797 413 796 367 l 1226 272 q 1120 113 1201 185 q 915 0 1039 42 q 639 -42 792 -42 q 395 -12 508 -42 q 197 76 282 17 q 63 224 111 135 q 14 431 14 313 q 63 638 14 549 q 197 785 111 726 q 396 874 282 844 q 639 903 510 903 q 881 874 771 903 q 1072 784 992 844 q 1195 631 1151 724 q 1239 413 1239 539 l 482 413 q 481 413 482 413 q 481 413 481 413 q 481 411 481 413 q 492 372 481 390 q 523 341 503 354 q 573 321 543 328 q 642 314 603 314 m 639 551 q 526 527 571 551 q 482 458 482 503 q 482 456 482 457 q 482 456 482 456 q 483 456 482 456 q 483 456 483 456 l 793 456 q 794 456 794 456 q 794 458 794 457 q 783 498 794 481 q 750 527 771 515 q 701 545 729 539 q 639 551 672 551 m 153 961 q 151 961 151 961 q 151 963 151 961 l 151 1185 q 151 1186 151 1186 q 153 1186 151 1186 l 596 1186 q 597 1185 597 1186 l 597 963 q 597 961 597 961 q 596 961 597 961 l 153 961 m 654 961 q 653 961 653 961 q 653 963 653 961 l 653 1185 q 654 1186 653 1186 l 1097 1186 q 1099 1186 1099 1186 q 1099 1185 1099 1186 l 1099 963 q 1097 961 1099 961 l 654 961 z "},"ė":{"ha":1250,"x_min":14,"x_max":1239,"o":"m 642 314 q 756 340 715 314 q 797 413 796 367 l 1226 272 q 1120 113 1201 185 q 915 0 1039 42 q 639 -42 792 -42 q 395 -12 508 -42 q 197 76 282 17 q 63 224 111 135 q 14 431 14 313 q 63 638 14 549 q 197 785 111 726 q 396 874 282 844 q 639 903 510 903 q 881 874 771 903 q 1072 784 992 844 q 1195 631 1151 724 q 1239 413 1239 539 l 482 413 q 481 413 482 413 q 481 413 481 413 q 481 411 481 413 q 492 372 481 390 q 523 341 503 354 q 573 321 543 328 q 642 314 603 314 m 639 551 q 526 527 571 551 q 482 458 482 503 q 482 456 482 457 q 482 456 482 456 q 483 456 482 456 q 483 456 483 456 l 793 456 q 794 456 794 456 q 794 458 794 457 q 783 498 794 481 q 750 527 771 515 q 701 545 729 539 q 639 551 672 551 m 388 961 q 385 962 386 961 q 385 964 385 963 l 385 1243 q 388 1246 385 1246 l 863 1246 q 865 1245 864 1246 q 865 1243 865 1244 l 865 964 q 863 961 865 961 l 388 961 z "},"ẹ":{"ha":1250,"x_min":14,"x_max":1239,"o":"m 642 314 q 756 340 715 314 q 797 413 796 367 l 1226 272 q 1120 113 1201 185 q 915 0 1039 42 q 639 -42 792 -42 q 395 -12 508 -42 q 197 76 282 17 q 63 224 111 135 q 14 431 14 313 q 63 638 14 549 q 197 785 111 726 q 396 874 282 844 q 639 903 510 903 q 881 874 771 903 q 1072 784 992 844 q 1195 631 1151 724 q 1239 413 1239 539 l 482 413 q 481 413 482 413 q 481 413 481 413 q 481 411 481 413 q 492 372 481 390 q 523 341 503 354 q 573 321 543 328 q 642 314 603 314 m 639 551 q 526 527 571 551 q 482 458 482 503 q 482 456 482 457 q 482 456 482 456 q 483 456 482 456 q 483 456 483 456 l 793 456 q 794 456 794 456 q 794 458 794 457 q 783 498 794 481 q 750 527 771 515 q 701 545 729 539 q 639 551 672 551 m 388 -364 q 385 -363 386 -364 q 385 -361 385 -362 l 385 -82 q 388 -79 385 -79 l 863 -79 q 865 -80 864 -79 q 865 -82 865 -81 l 865 -361 q 863 -364 865 -364 l 388 -364 z "},"è":{"ha":1250,"x_min":14,"x_max":1239,"o":"m 642 314 q 756 340 715 314 q 797 413 796 367 l 1226 272 q 1120 113 1201 185 q 915 0 1039 42 q 639 -42 792 -42 q 395 -12 508 -42 q 197 76 282 17 q 63 224 111 135 q 14 431 14 313 q 63 638 14 549 q 197 785 111 726 q 396 874 282 844 q 639 903 510 903 q 881 874 771 903 q 1072 784 992 844 q 1195 631 1151 724 q 1239 413 1239 539 l 482 413 q 481 413 482 413 q 481 413 481 413 q 481 411 481 413 q 492 372 481 390 q 523 341 503 354 q 573 321 543 328 q 642 314 603 314 m 639 551 q 526 527 571 551 q 482 458 482 503 q 482 456 482 457 q 482 456 482 456 q 483 456 482 456 q 483 456 483 456 l 793 456 q 794 456 794 456 q 794 458 794 457 q 783 498 794 481 q 750 527 771 515 q 701 545 729 539 q 639 551 672 551 m 479 961 l 243 1246 l 706 1246 l 800 961 l 479 961 z "},"ē":{"ha":1250,"x_min":14,"x_max":1239,"o":"m 642 314 q 756 340 715 314 q 797 413 796 367 l 1226 272 q 1120 113 1201 185 q 915 0 1039 42 q 639 -42 792 -42 q 395 -12 508 -42 q 197 76 282 17 q 63 224 111 135 q 14 431 14 313 q 63 638 14 549 q 197 785 111 726 q 396 874 282 844 q 639 903 510 903 q 881 874 771 903 q 1072 784 992 844 q 1195 631 1151 724 q 1239 413 1239 539 l 482 413 q 481 413 482 413 q 481 413 481 413 q 481 411 481 413 q 492 372 481 390 q 523 341 503 354 q 573 321 543 328 q 642 314 603 314 m 639 551 q 526 527 571 551 q 482 458 482 503 q 482 456 482 457 q 482 456 482 456 q 483 456 482 456 q 483 456 483 456 l 793 456 q 794 456 794 456 q 794 458 794 457 q 783 498 794 481 q 750 527 771 515 q 701 545 729 539 q 639 551 672 551 m 275 983 l 275 1201 l 975 1201 l 975 983 l 275 983 z "},"ę":{"ha":1250,"x_min":14,"x_max":1239,"o":"m 975 -428 q 721 -367 806 -428 q 636 -194 636 -306 q 640 -150 636 -172 q 651 -108 644 -128 q 670 -69 658 -87 q 697 -33 682 -50 q 731 0 713 -15 l 731 -37 q 684 -40 707 -39 q 639 -42 661 -42 q 395 -12 508 -42 q 197 76 282 17 q 63 224 111 135 q 14 431 14 313 q 63 638 14 549 q 197 785 111 726 q 396 874 282 844 q 639 903 510 903 q 881 874 771 903 q 1072 784 992 844 q 1195 631 1151 724 q 1239 413 1239 539 l 482 413 q 481 413 482 413 q 481 413 481 413 q 481 411 481 413 q 492 372 481 390 q 523 341 503 354 q 573 321 543 328 q 642 314 603 314 q 756 340 715 314 q 797 413 796 367 l 1226 272 q 1189 194 1215 232 q 1118 110 1163 156 q 1025 -3 1050 40 q 1000 -79 1000 -47 q 1011 -116 1000 -101 q 1042 -138 1022 -131 q 1088 -146 1061 -146 q 1143 -141 1119 -146 q 1194 -124 1167 -136 l 1194 -396 q 1089 -419 1138 -411 q 975 -428 1040 -428 m 483 456 l 793 456 q 794 456 794 456 q 794 458 794 457 q 783 498 794 481 q 750 527 771 515 q 701 545 729 539 q 639 551 672 551 q 526 527 571 551 q 482 458 482 503 q 482 456 482 457 q 482 456 482 456 q 483 456 482 456 q 483 456 483 456 z "},"ẽ":{"ha":1250,"x_min":14,"x_max":1239,"o":"m 642 314 q 756 340 715 314 q 797 413 796 367 l 1226 272 q 1120 113 1201 185 q 915 0 1039 42 q 639 -42 792 -42 q 395 -12 508 -42 q 197 76 282 17 q 63 224 111 135 q 14 431 14 313 q 63 638 14 549 q 197 785 111 726 q 396 874 282 844 q 639 903 510 903 q 881 874 771 903 q 1072 784 992 844 q 1195 631 1151 724 q 1239 413 1239 539 l 482 413 q 481 413 482 413 q 481 413 481 413 q 481 411 481 413 q 492 372 481 390 q 523 341 503 354 q 573 321 543 328 q 642 314 603 314 m 639 551 q 526 527 571 551 q 482 458 482 503 q 482 456 482 457 q 482 456 482 456 q 483 456 482 456 q 483 456 483 456 l 793 456 q 794 456 794 456 q 794 458 794 457 q 783 498 794 481 q 750 527 771 515 q 701 545 729 539 q 639 551 672 551 m 240 957 l 471 957 q 471 1008 460 993 q 503 1022 482 1022 q 547 1011 522 1022 q 603 986 572 1000 q 673 961 635 972 q 754 950 711 950 q 856 966 806 950 q 947 1017 907 982 q 1005 1109 986 1051 q 1010 1250 1024 1167 l 781 1250 q 779 1198 790 1213 q 744 1183 768 1183 q 702 1194 726 1183 q 647 1220 678 1206 q 578 1246 615 1235 q 497 1257 542 1257 q 356 1228 421 1257 q 256 1133 290 1199 q 240 957 222 1068 z "},"ə":{"ha":1250,"x_min":11,"x_max":1236,"o":"m 608 538 q 498 513 540 538 q 453 449 456 489 l 24 589 q 132 749 50 678 q 337 861 214 819 q 611 903 460 903 q 855 874 742 903 q 1053 785 968 844 q 1188 638 1139 726 q 1236 431 1236 549 q 1188 224 1236 313 q 1053 76 1139 135 q 854 -12 968 17 q 611 -42 740 -42 q 374 -11 483 -42 q 183 81 264 19 q 56 234 101 142 q 11 449 11 326 l 768 449 q 769 449 769 449 q 769 449 769 449 q 769 450 769 450 q 758 485 769 469 q 724 513 746 500 q 674 531 703 525 q 608 538 644 538 m 611 319 q 721 342 674 319 q 768 406 768 365 q 768 408 768 407 q 768 408 768 408 q 767 408 768 408 q 767 408 767 408 l 457 408 q 456 408 456 408 q 456 406 456 407 q 468 369 456 385 q 503 342 481 353 q 553 325 525 331 q 611 319 581 319 z "},"f":{"ha":915,"x_min":-4,"x_max":968,"o":"m 635 1083 q 353 1026 472 1083 q 168 866 233 969 q 103 625 103 763 l 103 611 q 67 504 85 558 q 32 397 50 450 q -4 289 14 343 l 101 289 q 103 289 103 289 q 103 288 103 289 q 103 188 103 232 q 103 100 103 144 q 103 0 103 56 l 588 0 q 588 100 588 56 q 588 188 588 144 q 588 288 588 232 q 588 289 588 289 q 589 289 588 289 l 743 289 l 843 611 l 589 611 q 588 611 589 611 q 588 612 588 611 q 588 613 588 613 q 593 650 588 633 q 609 679 599 667 q 635 699 619 692 q 669 711 650 707 q 711 715 689 715 q 801 690 760 715 q 843 611 843 664 l 968 1010 q 881 1046 936 1029 q 760 1073 825 1063 q 635 1083 696 1083 z "},"g":{"ha":1267,"x_min":14,"x_max":1240,"o":"m 1240 861 l 760 861 q 760 816 760 846 q 760 771 760 786 q 760 768 760 769 q 759 767 760 767 q 757 769 758 767 q 713 815 739 796 q 657 847 688 833 q 594 867 626 860 q 529 878 561 875 q 469 882 497 882 q 352 870 410 882 q 244 835 294 858 q 151 777 193 811 q 78 699 108 743 q 31 601 47 654 q 14 486 14 549 q 49 320 14 393 q 145 197 85 247 q 283 119 206 146 q 446 92 361 92 q 561 99 504 92 q 676 140 618 106 l 760 467 q 622 386 733 386 q 549 398 581 386 q 498 432 517 410 q 479 486 479 454 q 497 538 479 517 q 548 569 515 558 q 622 579 581 579 q 678 573 653 579 q 722 555 703 567 q 750 525 740 543 q 760 482 760 507 l 760 225 q 739 136 760 172 q 682 78 718 100 q 599 45 646 56 q 500 35 553 35 q 371 47 436 35 q 248 81 306 60 q 150 129 190 103 l 150 -92 q 364 -171 244 -144 q 606 -197 483 -197 q 794 -181 701 -197 q 968 -135 888 -165 q 1110 -58 1049 -104 q 1206 49 1171 -11 q 1240 185 1240 110 q 1240 524 1240 354 q 1240 861 1240 693 z "},"ğ":{"ha":1267,"x_min":14,"x_max":1240,"o":"m 1240 861 l 760 861 q 760 816 760 846 q 760 771 760 786 q 760 768 760 769 q 759 767 760 767 q 757 769 758 767 q 713 815 739 796 q 657 847 688 833 q 594 867 626 860 q 529 878 561 875 q 469 882 497 882 q 352 870 410 882 q 244 835 294 858 q 151 777 193 811 q 78 699 108 743 q 31 601 47 654 q 14 486 14 549 q 49 320 14 393 q 145 197 85 247 q 283 119 206 146 q 446 92 361 92 q 561 99 504 92 q 676 140 618 106 l 760 467 q 622 386 733 386 q 549 398 581 386 q 498 432 517 410 q 479 486 479 454 q 497 538 479 517 q 548 569 515 558 q 622 579 581 579 q 678 573 653 579 q 722 555 703 567 q 750 525 740 543 q 760 482 760 507 l 760 225 q 739 136 760 172 q 682 78 718 100 q 599 45 646 56 q 500 35 553 35 q 371 47 436 35 q 248 81 306 60 q 150 129 190 103 l 150 -92 q 364 -171 244 -144 q 606 -197 483 -197 q 794 -181 701 -197 q 968 -135 888 -165 q 1110 -58 1049 -104 q 1206 49 1171 -11 q 1240 185 1240 110 q 1240 524 1240 354 q 1240 861 1240 693 m 218 1199 l 529 1199 q 541 1160 529 1175 q 576 1138 553 1144 q 629 1131 599 1131 q 682 1138 660 1131 q 717 1160 704 1144 q 731 1199 731 1175 l 1042 1199 q 938 1013 1042 1076 q 629 950 835 950 q 322 1013 425 950 q 218 1199 218 1075 z "},"ǧ":{"ha":1267,"x_min":14,"x_max":1240,"o":"m 1240 861 l 760 861 q 760 816 760 846 q 760 771 760 786 q 760 768 760 769 q 759 767 760 767 q 757 769 758 767 q 713 815 739 796 q 657 847 688 833 q 594 867 626 860 q 529 878 561 875 q 469 882 497 882 q 352 870 410 882 q 244 835 294 858 q 151 777 193 811 q 78 699 108 743 q 31 601 47 654 q 14 486 14 549 q 49 320 14 393 q 145 197 85 247 q 283 119 206 146 q 446 92 361 92 q 561 99 504 92 q 676 140 618 106 l 760 467 q 622 386 733 386 q 549 398 581 386 q 498 432 517 410 q 479 486 479 454 q 497 538 479 517 q 548 569 515 558 q 622 579 581 579 q 678 573 653 579 q 722 555 703 567 q 750 525 740 543 q 760 482 760 507 l 760 225 q 739 136 760 172 q 682 78 718 100 q 599 45 646 56 q 500 35 553 35 q 371 47 436 35 q 248 81 306 60 q 150 129 190 103 l 150 -92 q 364 -171 244 -144 q 606 -197 483 -197 q 794 -181 701 -197 q 968 -135 888 -165 q 1110 -58 1049 -104 q 1206 49 1171 -11 q 1240 185 1240 110 q 1240 524 1240 354 q 1240 861 1240 693 m 1032 1246 l 871 961 l 379 961 l 218 1246 l 557 1246 l 643 1085 l 622 1085 l 703 1246 l 1032 1246 z "},"ĝ":{"ha":1267,"x_min":14,"x_max":1240,"o":"m 1240 861 l 760 861 q 760 816 760 846 q 760 771 760 786 q 760 768 760 769 q 759 767 760 767 q 757 769 758 767 q 713 815 739 796 q 657 847 688 833 q 594 867 626 860 q 529 878 561 875 q 469 882 497 882 q 352 870 410 882 q 244 835 294 858 q 151 777 193 811 q 78 699 108 743 q 31 601 47 654 q 14 486 14 549 q 49 320 14 393 q 145 197 85 247 q 283 119 206 146 q 446 92 361 92 q 561 99 504 92 q 676 140 618 106 l 760 467 q 622 386 733 386 q 549 398 581 386 q 498 432 517 410 q 479 486 479 454 q 497 538 479 517 q 548 569 515 558 q 622 579 581 579 q 678 573 653 579 q 722 555 703 567 q 750 525 740 543 q 760 482 760 507 l 760 225 q 739 136 760 172 q 682 78 718 100 q 599 45 646 56 q 500 35 553 35 q 371 47 436 35 q 248 81 306 60 q 150 129 190 103 l 150 -92 q 364 -171 244 -144 q 606 -197 483 -197 q 794 -181 701 -197 q 968 -135 888 -165 q 1110 -58 1049 -104 q 1206 49 1171 -11 q 1240 185 1240 110 q 1240 524 1240 354 q 1240 861 1240 693 m 233 961 l 394 1246 l 886 1246 l 1047 961 l 708 961 l 622 1122 l 643 1122 l 563 961 l 233 961 z "},"ģ":{"ha":1267,"x_min":14,"x_max":1240,"o":"m 1240 861 l 760 861 q 760 816 760 846 q 760 771 760 786 q 760 768 760 769 q 759 767 760 767 q 757 769 758 767 q 713 815 739 796 q 657 847 688 833 q 594 867 626 860 q 529 878 561 875 q 469 882 497 882 q 352 870 410 882 q 244 835 294 858 q 151 777 193 811 q 78 699 108 743 q 31 601 47 654 q 14 486 14 549 q 49 320 14 393 q 145 197 85 247 q 283 119 206 146 q 446 92 361 92 q 561 99 504 92 q 676 140 618 106 l 760 467 q 622 386 733 386 q 549 398 581 386 q 498 432 517 410 q 479 486 479 454 q 497 538 479 517 q 548 569 515 558 q 622 579 581 579 q 678 573 653 579 q 722 555 703 567 q 750 525 740 543 q 760 482 760 507 l 760 225 q 739 136 760 172 q 682 78 718 100 q 599 45 646 56 q 500 35 553 35 q 371 47 436 35 q 248 81 306 60 q 150 129 190 103 l 150 -92 q 364 -171 244 -144 q 606 -197 483 -197 q 794 -181 701 -197 q 968 -135 888 -165 q 1110 -58 1049 -104 q 1206 49 1171 -11 q 1240 185 1240 110 q 1240 524 1240 354 q 1240 861 1240 693 m 838 1233 l 801 961 l 421 961 l 528 1233 l 838 1233 z "},"ġ":{"ha":1267,"x_min":14,"x_max":1240,"o":"m 1240 861 l 760 861 q 760 816 760 846 q 760 771 760 786 q 760 768 760 769 q 759 767 760 767 q 757 769 758 767 q 713 815 739 796 q 657 847 688 833 q 594 867 626 860 q 529 878 561 875 q 469 882 497 882 q 352 870 410 882 q 244 835 294 858 q 151 777 193 811 q 78 699 108 743 q 31 601 47 654 q 14 486 14 549 q 49 320 14 393 q 145 197 85 247 q 283 119 206 146 q 446 92 361 92 q 561 99 504 92 q 676 140 618 106 l 760 467 q 622 386 733 386 q 549 398 581 386 q 498 432 517 410 q 479 486 479 454 q 497 538 479 517 q 548 569 515 558 q 622 579 581 579 q 678 573 653 579 q 722 555 703 567 q 750 525 740 543 q 760 482 760 507 l 760 225 q 739 136 760 172 q 682 78 718 100 q 599 45 646 56 q 500 35 553 35 q 371 47 436 35 q 248 81 306 60 q 150 129 190 103 l 150 -92 q 364 -171 244 -144 q 606 -197 483 -197 q 794 -181 701 -197 q 968 -135 888 -165 q 1110 -58 1049 -104 q 1206 49 1171 -11 q 1240 185 1240 110 q 1240 524 1240 354 q 1240 861 1240 693 m 392 961 q 390 962 390 961 q 389 964 389 963 l 389 1243 q 392 1246 389 1246 l 867 1246 q 869 1245 868 1246 q 869 1243 869 1244 l 869 964 q 867 961 869 961 l 392 961 z "},"h":{"ha":1163,"x_min":28,"x_max":1136,"o":"m 28 0 q 28 257 28 129 q 28 513 28 385 q 28 769 28 642 q 28 906 28 839 q 28 1042 28 974 l 508 1042 q 508 941 508 999 q 508 821 508 883 q 508 700 508 758 q 508 567 508 622 q 508 504 508 511 q 508 473 508 497 q 508 414 508 449 q 508 311 508 368 q 508 195 508 254 q 508 85 508 136 q 508 0 508 33 l 28 0 m 656 0 q 656 108 656 54 q 656 216 656 163 q 656 324 656 269 q 656 432 656 378 q 635 490 656 472 q 588 510 615 508 q 537 506 560 513 q 508 490 514 499 l 619 847 q 726 881 669 869 q 839 892 783 892 q 984 867 917 892 q 1094 788 1051 842 q 1136 643 1136 733 q 1136 428 1136 536 q 1136 214 1136 321 q 1136 0 1136 107 l 656 0 z "},"ħ":{"ha":1163,"x_min":-44,"x_max":1136,"o":"m -44 888 l -44 997 l 621 997 l 621 888 l -44 888 m 28 0 q 28 257 28 129 q 28 513 28 385 q 28 769 28 642 q 28 906 28 839 q 28 1042 28 974 l 508 1042 q 508 941 508 999 q 508 821 508 883 q 508 700 508 758 q 508 567 508 622 q 508 504 508 511 q 508 473 508 497 q 508 414 508 449 q 508 311 508 368 q 508 195 508 254 q 508 85 508 136 q 508 0 508 33 l 28 0 m 656 0 q 656 108 656 54 q 656 216 656 163 q 656 324 656 269 q 656 432 656 378 q 635 490 656 472 q 588 510 615 508 q 537 506 560 513 q 508 490 514 499 l 619 847 q 726 881 669 869 q 839 892 783 892 q 984 867 917 892 q 1094 788 1051 842 q 1136 643 1136 733 q 1136 428 1136 536 q 1136 214 1136 321 q 1136 0 1136 107 l 656 0 z "},"ĥ":{"ha":1163,"x_min":-128,"x_max":1136,"o":"m 28 0 q 28 257 28 129 q 28 513 28 385 q 28 769 28 642 q 28 906 28 839 q 28 1042 28 974 l 508 1042 q 508 941 508 999 q 508 821 508 883 q 508 700 508 758 q 508 567 508 622 q 508 504 508 511 q 508 473 508 497 q 508 414 508 449 q 508 311 508 368 q 508 195 508 254 q 508 85 508 136 q 508 0 508 33 l 28 0 m 656 0 q 656 108 656 54 q 656 216 656 163 q 656 324 656 269 q 656 432 656 378 q 635 490 656 472 q 588 510 615 508 q 537 506 560 513 q 508 490 514 499 l 619 847 q 726 881 669 869 q 839 892 783 892 q 984 867 917 892 q 1094 788 1051 842 q 1136 643 1136 733 q 1136 428 1136 536 q 1136 214 1136 321 q 1136 0 1136 107 l 656 0 m -128 1142 l 33 1426 l 525 1426 l 686 1142 l 347 1142 l 261 1303 l 282 1303 l 201 1142 l -128 1142 z "},"i":{"ha":536,"x_min":28,"x_max":508,"o":"m 28 0 q 28 127 28 64 q 28 253 28 190 q 28 379 28 317 q 28 432 28 406 q 28 485 28 458 q 188 485 108 485 q 349 485 268 485 q 508 485 429 485 q 508 324 508 404 q 508 162 508 243 q 508 0 508 81 l 28 0 m 28 485 q 28 674 28 579 q 28 861 28 768 l 508 861 q 508 769 508 815 q 508 678 508 724 q 508 586 508 632 q 508 585 508 586 q 507 585 507 585 q 267 535 388 560 q 28 485 147 510 z "},"ı":{"ha":536,"x_min":28,"x_max":508,"o":"m 28 0 q 28 156 28 78 q 28 313 28 235 q 28 469 28 390 q 28 626 28 547 q 28 744 28 685 q 28 861 28 803 q 188 861 108 861 q 349 861 268 861 q 508 861 429 861 q 508 647 508 754 q 508 431 508 539 q 508 215 508 322 q 508 0 508 107 l 28 0 z "},"í":{"ha":536,"x_min":28,"x_max":643,"o":"m 28 0 q 28 156 28 78 q 28 313 28 235 q 28 469 28 390 q 28 626 28 547 q 28 744 28 685 q 28 861 28 803 q 188 861 108 861 q 349 861 268 861 q 508 861 429 861 q 508 647 508 754 q 508 431 508 539 q 508 215 508 322 q 508 0 508 107 l 28 0 m 181 1246 l 86 961 l 407 961 l 643 1246 l 181 1246 z "},"ĭ":{"ha":536,"x_min":-58,"x_max":596,"o":"m 28 0 q 28 156 28 78 q 28 313 28 235 q 28 469 28 390 q 28 626 28 547 q 28 744 28 685 q 28 861 28 803 q 188 861 108 861 q 349 861 268 861 q 508 861 429 861 q 508 647 508 754 q 508 431 508 539 q 508 215 508 322 q 508 0 508 107 l 28 0 m -58 1199 l 194 1199 q 203 1160 194 1175 q 229 1138 213 1144 q 268 1131 246 1131 q 308 1138 292 1131 q 333 1160 324 1144 q 342 1199 342 1175 l 596 1199 q 552 1061 596 1117 q 434 978 508 1006 q 268 950 360 950 q 103 978 178 950 q -15 1061 29 1006 q -58 1199 -58 1117 z "},"î":{"ha":536,"x_min":-18,"x_max":554,"o":"m 28 0 q 28 156 28 78 q 28 313 28 235 q 28 469 28 390 q 28 626 28 547 q 28 744 28 685 q 28 861 28 803 q 188 861 108 861 q 349 861 268 861 q 508 861 429 861 q 508 647 508 754 q 508 431 508 539 q 508 215 508 322 q 508 0 508 107 l 28 0 m -18 961 l 129 1246 l 407 1246 l 554 961 l 326 961 l 253 1103 l 276 1103 l 206 961 l -18 961 z "},"ï":{"ha":536,"x_min":0,"x_max":536,"o":"m 28 0 q 28 156 28 78 q 28 313 28 235 q 28 469 28 390 q 28 626 28 547 q 28 744 28 685 q 28 861 28 803 q 188 861 108 861 q 349 861 268 861 q 508 861 429 861 q 508 647 508 754 q 508 431 508 539 q 508 215 508 322 q 508 0 508 107 l 28 0 m 1 961 q 0 961 0 961 q 0 963 0 961 l 0 1185 q 0 1186 0 1186 q 1 1186 0 1186 l 250 1186 q 251 1185 251 1186 l 251 963 q 251 961 251 961 q 250 961 251 961 l 1 961 m 286 961 q 285 961 285 961 q 285 963 285 961 l 285 1185 q 286 1186 285 1186 l 535 1186 q 536 1186 536 1186 q 536 1185 536 1186 l 536 963 q 535 961 536 961 l 286 961 z "},"ị":{"ha":536,"x_min":28,"x_max":508,"o":"m 28 0 q 28 127 28 64 q 28 253 28 190 q 28 379 28 317 q 28 432 28 406 q 28 485 28 458 q 188 485 108 485 q 349 485 268 485 q 508 485 429 485 q 508 324 508 404 q 508 162 508 243 q 508 0 508 81 l 28 0 m 28 485 q 28 674 28 579 q 28 861 28 768 l 508 861 q 508 769 508 815 q 508 678 508 724 q 508 586 508 632 q 508 585 508 586 q 507 585 507 585 q 267 535 388 560 q 28 485 147 510 m 31 -364 q 28 -363 29 -364 q 28 -361 28 -362 l 28 -82 q 31 -79 28 -79 l 506 -79 q 508 -80 507 -79 q 508 -82 508 -81 l 508 -361 q 506 -364 508 -364 l 31 -364 z "},"ì":{"ha":536,"x_min":-114,"x_max":508,"o":"m 28 0 q 28 156 28 78 q 28 313 28 235 q 28 469 28 390 q 28 626 28 547 q 28 744 28 685 q 28 861 28 803 q 188 861 108 861 q 349 861 268 861 q 508 861 429 861 q 508 647 508 754 q 508 431 508 539 q 508 215 508 322 q 508 0 508 107 l 28 0 m 122 961 l -114 1246 l 349 1246 l 443 961 l 122 961 z "},"ĳ":{"ha":1072,"x_min":28,"x_max":1044,"o":"m 28 0 q 28 127 28 64 q 28 253 28 190 q 28 379 28 317 q 28 432 28 406 q 28 485 28 458 q 188 485 108 485 q 349 485 268 485 q 508 485 429 485 q 508 324 508 404 q 508 162 508 243 q 508 0 508 81 l 28 0 m 28 485 q 28 674 28 579 q 28 861 28 768 l 508 861 q 508 769 508 815 q 508 678 508 724 q 508 586 508 632 q 508 585 508 586 q 507 585 507 585 q 267 535 388 560 q 28 485 147 510 m 564 -175 q 564 -10 564 -92 q 564 155 564 72 q 564 319 564 238 q 564 485 564 401 l 1044 485 q 1044 203 1044 342 q 1044 -78 1044 65 l 564 -175 m 564 485 q 564 674 564 579 q 564 861 564 768 l 1044 861 q 1044 769 1044 815 q 1044 678 1044 724 q 1044 586 1044 632 q 1044 585 1044 586 q 1043 585 1043 585 q 803 535 924 560 q 564 485 683 510 z "},"ī":{"ha":536,"x_min":3,"x_max":533,"o":"m 28 0 q 28 156 28 78 q 28 313 28 235 q 28 469 28 390 q 28 626 28 547 q 28 744 28 685 q 28 861 28 803 q 188 861 108 861 q 349 861 268 861 q 508 861 429 861 q 508 647 508 754 q 508 431 508 539 q 508 215 508 322 q 508 0 508 107 l 28 0 m 3 983 l 3 1201 l 533 1201 l 533 983 l 3 983 z "},"į":{"ha":536,"x_min":-11,"x_max":508,"o":"m 311 -428 q 76 -367 163 -428 q -11 -182 -11 -307 q -10 -150 -11 -165 q -6 -119 -8 -135 q -1 -89 -4 -104 q 6 -59 1 -74 q 15 -29 10 -44 q 28 0 21 -14 q 28 127 28 64 q 28 253 28 190 q 28 379 28 317 q 28 432 28 406 q 28 485 28 458 q 188 485 108 485 q 349 485 268 485 q 508 485 429 485 q 508 324 508 404 q 508 162 508 243 q 508 0 508 81 q 369 -37 408 -6 q 329 -97 329 -69 q 340 -124 329 -114 q 369 -140 350 -135 q 415 -146 389 -146 q 463 -140 440 -146 q 508 -124 485 -133 l 508 -396 q 417 -419 458 -411 q 311 -428 376 -428 m 28 485 q 28 674 28 579 q 28 861 28 768 l 508 861 q 508 769 508 815 q 508 678 508 724 q 508 586 508 632 q 508 585 508 586 q 507 585 507 585 q 267 535 388 560 q 28 485 147 510 z "},"ĩ":{"ha":536,"x_min":-35,"x_max":572,"o":"m 28 0 q 28 156 28 78 q 28 313 28 235 q 28 469 28 390 q 28 626 28 547 q 28 744 28 685 q 28 861 28 803 q 188 861 108 861 q 349 861 268 861 q 508 861 429 861 q 508 647 508 754 q 508 431 508 539 q 508 215 508 322 q 508 0 508 107 l 28 0 m -12 957 l 176 957 q 169 1006 165 986 q 193 1025 172 1025 q 239 1014 217 1025 q 286 988 261 1003 q 344 961 311 972 q 422 950 376 950 q 533 1026 494 950 q 549 1250 572 1103 l 361 1250 q 368 1200 371 1219 q 342 1181 365 1181 q 299 1192 322 1181 q 249 1219 276 1204 q 191 1245 222 1233 q 124 1257 160 1257 q -2 1175 31 1257 q -12 957 -35 1093 z "},"j":{"ha":536,"x_min":28,"x_max":508,"o":"m 28 -175 q 28 -10 28 -92 q 28 155 28 72 q 28 319 28 238 q 28 485 28 401 l 508 485 q 508 203 508 342 q 508 -78 508 65 l 28 -175 m 28 485 q 28 674 28 579 q 28 861 28 768 l 508 861 q 508 769 508 815 q 508 678 508 724 q 508 586 508 632 q 508 585 508 586 q 507 585 507 585 q 267 535 388 560 q 28 485 147 510 z "},"ȷ":{"ha":536,"x_min":28,"x_max":508,"o":"m 28 -175 q 28 31 28 -71 q 28 235 28 133 q 28 442 28 338 q 28 651 28 547 q 28 861 28 756 l 508 861 q 508 617 508 739 q 508 375 508 496 q 508 149 508 261 q 508 -78 508 38 l 28 -175 z "},"ĵ":{"ha":536,"x_min":-18,"x_max":554,"o":"m 28 -175 q 28 31 28 -71 q 28 235 28 133 q 28 442 28 338 q 28 651 28 547 q 28 861 28 756 l 508 861 q 508 617 508 739 q 508 375 508 496 q 508 149 508 261 q 508 -78 508 38 l 28 -175 m -18 961 l 129 1246 l 407 1246 l 554 961 l 326 961 l 253 1103 l 276 1103 l 206 961 l -18 961 z "},"k":{"ha":1242,"x_min":28,"x_max":1257,"o":"m 28 0 q 28 338 28 169 q 28 675 28 507 q 28 858 28 767 q 28 1042 28 950 l 508 1042 q 508 890 508 965 q 508 739 508 814 q 508 588 508 664 q 508 436 508 513 q 508 435 508 436 q 508 434 508 435 q 508 432 508 433 q 508 400 508 424 q 508 342 508 376 q 508 231 508 293 q 508 108 508 169 q 508 0 508 47 l 28 0 m 990 456 q 989 453 989 454 q 990 451 989 453 l 1257 0 l 697 0 q 635 143 667 72 q 573 285 604 214 q 510 428 542 357 q 510 428 510 428 q 509 430 510 429 q 508 431 508 431 q 509 431 508 431 q 510 433 510 432 q 510 433 510 433 l 704 861 l 1249 861 l 990 456 z "},"ķ":{"ha":1242,"x_min":28,"x_max":1257,"o":"m 28 0 q 28 338 28 169 q 28 675 28 507 q 28 858 28 767 q 28 1042 28 950 l 508 1042 q 508 890 508 965 q 508 739 508 814 q 508 588 508 664 q 508 436 508 513 q 508 435 508 436 q 508 434 508 435 q 508 432 508 433 q 508 400 508 424 q 508 342 508 376 q 508 231 508 293 q 508 108 508 169 q 508 0 508 47 l 28 0 m 990 456 q 989 453 989 454 q 990 451 989 453 l 1257 0 l 697 0 q 635 143 667 72 q 573 285 604 214 q 510 428 542 357 q 510 428 510 428 q 509 430 510 429 q 508 431 508 431 q 509 431 508 431 q 510 433 510 432 q 510 433 510 433 l 704 861 l 1249 861 l 990 456 m 369 -351 l 406 -79 l 786 -79 l 679 -351 l 369 -351 z "},"ĸ":{"ha":1242,"x_min":28,"x_max":1257,"o":"m 28 0 q 28 153 28 85 q 28 285 28 221 q 28 417 28 349 q 28 569 28 485 q 28 673 28 631 q 28 758 28 715 q 28 861 28 800 l 508 861 q 508 682 508 760 q 508 544 508 604 q 508 436 508 485 q 508 435 508 436 q 508 434 508 435 q 508 432 508 433 q 508 400 508 424 q 508 342 508 376 q 508 231 508 293 q 508 108 508 169 q 508 0 508 47 l 28 0 m 990 456 q 989 453 989 454 q 990 451 989 453 l 1257 0 l 697 0 q 635 143 667 72 q 573 285 604 214 q 510 428 542 357 q 510 428 510 428 q 509 430 510 429 q 508 431 508 431 q 509 431 508 431 q 510 433 510 432 q 510 433 510 433 l 704 861 l 1249 861 l 990 456 z "},"ƙ":{"ha":1242,"x_min":28,"x_max":1257,"o":"m 28 0 q 28 152 28 68 q 28 324 28 236 q 28 492 28 413 q 28 630 28 571 q 28 715 28 689 q 58 890 28 819 q 143 1003 88 961 q 276 1065 199 1046 q 447 1083 353 1083 q 550 1078 496 1083 q 643 1064 604 1072 l 643 786 q 621 795 633 793 q 590 797 608 797 q 554 792 569 797 q 528 774 539 786 q 513 745 518 763 q 508 704 508 728 q 508 626 508 663 q 508 540 508 590 q 508 407 508 490 q 508 338 508 375 q 508 257 508 301 q 508 140 508 204 q 508 0 508 76 l 28 0 m 697 0 q 635 143 667 72 q 573 285 604 214 q 510 428 542 357 q 510 428 510 428 q 509 430 510 429 q 508 431 508 431 q 509 431 508 431 q 510 433 510 432 q 510 433 510 433 l 704 861 l 1249 861 l 990 456 q 989 453 989 454 q 990 451 989 453 l 1257 0 l 697 0 z "},"l":{"ha":536,"x_min":28,"x_max":508,"o":"m 28 0 q 28 222 28 111 q 28 442 28 332 q 28 663 28 553 q 28 852 28 757 q 28 1042 28 947 l 508 1042 q 508 926 508 983 q 508 810 508 868 q 508 406 508 608 q 508 0 508 203 l 28 0 z "},"ĺ":{"ha":536,"x_min":28,"x_max":661,"o":"m 28 0 q 28 222 28 111 q 28 442 28 332 q 28 663 28 553 q 28 852 28 757 q 28 1042 28 947 l 508 1042 q 508 926 508 983 q 508 810 508 868 q 508 406 508 608 q 508 0 508 203 l 28 0 m 199 1426 l 104 1142 l 425 1142 l 661 1426 l 199 1426 z "},"ľ":{"ha":889,"x_min":28,"x_max":922,"o":"m 28 0 q 28 222 28 111 q 28 442 28 332 q 28 663 28 553 q 28 852 28 757 q 28 1042 28 947 l 508 1042 q 508 926 508 983 q 508 810 508 868 q 508 406 508 608 q 508 0 508 203 l 28 0 m 814 674 l 546 674 l 583 1042 l 922 1042 l 814 674 z "},"ḽ":{"ha":536,"x_min":-135,"x_max":679,"o":"m 28 0 q 28 222 28 111 q 28 442 28 332 q 28 663 28 553 q 28 852 28 757 q 28 1042 28 947 l 508 1042 q 508 926 508 983 q 508 810 508 868 q 508 406 508 608 q 508 0 508 203 l 28 0 m -135 -372 l 26 -87 l 518 -87 l 679 -372 l 340 -372 l 254 -211 l 275 -211 l 194 -372 l -135 -372 z "},"ļ":{"ha":536,"x_min":28,"x_max":508,"o":"m 28 0 q 28 222 28 111 q 28 442 28 332 q 28 663 28 553 q 28 852 28 757 q 28 1042 28 947 l 508 1042 q 508 926 508 983 q 508 810 508 868 q 508 406 508 608 q 508 0 508 203 l 28 0 m 47 -351 l 83 -79 l 464 -79 l 357 -351 l 47 -351 z "},"ŀ":{"ha":956,"x_min":28,"x_max":928,"o":"m 551 379 l 551 690 l 928 690 l 928 379 l 551 379 m 28 0 q 28 222 28 111 q 28 442 28 332 q 28 663 28 553 q 28 852 28 757 q 28 1042 28 947 l 508 1042 q 508 926 508 983 q 508 810 508 868 q 508 406 508 608 q 508 0 508 203 l 28 0 z "},"ł":{"ha":676,"x_min":17,"x_max":661,"o":"m 17 299 l 17 438 l 661 765 l 661 626 l 17 299 m 101 0 q 101 222 101 111 q 101 442 101 332 q 101 663 101 553 q 101 852 101 757 q 101 1042 101 947 l 582 1042 q 582 926 582 983 q 582 810 582 868 q 582 406 582 608 q 582 0 582 203 l 101 0 z "},"m":{"ha":1799,"x_min":28,"x_max":1772,"o":"m 28 0 q 28 197 28 99 q 28 395 28 296 q 28 593 28 494 q 28 728 28 661 q 28 861 28 794 l 508 861 q 508 678 508 769 q 508 496 508 588 q 508 248 508 372 q 508 0 508 124 l 28 0 m 664 0 q 664 219 664 108 q 664 439 664 331 q 644 496 664 479 q 596 514 624 513 q 545 507 568 515 q 517 490 522 499 l 628 847 q 847 892 729 892 q 958 878 906 892 q 1053 835 1011 864 q 1120 758 1096 806 q 1144 643 1144 710 q 1144 561 1144 603 q 1144 479 1144 519 q 1144 440 1144 460 q 1144 400 1144 419 q 1144 360 1144 381 q 1144 181 1144 271 q 1144 0 1144 90 l 664 0 m 1292 0 q 1292 219 1292 108 q 1292 439 1292 331 q 1272 496 1292 479 q 1224 514 1251 513 q 1173 507 1196 515 q 1144 490 1150 499 l 1242 847 q 1349 881 1292 869 q 1464 892 1407 892 q 1615 867 1544 892 q 1728 788 1685 842 q 1772 643 1772 733 l 1772 0 l 1292 0 z "},"n":{"ha":1163,"x_min":28,"x_max":1136,"o":"m 656 0 q 656 219 656 108 q 656 439 656 331 q 635 496 656 479 q 588 514 615 513 q 537 507 560 515 q 508 490 514 499 l 619 847 q 726 881 669 869 q 839 892 783 892 q 984 867 917 892 q 1094 788 1051 842 q 1136 643 1136 733 l 1136 0 l 656 0 m 28 0 q 28 178 28 89 q 28 358 28 268 q 28 536 28 447 q 28 699 28 618 q 28 861 28 781 q 188 861 108 861 q 349 861 268 861 q 508 861 429 861 q 508 766 508 811 q 508 676 508 721 q 508 585 508 631 q 508 490 508 540 q 508 455 508 472 q 508 418 508 438 q 508 207 508 315 q 508 0 508 99 l 28 0 z "},"ń":{"ha":1163,"x_min":28,"x_max":1136,"o":"m 656 0 q 656 219 656 108 q 656 439 656 331 q 635 496 656 479 q 588 514 615 513 q 537 507 560 515 q 508 490 514 499 l 619 847 q 726 881 669 869 q 839 892 783 892 q 984 867 917 892 q 1094 788 1051 842 q 1136 643 1136 733 l 1136 0 l 656 0 m 28 0 q 28 178 28 89 q 28 358 28 268 q 28 536 28 447 q 28 699 28 618 q 28 861 28 781 q 188 861 108 861 q 349 861 268 861 q 508 861 429 861 q 508 766 508 811 q 508 676 508 721 q 508 585 508 631 q 508 490 508 540 q 508 455 508 472 q 508 418 508 438 q 508 207 508 315 q 508 0 508 99 l 28 0 m 494 1246 l 400 961 l 721 961 l 957 1246 l 494 1246 z "},"ŉ":{"ha":1683,"x_min":28,"x_max":1657,"o":"m 493 538 l 28 638 l 28 1042 l 493 1042 l 493 538 m 1176 0 q 1176 219 1176 108 q 1176 439 1176 331 q 1156 496 1176 479 q 1108 514 1136 513 q 1058 507 1081 515 q 1029 490 1035 499 l 1140 847 q 1247 881 1190 869 q 1360 892 1304 892 q 1505 867 1438 892 q 1615 788 1572 842 q 1657 643 1657 733 l 1657 0 l 1176 0 m 549 0 q 549 178 549 89 q 549 358 549 268 q 549 536 549 447 q 549 699 549 618 q 549 861 549 781 q 709 861 629 861 q 869 861 789 861 q 1029 861 950 861 q 1029 766 1029 811 q 1029 676 1029 721 q 1029 585 1029 631 q 1029 490 1029 540 q 1029 455 1029 472 q 1029 418 1029 438 q 1029 207 1029 315 q 1029 0 1029 99 l 549 0 z "},"ň":{"ha":1163,"x_min":28,"x_max":1136,"o":"m 656 0 q 656 219 656 108 q 656 439 656 331 q 635 496 656 479 q 588 514 615 513 q 537 507 560 515 q 508 490 514 499 l 619 847 q 726 881 669 869 q 839 892 783 892 q 984 867 917 892 q 1094 788 1051 842 q 1136 643 1136 733 l 1136 0 l 656 0 m 28 0 q 28 178 28 89 q 28 358 28 268 q 28 536 28 447 q 28 699 28 618 q 28 861 28 781 q 188 861 108 861 q 349 861 268 861 q 508 861 429 861 q 508 766 508 811 q 508 676 508 721 q 508 585 508 631 q 508 490 508 540 q 508 455 508 472 q 508 418 508 438 q 508 207 508 315 q 508 0 508 99 l 28 0 m 985 1246 l 824 961 l 332 961 l 171 1246 l 510 1246 l 596 1085 l 575 1085 l 656 1246 l 985 1246 z "},"ṋ":{"ha":1163,"x_min":28,"x_max":1136,"o":"m 656 0 q 656 219 656 108 q 656 439 656 331 q 635 496 656 479 q 588 514 615 513 q 537 507 560 515 q 508 490 514 499 l 619 847 q 726 881 669 869 q 839 892 783 892 q 984 867 917 892 q 1094 788 1051 842 q 1136 643 1136 733 l 1136 0 l 656 0 m 28 0 q 28 178 28 89 q 28 358 28 268 q 28 536 28 447 q 28 699 28 618 q 28 861 28 781 q 188 861 108 861 q 349 861 268 861 q 508 861 429 861 q 508 766 508 811 q 508 676 508 721 q 508 585 508 631 q 508 490 508 540 q 508 455 508 472 q 508 418 508 438 q 508 207 508 315 q 508 0 508 99 l 28 0 m 175 -372 l 336 -87 l 828 -87 l 989 -372 l 650 -372 l 564 -211 l 585 -211 l 504 -372 l 175 -372 z "},"ņ":{"ha":1163,"x_min":28,"x_max":1136,"o":"m 656 0 q 656 219 656 108 q 656 439 656 331 q 635 496 656 479 q 588 514 615 513 q 537 507 560 515 q 508 490 514 499 l 619 847 q 726 881 669 869 q 839 892 783 892 q 984 867 917 892 q 1094 788 1051 842 q 1136 643 1136 733 l 1136 0 l 656 0 m 28 0 q 28 178 28 89 q 28 358 28 268 q 28 536 28 447 q 28 699 28 618 q 28 861 28 781 q 188 861 108 861 q 349 861 268 861 q 508 861 429 861 q 508 766 508 811 q 508 676 508 721 q 508 585 508 631 q 508 490 508 540 q 508 455 508 472 q 508 418 508 438 q 508 207 508 315 q 508 0 508 99 l 28 0 m 357 -351 l 393 -79 l 774 -79 l 667 -351 l 357 -351 z "},"ṅ":{"ha":1163,"x_min":28,"x_max":1136,"o":"m 656 0 q 656 219 656 108 q 656 439 656 331 q 635 496 656 479 q 588 514 615 513 q 537 507 560 515 q 508 490 514 499 l 619 847 q 726 881 669 869 q 839 892 783 892 q 984 867 917 892 q 1094 788 1051 842 q 1136 643 1136 733 l 1136 0 l 656 0 m 28 0 q 28 178 28 89 q 28 358 28 268 q 28 536 28 447 q 28 699 28 618 q 28 861 28 781 q 188 861 108 861 q 349 861 268 861 q 508 861 429 861 q 508 766 508 811 q 508 676 508 721 q 508 585 508 631 q 508 490 508 540 q 508 455 508 472 q 508 418 508 438 q 508 207 508 315 q 508 0 508 99 l 28 0 m 344 961 q 342 962 343 961 q 342 964 342 963 l 342 1243 q 344 1246 342 1246 l 819 1246 q 822 1245 821 1246 q 822 1243 822 1244 l 822 964 q 819 961 822 961 l 344 961 z "},"ɲ":{"ha":1258,"x_min":7,"x_max":1232,"o":"m 7 -214 l 7 106 q 95 108 67 90 q 124 183 124 126 q 124 417 124 311 q 124 628 124 522 q 124 861 124 735 q 284 861 204 861 q 444 861 364 861 q 604 861 525 861 q 604 769 604 815 q 604 676 604 722 q 604 583 604 629 q 604 490 604 536 q 604 448 604 467 q 604 413 604 429 q 604 379 604 396 q 604 310 604 350 q 604 211 604 271 q 604 60 604 151 q 575 -65 604 -7 q 478 -165 546 -124 q 294 -220 410 -206 q 7 -214 179 -235 m 751 0 q 751 216 751 108 q 751 432 751 324 q 731 490 751 472 q 683 510 711 508 q 633 506 656 513 q 604 490 610 499 l 715 847 q 822 881 765 869 q 935 892 879 892 q 1080 867 1013 892 q 1190 788 1147 842 q 1232 643 1232 733 l 1232 0 l 751 0 z "},"ñ":{"ha":1163,"x_min":28,"x_max":1136,"o":"m 656 0 q 656 219 656 108 q 656 439 656 331 q 635 496 656 479 q 588 514 615 513 q 537 507 560 515 q 508 490 514 499 l 619 847 q 726 881 669 869 q 839 892 783 892 q 984 867 917 892 q 1094 788 1051 842 q 1136 643 1136 733 l 1136 0 l 656 0 m 28 0 q 28 178 28 89 q 28 358 28 268 q 28 536 28 447 q 28 699 28 618 q 28 861 28 781 q 188 861 108 861 q 349 861 268 861 q 508 861 429 861 q 508 766 508 811 q 508 676 508 721 q 508 585 508 631 q 508 490 508 540 q 508 455 508 472 q 508 418 508 438 q 508 207 508 315 q 508 0 508 99 l 28 0 m 197 957 l 428 957 q 428 1008 417 993 q 460 1022 439 1022 q 504 1011 479 1022 q 560 986 529 1000 q 630 961 592 972 q 711 950 668 950 q 813 966 763 950 q 903 1017 864 982 q 962 1109 943 1051 q 967 1250 981 1167 l 738 1250 q 736 1198 747 1213 q 701 1183 725 1183 q 659 1194 683 1183 q 603 1220 635 1206 q 535 1246 572 1235 q 454 1257 499 1257 q 313 1228 378 1257 q 213 1133 247 1199 q 197 957 179 1068 z "},"ŋ":{"ha":1163,"x_min":28,"x_max":1136,"o":"m 542 -214 l 542 106 q 603 99 578 96 q 642 122 628 101 q 656 186 656 143 l 656 432 q 635 490 656 472 q 588 510 615 508 q 537 506 560 513 q 508 490 514 499 l 619 847 q 726 881 669 869 q 839 892 783 892 q 984 867 917 892 q 1094 788 1051 842 q 1136 643 1136 733 l 1136 68 q 981 -178 1136 -104 q 542 -214 826 -251 m 28 0 q 28 184 28 92 q 28 369 28 276 q 28 553 28 461 q 28 708 28 631 q 28 861 28 785 q 188 861 108 861 q 349 861 268 861 q 508 861 429 861 q 508 766 508 811 q 508 676 508 721 q 508 585 508 631 q 508 490 508 540 q 508 465 508 478 q 508 440 508 453 q 508 219 508 333 q 508 0 508 104 l 28 0 z "},"o":{"ha":1278,"x_min":14,"x_max":1264,"o":"m 639 -42 q 472 -29 553 -42 q 322 9 392 -17 q 196 74 253 35 q 99 165 139 113 q 36 283 58 217 q 14 429 14 349 q 45 599 14 524 q 134 732 76 675 q 269 827 192 789 q 441 884 347 865 q 639 903 535 903 q 883 873 769 903 q 1081 784 996 843 q 1215 636 1167 725 q 1264 429 1264 547 q 1215 223 1264 311 q 1081 76 1167 135 q 883 -12 996 17 q 639 -42 769 -42 m 640 326 q 763 360 726 326 q 799 432 799 393 q 790 468 799 450 q 764 501 782 486 q 715 526 746 517 q 640 535 685 535 q 565 526 596 535 q 515 501 533 517 q 488 468 496 486 q 479 431 479 450 q 488 392 479 411 q 515 359 496 374 q 565 335 535 344 q 640 326 596 326 z "},"ó":{"ha":1278,"x_min":14,"x_max":1264,"o":"m 639 -42 q 472 -29 553 -42 q 322 9 392 -17 q 196 74 253 35 q 99 165 139 113 q 36 283 58 217 q 14 429 14 349 q 45 599 14 524 q 134 732 76 675 q 269 827 192 789 q 441 884 347 865 q 639 903 535 903 q 883 873 769 903 q 1081 784 996 843 q 1215 636 1167 725 q 1264 429 1264 547 q 1215 223 1264 311 q 1081 76 1167 135 q 883 -12 996 17 q 639 -42 769 -42 m 640 326 q 763 360 726 326 q 799 432 799 393 q 790 468 799 450 q 764 501 782 486 q 715 526 746 517 q 640 535 685 535 q 565 526 596 535 q 515 501 533 517 q 488 468 496 486 q 479 431 479 450 q 488 392 479 411 q 515 359 496 374 q 565 335 535 344 q 640 326 596 326 m 551 1246 l 457 961 l 778 961 l 1014 1246 l 551 1246 z "},"ŏ":{"ha":1278,"x_min":14,"x_max":1264,"o":"m 639 -42 q 472 -29 553 -42 q 322 9 392 -17 q 196 74 253 35 q 99 165 139 113 q 36 283 58 217 q 14 429 14 349 q 45 599 14 524 q 134 732 76 675 q 269 827 192 789 q 441 884 347 865 q 639 903 535 903 q 883 873 769 903 q 1081 784 996 843 q 1215 636 1167 725 q 1264 429 1264 547 q 1215 223 1264 311 q 1081 76 1167 135 q 883 -12 996 17 q 639 -42 769 -42 m 640 326 q 763 360 726 326 q 799 432 799 393 q 790 468 799 450 q 764 501 782 486 q 715 526 746 517 q 640 535 685 535 q 565 526 596 535 q 515 501 533 517 q 488 468 496 486 q 479 431 479 450 q 488 392 479 411 q 515 359 496 374 q 565 335 535 344 q 640 326 596 326 m 228 1199 l 539 1199 q 551 1160 539 1175 q 585 1138 563 1144 q 639 1131 608 1131 q 692 1138 669 1131 q 727 1160 714 1144 q 740 1199 740 1175 l 1051 1199 q 948 1013 1051 1076 q 639 950 844 950 q 331 1013 435 950 q 228 1199 228 1075 z "},"ô":{"ha":1278,"x_min":14,"x_max":1264,"o":"m 639 -42 q 472 -29 553 -42 q 322 9 392 -17 q 196 74 253 35 q 99 165 139 113 q 36 283 58 217 q 14 429 14 349 q 45 599 14 524 q 134 732 76 675 q 269 827 192 789 q 441 884 347 865 q 639 903 535 903 q 883 873 769 903 q 1081 784 996 843 q 1215 636 1167 725 q 1264 429 1264 547 q 1215 223 1264 311 q 1081 76 1167 135 q 883 -12 996 17 q 639 -42 769 -42 m 640 326 q 763 360 726 326 q 799 432 799 393 q 790 468 799 450 q 764 501 782 486 q 715 526 746 517 q 640 535 685 535 q 565 526 596 535 q 515 501 533 517 q 488 468 496 486 q 479 431 479 450 q 488 392 479 411 q 515 359 496 374 q 565 335 535 344 q 640 326 596 326 m 243 961 l 404 1246 l 896 1246 l 1057 961 l 718 961 l 632 1122 l 653 1122 l 572 961 l 243 961 z "},"ö":{"ha":1278,"x_min":14,"x_max":1264,"o":"m 639 -42 q 472 -29 553 -42 q 322 9 392 -17 q 196 74 253 35 q 99 165 139 113 q 36 283 58 217 q 14 429 14 349 q 45 599 14 524 q 134 732 76 675 q 269 827 192 789 q 441 884 347 865 q 639 903 535 903 q 883 873 769 903 q 1081 784 996 843 q 1215 636 1167 725 q 1264 429 1264 547 q 1215 223 1264 311 q 1081 76 1167 135 q 883 -12 996 17 q 639 -42 769 -42 m 640 326 q 763 360 726 326 q 799 432 799 393 q 790 468 799 450 q 764 501 782 486 q 715 526 746 517 q 640 535 685 535 q 565 526 596 535 q 515 501 533 517 q 488 468 496 486 q 479 431 479 450 q 488 392 479 411 q 515 359 496 374 q 565 335 535 344 q 640 326 596 326 m 167 961 q 165 961 165 961 q 165 963 165 961 l 165 1185 q 165 1186 165 1186 q 167 1186 165 1186 l 610 1186 q 611 1185 611 1186 l 611 963 q 611 961 611 961 q 610 961 611 961 l 167 961 m 668 961 q 667 961 667 961 q 667 963 667 961 l 667 1185 q 668 1186 667 1186 l 1111 1186 q 1113 1186 1113 1186 q 1113 1185 1113 1186 l 1113 963 q 1111 961 1113 961 l 668 961 z "},"ọ":{"ha":1278,"x_min":14,"x_max":1264,"o":"m 639 -42 q 472 -29 553 -42 q 322 9 392 -17 q 196 74 253 35 q 99 165 139 113 q 36 283 58 217 q 14 429 14 349 q 45 599 14 524 q 134 732 76 675 q 269 827 192 789 q 441 884 347 865 q 639 903 535 903 q 883 873 769 903 q 1081 784 996 843 q 1215 636 1167 725 q 1264 429 1264 547 q 1215 223 1264 311 q 1081 76 1167 135 q 883 -12 996 17 q 639 -42 769 -42 m 640 326 q 763 360 726 326 q 799 432 799 393 q 790 468 799 450 q 764 501 782 486 q 715 526 746 517 q 640 535 685 535 q 565 526 596 535 q 515 501 533 517 q 488 468 496 486 q 479 431 479 450 q 488 392 479 411 q 515 359 496 374 q 565 335 535 344 q 640 326 596 326 m 401 -406 q 399 -405 400 -406 q 399 -403 399 -404 l 399 -124 q 401 -121 399 -121 l 876 -121 q 878 -122 878 -121 q 879 -124 879 -122 l 879 -403 q 876 -406 879 -406 l 401 -406 z "},"ò":{"ha":1278,"x_min":14,"x_max":1264,"o":"m 639 -42 q 472 -29 553 -42 q 322 9 392 -17 q 196 74 253 35 q 99 165 139 113 q 36 283 58 217 q 14 429 14 349 q 45 599 14 524 q 134 732 76 675 q 269 827 192 789 q 441 884 347 865 q 639 903 535 903 q 883 873 769 903 q 1081 784 996 843 q 1215 636 1167 725 q 1264 429 1264 547 q 1215 223 1264 311 q 1081 76 1167 135 q 883 -12 996 17 q 639 -42 769 -42 m 640 326 q 763 360 726 326 q 799 432 799 393 q 790 468 799 450 q 764 501 782 486 q 715 526 746 517 q 640 535 685 535 q 565 526 596 535 q 515 501 533 517 q 488 468 496 486 q 479 431 479 450 q 488 392 479 411 q 515 359 496 374 q 565 335 535 344 q 640 326 596 326 m 493 961 l 257 1246 l 719 1246 l 814 961 l 493 961 z "},"ő":{"ha":1278,"x_min":14,"x_max":1264,"o":"m 639 -42 q 472 -29 553 -42 q 322 9 392 -17 q 196 74 253 35 q 99 165 139 113 q 36 283 58 217 q 14 429 14 349 q 45 599 14 524 q 134 732 76 675 q 269 827 192 789 q 441 884 347 865 q 639 903 535 903 q 883 873 769 903 q 1081 784 996 843 q 1215 636 1167 725 q 1264 429 1264 547 q 1215 223 1264 311 q 1081 76 1167 135 q 883 -12 996 17 q 639 -42 769 -42 m 640 326 q 763 360 726 326 q 799 432 799 393 q 790 468 799 450 q 764 501 782 486 q 715 526 746 517 q 640 535 685 535 q 565 526 596 535 q 515 501 533 517 q 488 468 496 486 q 479 431 479 450 q 488 392 479 411 q 515 359 496 374 q 565 335 535 344 q 640 326 596 326 m 349 1246 l 260 961 l 567 961 l 769 1246 l 349 1246 m 793 1246 l 704 961 l 1011 961 l 1214 1246 l 793 1246 z "},"ō":{"ha":1278,"x_min":14,"x_max":1264,"o":"m 639 -42 q 472 -29 553 -42 q 322 9 392 -17 q 196 74 253 35 q 99 165 139 113 q 36 283 58 217 q 14 429 14 349 q 45 599 14 524 q 134 732 76 675 q 269 827 192 789 q 441 884 347 865 q 639 903 535 903 q 883 873 769 903 q 1081 784 996 843 q 1215 636 1167 725 q 1264 429 1264 547 q 1215 223 1264 311 q 1081 76 1167 135 q 883 -12 996 17 q 639 -42 769 -42 m 640 326 q 763 360 726 326 q 799 432 799 393 q 790 468 799 450 q 764 501 782 486 q 715 526 746 517 q 640 535 685 535 q 565 526 596 535 q 515 501 533 517 q 488 468 496 486 q 479 431 479 450 q 488 392 479 411 q 515 359 496 374 q 565 335 535 344 q 640 326 596 326 m 289 983 l 289 1201 l 989 1201 l 989 983 l 289 983 z "},"ǫ":{"ha":1278,"x_min":14,"x_max":1264,"o":"m 732 -419 q 465 -358 554 -419 q 376 -186 376 -297 q 379 -151 376 -168 q 386 -119 382 -135 q 397 -90 390 -104 q 410 -62 403 -75 q 426 -40 418 -50 q 442 -24 433 -31 q 312 13 375 -11 q 194 75 249 38 q 100 163 140 113 q 37 279 60 214 q 14 426 14 344 q 45 599 14 522 q 134 732 76 675 q 269 827 192 789 q 441 884 347 865 q 639 903 535 903 q 883 873 769 903 q 1081 784 996 843 q 1215 635 1167 725 q 1264 426 1264 546 q 1214 220 1264 308 q 1076 74 1164 132 q 874 -14 989 15 q 776 -49 803 -32 q 750 -89 750 -67 q 774 -124 750 -111 q 842 -137 799 -137 q 891 -133 869 -137 q 943 -115 913 -128 l 943 -387 q 841 -411 889 -403 q 732 -419 793 -419 m 640 326 q 733 342 699 326 q 783 383 768 358 q 799 432 799 407 q 790 468 799 450 q 764 501 782 486 q 715 526 746 517 q 640 535 685 535 q 565 526 596 535 q 515 501 533 517 q 488 468 496 486 q 479 431 479 450 q 488 392 479 411 q 515 359 496 374 q 565 335 535 344 q 640 326 596 326 z "}}}
